<?xml version="1.0" standalone="no"?>
<!DOCTYPE svg PUBLIC "-//W3C//DTD SVG 1.1//EN" "http://www.w3.org/Graphics/SVG/1.1/DTD/svg11.dtd" >
<svg xmlns="http://www.w3.org/2000/svg" xmlns:xlink="http://www.w3.org/1999/xlink" version="1.1">
<metadata>
Created by FontForge 20170924 at Fri Mar 15 16:01:05 2019
 By www-data
Copyright \(c\) 2008 by Mark Simonson. All rights reserved. |DCNT
</metadata>
<defs>
<font id="RefrigeratorDeluxe-Heavy" horiz-adv-x="478" >
  <font-face 
    font-family="Refrigerator Deluxe Heavy"
    font-weight="900"
    font-stretch="normal"
    units-per-em="1000"
    panose-1="0 0 10 0 0 0 0 0 0 0"
    ascent="824"
    descent="-176"
    x-height="470"
    cap-height="700"
    bbox="-374 -220 1016 943"
    underline-thickness="54"
    underline-position="-87"
    stemh="140"
    stemv="135"
    unicode-range="U+000D-FB02"
  />
<missing-glyph 
d="M39 700h400v-700h-400v700zM126 646l113 -235l113 235h-226zM209 349l-116 241v-481zM269 349l116 -240v481zM239 287l-112 -233h224z" />
    <glyph glyph-name="f_b" unicode="fb" horiz-adv-x="706" 
d="M572 -2h-36c-37 0 -71 19 -78 48h-2v-46h-133v572c0 2 -1 3 -3 3h-103c-2 0 -3 -1 -3 -3v-102h80v-125h-80v-345h-135v345h-70v125h70v134c0 57 39 96 96 96h70c39 0 71 -17 78 -46h2v46h133v-230l-2 -46h2c7 29 41 48 78 48h36c57 0 96 -38 96 -95v-282
c0 -57 -39 -97 -96 -97zM530 345h-69c-2 0 -3 -1 -3 -3v-214c0 -2 1 -3 3 -3h69c2 0 3 1 3 3v214c0 2 -1 3 -3 3z" />
    <glyph glyph-name="f_f" unicode="ff" horiz-adv-x="562" 
d="M548 345h-90v-345h-135v345h-109v-345h-135v345h-70v125h70v134c0 57 39 96 96 96h119v-125h-77c-2 0 -3 -1 -3 -3v-102h109v134c0 57 39 96 96 96h129v-125h-87c-2 0 -3 -1 -3 -3v-102h90v-125z" />
    <glyph glyph-name="f_f_i" unicode="ffi" horiz-adv-x="742" 
d="M702 0h-135v345h-109v-345h-135v345h-109v-345h-135v345h-70v125h70v134c0 57 39 96 96 96h119v-125h-77c-2 0 -3 -1 -3 -3v-102h109v134c0 59 37 96 96 96h114v-125h-72c-2 0 -3 -1 -3 -3v-102h244v-470zM553 586c0 44 37 81 81 81c45 0 82 -37 82 -81
c0 -45 -37 -82 -82 -82c-44 0 -81 37 -81 82z" />
    <glyph glyph-name="f_f_l" unicode="ffl" horiz-adv-x="741" 
d="M702 0h-135v574c0 2 -1 3 -3 3h-103c-2 0 -3 -1 -3 -3v-104h80v-125h-80v-345h-135v345h-109v-345h-135v345h-70v125h70v134c0 57 39 96 96 96h119v-125h-77c-2 0 -3 -1 -3 -3v-102h109v136c0 57 39 96 96 96h70c37 0 71 -19 78 -48h2v46h133v-700z" />
    <glyph glyph-name="f_h" unicode="fh" horiz-adv-x="706" 
d="M668 0h-135v344c0 2 -1 3 -3 3h-69c-2 0 -3 -1 -3 -3v-344h-135v572c0 2 -1 3 -3 3h-103c-2 0 -3 -1 -3 -3v-102h80v-125h-80v-345h-135v345h-70v125h70v136c0 57 39 96 96 96h70c37 0 71 -19 78 -48h2v46h133v-230l-2 -46h2c7 29 41 48 78 48h36c59 0 96 -37 96 -96
v-376z" />
    <glyph glyph-name="fi" unicode="fi" horiz-adv-x="498" 
d="M458 0h-135v345h-109v-345h-135v345h-70v125h70v134c0 59 37 96 96 96h114v-125h-72c-2 0 -3 -1 -3 -3v-102h244v-470zM309 586c0 44 37 81 81 81c45 0 82 -37 82 -81c0 -45 -37 -82 -82 -82c-44 0 -81 37 -81 82z" />
    <glyph glyph-name="f_j" unicode="fj" horiz-adv-x="497" 
d="M362 -150h-79v125h37c2 0 3 1 3 3v367h-109v-345h-135v345h-70v125h70v134c0 57 39 96 96 96h114v-125h-72c-2 0 -3 -1 -3 -3v-102h244v-524c0 -56 -39 -96 -96 -96zM309 586c0 44 37 81 81 81c45 0 81 -37 81 -81c0 -45 -36 -82 -81 -82c-44 0 -81 37 -81 82z" />
    <glyph glyph-name="f_k" unicode="fk" horiz-adv-x="666" 
d="M678 0h-145l-51 166l-24 -46v-120h-135v572c0 2 -1 3 -3 3h-103c-2 0 -3 -1 -3 -3v-102h80v-125h-80v-345h-135v345h-70v125h70v136c0 57 39 96 96 96h76c31 0 65 -19 72 -48h2v46h133v-384l4 12l71 142h141l-110 -194z" />
    <glyph glyph-name="fl" unicode="fl" horiz-adv-x="497" 
d="M458 0h-135v572c0 2 -1 3 -3 3h-103c-2 0 -3 -1 -3 -3v-102h80v-125h-80v-345h-135v345h-70v125h70v136c0 57 39 96 96 96h70c37 0 71 -19 78 -48h2v46h133v-700z" />
    <glyph glyph-name="f_t" unicode="ft" horiz-adv-x="547" 
d="M533 0h-129c-57 0 -96 39 -96 96v249h-94v-345h-135v345h-70v125h70v134c0 57 39 96 96 96h104v-125h-62c-2 0 -3 -1 -3 -3v-102h94v140h135v-140h90v-125h-90v-217c0 -2 1 -3 3 -3h87v-125z" />
    <glyph glyph-name="t_f" unicode="tf" horiz-adv-x="562" 
d="M79 96v249h-70v125h70v140h135v-140h109v134c0 57 39 96 96 96h129v-125h-87c-2 0 -3 -1 -3 -3v-102h90v-125h-90v-345h-135v345h-109v-217c0 -2 1 -3 3 -3h67v-125h-109c-57 0 -96 39 -96 96z" />
    <glyph glyph-name="t_t" unicode="tt" horiz-adv-x="562" 
d="M548 0h-129c-57 0 -96 39 -96 96v249h-109v-217c0 -2 1 -3 3 -3h77v-125h-119c-57 0 -96 39 -96 96v249h-70v125h70v140h135v-140h109v140h135v-140h90v-125h-90v-217c0 -2 1 -3 3 -3h87v-125z" />
    <glyph glyph-name="t_t_f" unicode="ttf" horiz-adv-x="806" 
d="M792 345h-90v-345h-135v345h-109v-217c0 -2 1 -3 3 -3h67v-125h-109c-57 0 -96 39 -96 96v249h-109v-217c0 -2 1 -3 3 -3h77v-125h-119c-57 0 -96 39 -96 96v249h-70v125h70v140h135v-140h109v140h135v-140h109v134c0 57 39 96 96 96h129v-125h-87c-2 0 -3 -1 -3 -3v-102
h90v-125z" />
    <glyph glyph-name=".notdef" 
d="M39 700h400v-700h-400v700zM126 646l113 -235l113 235h-226zM209 349l-116 241v-481zM269 349l116 -240v481zM239 287l-112 -233h224z" />
    <glyph glyph-name="NULL" horiz-adv-x="0" 
 />
    <glyph glyph-name="NULL" horiz-adv-x="0" 
 />
    <glyph glyph-name="CR" unicode="&#xd;" horiz-adv-x="200" 
 />
    <glyph glyph-name="space" unicode=" " horiz-adv-x="200" 
 />
    <glyph glyph-name="uni00A0" unicode="&#xa0;" horiz-adv-x="200" 
 />
    <glyph glyph-name="A" unicode="A" horiz-adv-x="496" 
d="M330 0l-15 80h-134l-15 -80h-156l150 700h176l150 -700h-156zM204 210h88l-41 223l-3 25l-3 -25z" />
    <glyph glyph-name="Agrave" unicode="&#xc0;" horiz-adv-x="496" 
d="M330 0l-15 80h-134l-15 -80h-156l150 700h176l150 -700h-156zM204 210h88l-41 223l-3 25l-3 -25zM98 878h157l74 -125h-107z" />
    <glyph glyph-name="Aacute" unicode="&#xc1;" horiz-adv-x="496" 
d="M330 0l-15 80h-134l-15 -80h-156l150 700h176l150 -700h-156zM204 210h88l-41 223l-3 25l-3 -25zM398 878l-124 -125h-107l74 125h157z" />
    <glyph glyph-name="Acircumflex" unicode="&#xc2;" horiz-adv-x="496" 
d="M330 0l-15 80h-134l-15 -80h-156l150 700h176l150 -700h-156zM204 210h88l-41 223l-3 25l-3 -25zM374 753h-77l-49 59l-49 -59h-77l54 125h144z" />
    <glyph glyph-name="Atilde" unicode="&#xc3;" horiz-adv-x="496" 
d="M330 0l-15 80h-134l-15 -80h-156l150 700h176l150 -700h-156zM204 210h88l-41 223l-3 25l-3 -25zM98 806l60 60c15 15 34 23 56 23c21 0 39 -8 56 -23l32 -31c1 -1 3 -1 4 0l43 43l51 -52l-60 -60c-15 -15 -34 -23 -56 -23c-21 0 -39 8 -56 23l-32 31c-1 1 -3 1 -4 0
l-43 -43z" />
    <glyph glyph-name="Adieresis" unicode="&#xc4;" horiz-adv-x="496" 
d="M330 0l-15 80h-134l-15 -80h-156l150 700h176l150 -700h-156zM204 210h88l-41 223l-3 25l-3 -25zM76 816c0 44 37 81 81 81c45 0 81 -37 81 -81c0 -45 -36 -82 -81 -82c-44 0 -81 37 -81 82zM259 816c0 44 37 81 81 81c45 0 81 -37 81 -81c0 -45 -36 -82 -81 -82
c-44 0 -81 37 -81 82z" />
    <glyph glyph-name="Aring" unicode="&#xc5;" horiz-adv-x="496" 
d="M330 0l-15 80h-134l-15 -80h-156l150 700h176l150 -700h-156zM204 210h88l-41 223l-3 25l-3 -25zM140 836c0 29 11 54 32 75c22 21 48 32 77 32s54 -11 75 -32s32 -46 32 -75c0 -61 -46 -109 -107 -109s-109 48 -109 109zM285 836c0 19 -17 35 -36 35s-35 -16 -35 -35
s16 -36 35 -36s36 17 36 36z" />
    <glyph glyph-name="Amacron" unicode="&#x100;" horiz-adv-x="496" 
d="M330 0l-15 80h-134l-15 -80h-156l150 700h176l150 -700h-156zM204 210h88l-41 223l-3 25l-3 -25zM387 771h-278v86h278v-86z" />
    <glyph glyph-name="Abreve" unicode="&#x102;" horiz-adv-x="496" 
d="M330 0l-15 80h-134l-15 -80h-156l150 700h176l150 -700h-156zM204 210h88l-41 223l-3 25l-3 -25zM248 750c-64 0 -121 26 -165 74l63 57c29 -30 63 -45 102 -45s73 15 102 45l63 -57c-44 -48 -101 -74 -165 -74z" />
    <glyph glyph-name="Aogonek" unicode="&#x104;" horiz-adv-x="496" 
d="M458 -64h28v-86h-34c-47 0 -81 34 -81 81c0 14 3 27 10 39l15 30h-66l-15 80h-134l-15 -80h-156l150 700h176l150 -700l-29 -58l-1 -4c0 -1 1 -2 2 -2zM204 210h88l-41 223l-3 25l-3 -25z" />
    <glyph glyph-name="A.2" 
d="M289 0v260h-100v-260h-150v596c0 63 43 106 106 106h188c63 0 106 -43 106 -106v-596h-150zM289 400v157c0 2 -1 3 -3 3h-94c-2 0 -3 -1 -3 -3v-157h100z" />
    <glyph glyph-name="Agrave.2" 
d="M289 0v260h-100v-260h-150v596c0 63 43 106 106 106h188c63 0 106 -43 106 -106v-596h-150zM289 400v157c0 2 -1 3 -3 3h-94c-2 0 -3 -1 -3 -3v-157h100zM89 878h157l74 -125h-107z" />
    <glyph glyph-name="Aacute.2" 
d="M289 0v260h-100v-260h-150v596c0 63 43 106 106 106h188c63 0 106 -43 106 -106v-596h-150zM289 400v157c0 2 -1 3 -3 3h-94c-2 0 -3 -1 -3 -3v-157h100zM389 878l-124 -125h-107l74 125h157z" />
    <glyph glyph-name="Acircumflex.2" 
d="M289 0v260h-100v-260h-150v596c0 63 43 106 106 106h188c63 0 106 -43 106 -106v-596h-150zM289 400v157c0 2 -1 3 -3 3h-94c-2 0 -3 -1 -3 -3v-157h100zM365 753h-77l-49 59l-49 -59h-77l54 125h144z" />
    <glyph glyph-name="Atilde.2" 
d="M289 0v260h-100v-260h-150v596c0 63 43 106 106 106h188c63 0 106 -43 106 -106v-596h-150zM289 400v157c0 2 -1 3 -3 3h-94c-2 0 -3 -1 -3 -3v-157h100zM89 806l60 60c15 15 34 23 56 23c21 0 39 -8 56 -23l32 -31c1 -1 3 -1 4 0l43 43l51 -52l-60 -60
c-15 -15 -34 -23 -56 -23c-21 0 -39 8 -56 23l-32 31c-1 1 -3 1 -4 0l-43 -43z" />
    <glyph glyph-name="Adieresis.2" 
d="M289 0v260h-100v-260h-150v596c0 63 43 106 106 106h188c63 0 106 -43 106 -106v-596h-150zM289 400v157c0 2 -1 3 -3 3h-94c-2 0 -3 -1 -3 -3v-157h100zM67 816c0 44 37 81 81 81c45 0 81 -37 81 -81c0 -45 -36 -82 -81 -82c-44 0 -81 37 -81 82zM250 816
c0 44 37 81 81 81c45 0 81 -37 81 -81c0 -45 -36 -82 -81 -82c-44 0 -81 37 -81 82z" />
    <glyph glyph-name="Aring.2" 
d="M289 0v260h-100v-260h-150v596c0 63 43 106 106 106h188c63 0 106 -43 106 -106v-596h-150zM289 400v157c0 2 -1 3 -3 3h-94c-2 0 -3 -1 -3 -3v-157h100zM131 836c0 29 11 54 32 75c22 21 48 32 77 32s54 -11 75 -32s32 -46 32 -75c0 -61 -46 -109 -107 -109
s-109 48 -109 109zM276 836c0 19 -17 35 -36 35s-35 -16 -35 -35s16 -36 35 -36s36 17 36 36z" />
    <glyph glyph-name="Amacron.2" 
d="M289 0v260h-100v-260h-150v596c0 63 43 106 106 106h188c63 0 106 -43 106 -106v-596h-150zM289 400v157c0 2 -1 3 -3 3h-94c-2 0 -3 -1 -3 -3v-157h100zM378 771h-278v86h278v-86z" />
    <glyph glyph-name="Abreve.2" 
d="M289 0v260h-100v-260h-150v596c0 63 43 106 106 106h188c63 0 106 -43 106 -106v-596h-150zM289 400v157c0 2 -1 3 -3 3h-94c-2 0 -3 -1 -3 -3v-157h100zM239 750c-64 0 -121 26 -165 74l63 57c29 -30 63 -45 102 -45s73 15 102 45l63 -57c-44 -48 -101 -74 -165 -74z
" />
    <glyph glyph-name="Aogonek.2" 
d="M439 0l-29 -58l-1 -4c0 -1 1 -2 2 -2h28v-86h-34c-47 0 -81 34 -81 81c0 14 3 27 10 39l15 30h-60v260h-100v-260h-150v596c0 63 43 106 106 106h188c63 0 106 -43 106 -106v-596zM289 400v157c0 2 -1 3 -3 3h-94c-2 0 -3 -1 -3 -3v-157h100z" />
    <glyph glyph-name="AE" unicode="&#xc6;" horiz-adv-x="680" 
d="M668 560h-200v-137h150v-130h-150v-153h200v-140h-350v80h-132l-32 -80h-167l307 700h374v-140zM239 210h79v199l-2 -10z" />
    <glyph glyph-name="AEacute" unicode="&#x1fc;" horiz-adv-x="680" 
d="M668 560h-200v-137h150v-130h-150v-153h200v-140h-350v80h-132l-32 -80h-167l307 700h374v-140zM239 210h79v199l-2 -10zM544 878l-124 -125h-107l74 125h157z" />
    <glyph glyph-name="AE.2" horiz-adv-x="652" 
d="M639 0h-244c-63 0 -106 43 -106 106v154h-100v-260h-150v596c0 63 43 106 106 106h125c43 0 73 -21 92 -54h2c19 35 50 52 93 52h182v-140h-197c-2 0 -3 -1 -3 -3v-135h150v-130h-150v-149c0 -2 1 -3 3 -3h197v-140zM289 400v157c0 2 -1 3 -3 3h-94c-2 0 -3 -1 -3 -3
v-157h100z" />
    <glyph glyph-name="AEacute.2" horiz-adv-x="652" 
d="M639 0h-244c-63 0 -106 43 -106 106v154h-100v-260h-150v596c0 63 43 106 106 106h125c43 0 73 -21 92 -54h2c19 35 50 52 93 52h182v-140h-197c-2 0 -3 -1 -3 -3v-135h150v-130h-150v-149c0 -2 1 -3 3 -3h197v-140zM289 400v157c0 2 -1 3 -3 3h-94c-2 0 -3 -1 -3 -3
v-157h100zM513 878l-124 -125h-107l74 125h157z" />
    <glyph glyph-name="AE.3" horiz-adv-x="680" 
d="M468 557v-135h150v-130h-150v-149c0 -2 1 -3 3 -3h197v-140h-244c-56 0 -93 31 -104 80h-134l-32 -80h-167l307 700h97v-50h2c11 33 40 50 89 50h186v-140h-197c-2 0 -3 -1 -3 -3zM316 399l-77 -189h79v199z" />
    <glyph glyph-name="AEacute.3" horiz-adv-x="680" 
d="M468 557v-135h150v-130h-150v-149c0 -2 1 -3 3 -3h197v-140h-244c-56 0 -93 31 -104 80h-134l-32 -80h-167l307 700h97v-50h2c11 33 40 50 89 50h186v-140h-197c-2 0 -3 -1 -3 -3zM316 399l-77 -189h79v199zM543 878l-124 -125h-107l74 125h157z" />
    <glyph glyph-name="AE.4" horiz-adv-x="652" 
d="M639 0h-350v260h-100v-260h-150v596c0 63 43 106 106 106h126c43 0 74 -21 93 -54h2v52h273v-140h-200v-138h150v-130h-150v-152h200v-140zM289 400v157c0 2 -1 3 -3 3h-94c-2 0 -3 -1 -3 -3v-157h100z" />
    <glyph glyph-name="AEacute.4" horiz-adv-x="652" 
d="M639 0h-350v260h-100v-260h-150v596c0 63 43 106 106 106h126c43 0 74 -21 93 -54h2v52h273v-140h-200v-138h150v-130h-150v-152h200v-140zM289 400v157c0 2 -1 3 -3 3h-94c-2 0 -3 -1 -3 -3v-157h100zM514 878l-124 -125h-107l74 125h157z" />
    <glyph glyph-name="B" unicode="B" horiz-adv-x="479" 
d="M334 0h-294v700h294c63 0 106 -43 106 -106v-154c0 -41 -19 -73 -50 -81v-2c31 -8 50 -41 50 -82v-169c0 -63 -43 -106 -106 -106zM290 425v132c0 2 -1 3 -3 3h-97v-138h97c2 0 3 1 3 3zM290 143v146c0 2 -1 3 -3 3h-97v-152h97c2 0 3 1 3 3z" />
    <glyph glyph-name="C" unicode="C" 
d="M333 -2h-188c-63 0 -106 43 -106 106v492c0 63 43 106 106 106h188c63 0 106 -43 106 -106v-121h-150v82c0 2 -1 3 -3 3h-94c-2 0 -3 -1 -3 -3v-414c0 -2 1 -3 3 -3h94c2 0 3 1 3 3v82h150v-121c0 -63 -43 -106 -106 -106z" />
    <glyph glyph-name="Ccedilla" unicode="&#xc7;" 
d="M439 475h-150v82c0 2 -1 3 -3 3h-94c-2 0 -3 -1 -3 -3v-414c0 -2 1 -3 3 -3h94c2 0 3 1 3 3v82h150v-121c0 -63 -43 -106 -106 -106h-69v-23h28c19 0 33 -15 33 -34v-28c0 -35 -28 -63 -61 -63h-111v86h86v28h-61v34h-33c-63 0 -106 43 -106 106v492c0 63 43 106 106 106
h188c63 0 106 -43 106 -106v-121z" />
    <glyph glyph-name="Cacute" unicode="&#x106;" 
d="M333 -2h-188c-63 0 -106 43 -106 106v492c0 63 43 106 106 106h188c63 0 106 -43 106 -106v-121h-150v82c0 2 -1 3 -3 3h-94c-2 0 -3 -1 -3 -3v-414c0 -2 1 -3 3 -3h94c2 0 3 1 3 3v82h150v-121c0 -63 -43 -106 -106 -106zM389 878l-124 -125h-107l74 125h157z" />
    <glyph glyph-name="Ccircumflex" unicode="&#x108;" 
d="M333 -2h-188c-63 0 -106 43 -106 106v492c0 63 43 106 106 106h188c63 0 106 -43 106 -106v-121h-150v82c0 2 -1 3 -3 3h-94c-2 0 -3 -1 -3 -3v-414c0 -2 1 -3 3 -3h94c2 0 3 1 3 3v82h150v-121c0 -63 -43 -106 -106 -106zM365 753h-77l-49 59l-49 -59h-77l54 125h144z
" />
    <glyph glyph-name="Cdotaccent" unicode="&#x10a;" 
d="M333 -2h-188c-63 0 -106 43 -106 106v492c0 63 43 106 106 106h188c63 0 106 -43 106 -106v-121h-150v82c0 2 -1 3 -3 3h-94c-2 0 -3 -1 -3 -3v-414c0 -2 1 -3 3 -3h94c2 0 3 1 3 3v82h150v-121c0 -63 -43 -106 -106 -106zM158 816c0 44 37 81 81 81c45 0 81 -37 81 -81
c0 -45 -36 -82 -81 -82c-44 0 -81 37 -81 82z" />
    <glyph glyph-name="Ccaron" unicode="&#x10c;" 
d="M333 -2h-188c-63 0 -106 43 -106 106v492c0 63 43 106 106 106h188c63 0 106 -43 106 -106v-121h-150v82c0 2 -1 3 -3 3h-94c-2 0 -3 -1 -3 -3v-414c0 -2 1 -3 3 -3h94c2 0 3 1 3 3v82h150v-121c0 -63 -43 -106 -106 -106zM288 875h77l-54 -125h-144l-54 125h77l49 -59z
" />
    <glyph glyph-name="C.2" horiz-adv-x="419" 
d="M389 0h-244c-63 0 -106 43 -106 106v488c0 63 43 106 106 106h244v-140h-197c-2 0 -3 -1 -3 -3v-414c0 -2 1 -3 3 -3h197v-140z" />
    <glyph glyph-name="Ccedilla.2" horiz-adv-x="419" 
d="M189 557v-414c0 -2 1 -3 3 -3h197v-140h-140v-25h28c19 0 33 -15 33 -34v-28c0 -35 -28 -63 -61 -63h-111v86h86v28h-61v36h-18c-63 0 -106 43 -106 106v488c0 63 43 106 106 106h244v-140h-197c-2 0 -3 -1 -3 -3z" />
    <glyph glyph-name="Cacute.2" horiz-adv-x="419" 
d="M389 0h-244c-63 0 -106 43 -106 106v488c0 63 43 106 106 106h244v-140h-197c-2 0 -3 -1 -3 -3v-414c0 -2 1 -3 3 -3h197v-140zM374 878l-124 -125h-107l74 125h157z" />
    <glyph glyph-name="Ccircumflex.2" horiz-adv-x="419" 
d="M389 0h-244c-63 0 -106 43 -106 106v488c0 63 43 106 106 106h244v-140h-197c-2 0 -3 -1 -3 -3v-414c0 -2 1 -3 3 -3h197v-140zM350 753h-77l-49 59l-49 -59h-77l54 125h144z" />
    <glyph glyph-name="Cdotaccent.2" horiz-adv-x="419" 
d="M389 0h-244c-63 0 -106 43 -106 106v488c0 63 43 106 106 106h244v-140h-197c-2 0 -3 -1 -3 -3v-414c0 -2 1 -3 3 -3h197v-140zM143 816c0 44 37 81 81 81c45 0 81 -37 81 -81c0 -45 -36 -82 -81 -82c-44 0 -81 37 -81 82z" />
    <glyph glyph-name="Ccaron.2" horiz-adv-x="419" 
d="M389 0h-244c-63 0 -106 43 -106 106v488c0 63 43 106 106 106h244v-140h-197c-2 0 -3 -1 -3 -3v-414c0 -2 1 -3 3 -3h197v-140zM273 875h77l-54 -125h-144l-54 125h77l49 -59z" />
    <glyph glyph-name="D" unicode="D" horiz-adv-x="479" 
d="M333 0h-294v700h294c63 0 106 -43 106 -106v-488c0 -63 -43 -106 -106 -106zM289 143v414c0 2 -1 3 -3 3h-97v-420h97c2 0 3 1 3 3z" />
    <glyph glyph-name="Dcaron" unicode="&#x10e;" horiz-adv-x="479" 
d="M333 0h-294v700h294c63 0 106 -43 106 -106v-488c0 -63 -43 -106 -106 -106zM289 143v414c0 2 -1 3 -3 3h-97v-420h97c2 0 3 1 3 3zM289 875h77l-54 -125h-144l-54 125h77l49 -59z" />
    <glyph glyph-name="Dcroat" unicode="&#x110;" horiz-adv-x="479" 
d="M439 594v-488c0 -63 -43 -106 -106 -106h-294v314h-64v86h64v300h294c63 0 106 -43 106 -106zM289 143v414c0 2 -1 3 -3 3h-97v-160h64v-86h-64v-174h97c2 0 3 1 3 3z" />
    <glyph glyph-name="E" unicode="E" horiz-adv-x="402" 
d="M389 0h-350v700h350v-140h-200v-138h150v-130h-150v-152h200v-140z" />
    <glyph glyph-name="Egrave" unicode="&#xc8;" horiz-adv-x="402" 
d="M389 0h-350v700h350v-140h-200v-138h150v-130h-150v-152h200v-140zM64 878h157l74 -125h-107z" />
    <glyph glyph-name="Eacute" unicode="&#xc9;" horiz-adv-x="402" 
d="M389 0h-350v700h350v-140h-200v-138h150v-130h-150v-152h200v-140zM364 878l-124 -125h-107l74 125h157z" />
    <glyph glyph-name="Ecircumflex" unicode="&#xca;" horiz-adv-x="402" 
d="M389 0h-350v700h350v-140h-200v-138h150v-130h-150v-152h200v-140zM340 753h-77l-49 59l-49 -59h-77l54 125h144z" />
    <glyph glyph-name="Edieresis" unicode="&#xcb;" horiz-adv-x="402" 
d="M389 0h-350v700h350v-140h-200v-138h150v-130h-150v-152h200v-140zM42 816c0 44 37 81 81 81c45 0 81 -37 81 -81c0 -45 -36 -82 -81 -82c-44 0 -81 37 -81 82zM225 816c0 44 37 81 81 81c45 0 81 -37 81 -81c0 -45 -36 -82 -81 -82c-44 0 -81 37 -81 82z" />
    <glyph glyph-name="Emacron" unicode="&#x112;" horiz-adv-x="402" 
d="M389 0h-350v700h350v-140h-200v-138h150v-130h-150v-152h200v-140zM353 771h-278v86h278v-86z" />
    <glyph glyph-name="Ebreve" unicode="&#x114;" horiz-adv-x="402" 
d="M389 0h-350v700h350v-140h-200v-138h150v-130h-150v-152h200v-140zM214 750c-64 0 -121 26 -165 74l63 57c29 -30 63 -45 102 -45s73 15 102 45l63 -57c-44 -48 -101 -74 -165 -74z" />
    <glyph glyph-name="Edotaccent" unicode="&#x116;" horiz-adv-x="402" 
d="M389 0h-350v700h350v-140h-200v-138h150v-130h-150v-152h200v-140zM133 816c0 44 37 81 81 81c45 0 81 -37 81 -81c0 -45 -36 -82 -81 -82c-44 0 -81 37 -81 82z" />
    <glyph glyph-name="Eogonek" unicode="&#x118;" horiz-adv-x="402" 
d="M389 560h-200v-138h150v-130h-150v-152h200v-140l-29 -58l-1 -4c0 -1 1 -2 2 -2h28v-86h-34c-47 0 -81 34 -81 81c0 14 3 27 10 39l15 30h-260v700h350v-140z" />
    <glyph glyph-name="Ecaron" unicode="&#x11a;" horiz-adv-x="402" 
d="M389 0h-350v700h350v-140h-200v-138h150v-130h-150v-152h200v-140zM263 875h77l-54 -125h-144l-54 125h77l49 -59z" />
    <glyph glyph-name="E.2" horiz-adv-x="402" 
d="M39 106v488c0 63 43 106 106 106h244v-140h-197c-2 0 -3 -1 -3 -3v-135h150v-130h-150v-149c0 -2 1 -3 3 -3h197v-140h-244c-63 0 -106 43 -106 106z" />
    <glyph glyph-name="Egrave.2" horiz-adv-x="402" 
d="M39 106v488c0 63 43 106 106 106h244v-140h-197c-2 0 -3 -1 -3 -3v-135h150v-130h-150v-149c0 -2 1 -3 3 -3h197v-140h-244c-63 0 -106 43 -106 106zM64 878h157l74 -125h-107z" />
    <glyph glyph-name="Eacute.2" horiz-adv-x="402" 
d="M39 106v488c0 63 43 106 106 106h244v-140h-197c-2 0 -3 -1 -3 -3v-135h150v-130h-150v-149c0 -2 1 -3 3 -3h197v-140h-244c-63 0 -106 43 -106 106zM364 878l-124 -125h-107l74 125h157z" />
    <glyph glyph-name="Ecircumflex.2" horiz-adv-x="402" 
d="M39 106v488c0 63 43 106 106 106h244v-140h-197c-2 0 -3 -1 -3 -3v-135h150v-130h-150v-149c0 -2 1 -3 3 -3h197v-140h-244c-63 0 -106 43 -106 106zM340 753h-77l-49 59l-49 -59h-77l54 125h144z" />
    <glyph glyph-name="Edieresis.2" horiz-adv-x="402" 
d="M39 106v488c0 63 43 106 106 106h244v-140h-197c-2 0 -3 -1 -3 -3v-135h150v-130h-150v-149c0 -2 1 -3 3 -3h197v-140h-244c-63 0 -106 43 -106 106zM42 816c0 44 37 81 81 81c45 0 81 -37 81 -81c0 -45 -36 -82 -81 -82c-44 0 -81 37 -81 82zM225 816c0 44 37 81 81 81
c45 0 81 -37 81 -81c0 -45 -36 -82 -81 -82c-44 0 -81 37 -81 82z" />
    <glyph glyph-name="Emacron.2" horiz-adv-x="402" 
d="M39 106v488c0 63 43 106 106 106h244v-140h-197c-2 0 -3 -1 -3 -3v-135h150v-130h-150v-149c0 -2 1 -3 3 -3h197v-140h-244c-63 0 -106 43 -106 106zM353 771h-278v86h278v-86z" />
    <glyph glyph-name="Ebreve.2" horiz-adv-x="402" 
d="M39 106v488c0 63 43 106 106 106h244v-140h-197c-2 0 -3 -1 -3 -3v-135h150v-130h-150v-149c0 -2 1 -3 3 -3h197v-140h-244c-63 0 -106 43 -106 106zM214 750c-64 0 -121 26 -165 74l63 57c29 -30 63 -45 102 -45s73 15 102 45l63 -57c-44 -48 -101 -74 -165 -74z" />
    <glyph glyph-name="Edotaccent.2" horiz-adv-x="402" 
d="M39 106v488c0 63 43 106 106 106h244v-140h-197c-2 0 -3 -1 -3 -3v-135h150v-130h-150v-149c0 -2 1 -3 3 -3h197v-140h-244c-63 0 -106 43 -106 106zM133 816c0 44 37 81 81 81c45 0 81 -37 81 -81c0 -45 -36 -82 -81 -82c-44 0 -81 37 -81 82z" />
    <glyph glyph-name="Eogonek.2" horiz-adv-x="402" 
d="M189 557v-135h150v-130h-150v-149c0 -2 1 -3 3 -3h197v-140l-29 -58l-1 -4c0 -1 1 -2 2 -2h28v-86h-34c-47 0 -81 34 -81 81c0 14 3 27 10 39l15 30h-154c-63 0 -106 43 -106 106v488c0 63 43 106 106 106h244v-140h-197c-2 0 -3 -1 -3 -3z" />
    <glyph glyph-name="Ecaron.2" horiz-adv-x="402" 
d="M39 106v488c0 63 43 106 106 106h244v-140h-197c-2 0 -3 -1 -3 -3v-135h150v-130h-150v-149c0 -2 1 -3 3 -3h197v-140h-244c-63 0 -106 43 -106 106zM263 875h77l-54 -125h-144l-54 125h77l49 -59z" />
    <glyph glyph-name="F" unicode="F" horiz-adv-x="402" 
d="M389 560h-200v-138h150v-130h-150v-292h-150v700h350v-140z" />
    <glyph glyph-name="F.2" horiz-adv-x="402" 
d="M189 557v-135h150v-130h-150v-292h-150v594c0 63 43 106 106 106h244v-140h-197c-2 0 -3 -1 -3 -3z" />
    <glyph glyph-name="G" unicode="G" 
d="M333 -2h-188c-63 0 -106 43 -106 106v492c0 63 43 106 106 106h188c63 0 106 -43 106 -106v-121h-150v82c0 2 -1 3 -3 3h-94c-2 0 -3 -1 -3 -3v-414c0 -2 1 -3 3 -3h94c2 0 3 1 3 3v117h-63v140h213v-296c0 -63 -43 -106 -106 -106z" />
    <glyph glyph-name="Gcircumflex" unicode="&#x11c;" 
d="M333 -2h-188c-63 0 -106 43 -106 106v492c0 63 43 106 106 106h188c63 0 106 -43 106 -106v-121h-150v82c0 2 -1 3 -3 3h-94c-2 0 -3 -1 -3 -3v-414c0 -2 1 -3 3 -3h94c2 0 3 1 3 3v117h-63v140h213v-296c0 -63 -43 -106 -106 -106zM365 753h-77l-49 59l-49 -59h-77
l54 125h144z" />
    <glyph glyph-name="Gbreve" unicode="&#x11e;" 
d="M333 -2h-188c-63 0 -106 43 -106 106v492c0 63 43 106 106 106h188c63 0 106 -43 106 -106v-121h-150v82c0 2 -1 3 -3 3h-94c-2 0 -3 -1 -3 -3v-414c0 -2 1 -3 3 -3h94c2 0 3 1 3 3v117h-63v140h213v-296c0 -63 -43 -106 -106 -106zM239 750c-64 0 -121 26 -165 74l63 57
c29 -30 63 -45 102 -45s73 15 102 45l63 -57c-44 -48 -101 -74 -165 -74z" />
    <glyph glyph-name="Gdotaccent" unicode="&#x120;" 
d="M333 -2h-188c-63 0 -106 43 -106 106v492c0 63 43 106 106 106h188c63 0 106 -43 106 -106v-121h-150v82c0 2 -1 3 -3 3h-94c-2 0 -3 -1 -3 -3v-414c0 -2 1 -3 3 -3h94c2 0 3 1 3 3v117h-63v140h213v-296c0 -63 -43 -106 -106 -106zM158 816c0 44 37 81 81 81
c45 0 81 -37 81 -81c0 -45 -36 -82 -81 -82c-44 0 -81 37 -81 82z" />
    <glyph glyph-name="uni0122" unicode="&#x122;" 
d="M333 -2h-188c-63 0 -106 43 -106 106v492c0 63 43 106 106 106h188c63 0 106 -43 106 -106v-121h-150v82c0 2 -1 3 -3 3h-94c-2 0 -3 -1 -3 -3v-414c0 -2 1 -3 3 -3h94c2 0 3 1 3 3v117h-63v140h213v-296c0 -63 -43 -106 -106 -106zM301 -147l-38 -73h-57l14 41
c-32 9 -54 38 -54 71c0 40 32 73 73 73s73 -33 73 -73c0 -11 -4 -24 -11 -39z" />
    <glyph glyph-name="G.2" 
d="M409 560h-217c-2 0 -3 -1 -3 -3v-414c0 -2 1 -3 3 -3h94c2 0 3 1 3 3v117h-63v140h213v-296c0 -63 -43 -106 -106 -106h-188c-63 0 -106 43 -106 106v490c0 63 43 106 106 106h264v-140z" />
    <glyph glyph-name="Gcircumflex.2" 
d="M409 560h-217c-2 0 -3 -1 -3 -3v-414c0 -2 1 -3 3 -3h94c2 0 3 1 3 3v117h-63v140h213v-296c0 -63 -43 -106 -106 -106h-188c-63 0 -106 43 -106 106v490c0 63 43 106 106 106h264v-140zM365 753h-77l-49 59l-49 -59h-77l54 125h144z" />
    <glyph glyph-name="Gbreve.2" 
d="M409 560h-217c-2 0 -3 -1 -3 -3v-414c0 -2 1 -3 3 -3h94c2 0 3 1 3 3v117h-63v140h213v-296c0 -63 -43 -106 -106 -106h-188c-63 0 -106 43 -106 106v490c0 63 43 106 106 106h264v-140zM239 750c-64 0 -121 26 -165 74l63 57c29 -30 63 -45 102 -45s73 15 102 45l63 -57
c-44 -48 -101 -74 -165 -74z" />
    <glyph glyph-name="Gdotaccent.2" 
d="M409 560h-217c-2 0 -3 -1 -3 -3v-414c0 -2 1 -3 3 -3h94c2 0 3 1 3 3v117h-63v140h213v-296c0 -63 -43 -106 -106 -106h-188c-63 0 -106 43 -106 106v490c0 63 43 106 106 106h264v-140zM158 816c0 44 37 81 81 81c45 0 81 -37 81 -81c0 -45 -36 -82 -81 -82
c-44 0 -81 37 -81 82z" />
    <glyph glyph-name="uni0122.2" 
d="M409 560h-217c-2 0 -3 -1 -3 -3v-414c0 -2 1 -3 3 -3h94c2 0 3 1 3 3v117h-63v140h213v-296c0 -63 -43 -106 -106 -106h-188c-63 0 -106 43 -106 106v490c0 63 43 106 106 106h264v-140zM301 -147l-38 -73h-57l14 41c-32 9 -54 38 -54 71c0 40 32 73 73 73s73 -33 73 -73
c0 -11 -4 -24 -11 -39z" />
    <glyph glyph-name="G.3" 
d="M289 400h150v-296c0 -63 -43 -106 -106 -106h-188c-63 0 -106 43 -106 106v490c0 63 43 106 106 106h264v-140h-217c-2 0 -3 -1 -3 -3v-414c0 -2 1 -3 3 -3h94c2 0 3 1 3 3v257z" />
    <glyph glyph-name="Gcircumflex.3" 
d="M289 400h150v-296c0 -63 -43 -106 -106 -106h-188c-63 0 -106 43 -106 106v490c0 63 43 106 106 106h264v-140h-217c-2 0 -3 -1 -3 -3v-414c0 -2 1 -3 3 -3h94c2 0 3 1 3 3v257zM365 753h-77l-49 59l-49 -59h-77l54 125h144z" />
    <glyph glyph-name="Gbreve.3" 
d="M289 400h150v-296c0 -63 -43 -106 -106 -106h-188c-63 0 -106 43 -106 106v490c0 63 43 106 106 106h264v-140h-217c-2 0 -3 -1 -3 -3v-414c0 -2 1 -3 3 -3h94c2 0 3 1 3 3v257zM239 750c-64 0 -121 26 -165 74l63 57c29 -30 63 -45 102 -45s73 15 102 45l63 -57
c-44 -48 -101 -74 -165 -74z" />
    <glyph glyph-name="Gdotaccent.3" 
d="M289 400h150v-296c0 -63 -43 -106 -106 -106h-188c-63 0 -106 43 -106 106v490c0 63 43 106 106 106h264v-140h-217c-2 0 -3 -1 -3 -3v-414c0 -2 1 -3 3 -3h94c2 0 3 1 3 3v257zM158 816c0 44 37 81 81 81c45 0 81 -37 81 -81c0 -45 -36 -82 -81 -82c-44 0 -81 37 -81 82
z" />
    <glyph glyph-name="uni0122.3" 
d="M289 400h150v-296c0 -63 -43 -106 -106 -106h-188c-63 0 -106 43 -106 106v490c0 63 43 106 106 106h264v-140h-217c-2 0 -3 -1 -3 -3v-414c0 -2 1 -3 3 -3h94c2 0 3 1 3 3v257zM301 -147l-38 -73h-57l14 41c-32 9 -54 38 -54 71c0 40 32 73 73 73s73 -33 73 -73
c0 -11 -4 -24 -11 -39z" />
    <glyph glyph-name="H" unicode="H" 
d="M439 0h-150v287h-100v-287h-150v700h150v-273h100v273h150v-700z" />
    <glyph glyph-name="Hcircumflex" unicode="&#x124;" 
d="M439 0h-150v287h-100v-287h-150v700h150v-273h100v273h150v-700zM365 753h-77l-49 59l-49 -59h-77l54 125h144z" />
    <glyph glyph-name="Hbar" unicode="&#x126;" 
d="M479 614v-86h-40v-528h-150v287h-100v-287h-150v528h-41v86h41v86h150v-86h100v86h150v-86h40zM289 427v101h-100v-101h100z" />
    <glyph glyph-name="I" unicode="I" horiz-adv-x="227" 
d="M189 0h-150v700h150v-700z" />
    <glyph glyph-name="Igrave" unicode="&#xcc;" horiz-adv-x="227" 
d="M189 0h-150v700h150v-700zM-36 878h157l74 -125h-107z" />
    <glyph glyph-name="Iacute" unicode="&#xcd;" horiz-adv-x="227" 
d="M189 0h-150v700h150v-700zM264 878l-124 -125h-107l74 125h157z" />
    <glyph glyph-name="Icircumflex" unicode="&#xce;" horiz-adv-x="227" 
d="M189 0h-150v700h150v-700zM240 753h-77l-49 59l-49 -59h-77l54 125h144z" />
    <glyph glyph-name="Idieresis" unicode="&#xcf;" horiz-adv-x="227" 
d="M189 0h-150v700h150v-700zM-58 816c0 44 37 81 81 81c45 0 81 -37 81 -81c0 -45 -36 -82 -81 -82c-44 0 -81 37 -81 82zM125 816c0 44 37 81 81 81c45 0 81 -37 81 -81c0 -45 -36 -82 -81 -82c-44 0 -81 37 -81 82z" />
    <glyph glyph-name="Itilde" unicode="&#x128;" horiz-adv-x="227" 
d="M189 0h-150v700h150v-700zM-36 806l60 60c15 15 34 23 56 23c21 0 39 -8 56 -23l32 -31c1 -1 3 -1 4 0l43 43l51 -52l-60 -60c-15 -15 -34 -23 -56 -23c-21 0 -39 8 -56 23l-32 31c-1 1 -3 1 -4 0l-43 -43z" />
    <glyph glyph-name="Imacron" unicode="&#x12a;" horiz-adv-x="227" 
d="M189 0h-150v700h150v-700zM253 771h-278v86h278v-86z" />
    <glyph glyph-name="Ibreve" unicode="&#x12c;" horiz-adv-x="227" 
d="M189 0h-150v700h150v-700zM114 750c-64 0 -121 26 -165 74l63 57c29 -30 63 -45 102 -45s73 15 102 45l63 -57c-44 -48 -101 -74 -165 -74z" />
    <glyph glyph-name="Iogonek" unicode="&#x12e;" horiz-adv-x="227" 
d="M189 0l-29 -58l-1 -4c0 -1 1 -2 2 -2h28v-86h-34c-47 0 -81 34 -81 81c0 14 3 27 10 39l15 30h-60v700h150v-700z" />
    <glyph glyph-name="Idot" unicode="&#x130;" horiz-adv-x="227" 
d="M189 0h-150v700h150v-700zM33 816c0 44 37 81 81 81c45 0 81 -37 81 -81c0 -45 -36 -82 -81 -82c-44 0 -81 37 -81 82z" />
    <glyph glyph-name="IJ" unicode="&#x132;" horiz-adv-x="660" 
d="M189 0h-150v700h150v-700zM515 -2h-163c-63 0 -106 43 -106 106v121h150v-82c0 -2 1 -3 3 -3h69c2 0 3 1 3 3v557h150v-596c0 -63 -43 -106 -106 -106z" />
    <glyph glyph-name="IJ.2" horiz-adv-x="579" 
d="M189 0h-150v700h150v-700zM240 140h147c2 0 3 1 3 3v557h150v-594c0 -63 -43 -106 -106 -106h-194v140z" />
    <glyph glyph-name="Iacute_J.loclNLD" horiz-adv-x="660" 
d="M189 0h-150v700h150v-700zM264 878l-124 -125h-107l74 125h157zM515 -2h-163c-63 0 -106 43 -106 106v121h150v-82c0 -2 1 -3 3 -3h69c2 0 3 1 3 3v557h150v-596c0 -63 -43 -106 -106 -106zM697 879l-124 -125h-107l74 125h157z" />
    <glyph glyph-name="Iacute_J.loclNLD.2" horiz-adv-x="579" 
d="M189 0h-150v700h150v-700zM264 878l-124 -125h-107l74 125h157zM240 140h147c2 0 3 1 3 3v557h150v-594c0 -63 -43 -106 -106 -106h-194v140zM616 878l-124 -125h-107l74 125h157z" />
    <glyph glyph-name="J" unicode="J" horiz-adv-x="433" 
d="M288 -2h-163c-63 0 -106 43 -106 106v121h150v-82c0 -2 1 -3 3 -3h69c2 0 3 1 3 3v557h150v-596c0 -63 -43 -106 -106 -106z" />
    <glyph glyph-name="Jcircumflex" unicode="&#x134;" horiz-adv-x="433" 
d="M288 -2h-163c-63 0 -106 43 -106 106v121h150v-82c0 -2 1 -3 3 -3h69c2 0 3 1 3 3v557h150v-596c0 -63 -43 -106 -106 -106zM446 754h-77l-49 59l-49 -59h-77l54 125h144z" />
    <glyph glyph-name="J.2" horiz-adv-x="352" 
d="M13 140h147c2 0 3 1 3 3v557h150v-594c0 -63 -43 -106 -106 -106h-194v140z" />
    <glyph glyph-name="Jcircumflex.2" horiz-adv-x="352" 
d="M13 140h147c2 0 3 1 3 3v557h150v-594c0 -63 -43 -106 -106 -106h-194v140zM365 753h-77l-49 59l-49 -59h-77l54 125h144z" />
    <glyph glyph-name="K" unicode="K" 
d="M489 0h-166l-93 235l-41 -84v-151h-150v700h150v-288l132 288h156l-150 -312z" />
    <glyph glyph-name="uni0136" unicode="&#x136;" 
d="M489 0h-166l-93 235l-41 -84v-151h-150v700h150v-288l132 288h156l-150 -312zM326 -147l-38 -73h-57l14 41c-32 9 -54 38 -54 71c0 40 32 73 73 73s73 -33 73 -73c0 -11 -4 -24 -11 -39z" />
    <glyph glyph-name="K.2" 
d="M289 0v257c0 2 -1 3 -3 3h-97v-260h-150v700h150v-300h36l77 300h156l-89 -300c41 -9 70 -53 70 -106v-294h-150z" />
    <glyph glyph-name="uni0136.2" 
d="M289 0v257c0 2 -1 3 -3 3h-97v-260h-150v700h150v-300h36l77 300h156l-89 -300c41 -9 70 -53 70 -106v-294h-150zM310 -147l-38 -73h-57l14 41c-32 9 -54 38 -54 71c0 40 32 73 73 73s73 -33 73 -73c0 -11 -4 -24 -11 -39z" />
    <glyph glyph-name="L" unicode="L" horiz-adv-x="402" 
d="M389 0h-350v700h150v-560h200v-140z" />
    <glyph glyph-name="Lacute" unicode="&#x139;" horiz-adv-x="402" 
d="M389 0h-350v700h150v-560h200v-140zM263 878l-124 -125h-107l74 125h157z" />
    <glyph glyph-name="uni013B" unicode="&#x13b;" horiz-adv-x="402" 
d="M389 0h-350v700h150v-560h200v-140zM276 -147l-38 -73h-57l14 41c-32 9 -54 38 -54 71c0 40 32 73 73 73s73 -33 73 -73c0 -11 -4 -24 -11 -39z" />
    <glyph glyph-name="Lcaron" unicode="&#x13d;" horiz-adv-x="402" 
d="M389 0h-350v700h150v-560h200v-140zM219 700h119l-62 -210h-57v210z" />
    <glyph glyph-name="Ldot" unicode="&#x13f;" horiz-adv-x="402" 
d="M389 0h-350v700h150v-560h200v-140zM228 343c0 48 39 87 87 87s87 -39 87 -87s-39 -87 -87 -87s-87 39 -87 87z" />
    <glyph glyph-name="Lslash" unicode="&#x141;" horiz-adv-x="402" 
d="M189 140h200v-140h-350v257l-56 -32v99l56 32v344h150v-258l56 32v-99l-56 -32v-203z" />
    <glyph glyph-name="L.2" horiz-adv-x="402" 
d="M189 700v-557c0 -2 1 -3 3 -3h197v-140h-244c-63 0 -106 43 -106 106v594h150z" />
    <glyph glyph-name="Lacute.2" horiz-adv-x="402" 
d="M189 700v-557c0 -2 1 -3 3 -3h197v-140h-244c-63 0 -106 43 -106 106v594h150zM264 878l-124 -125h-107l74 125h157z" />
    <glyph glyph-name="uni013B.2" horiz-adv-x="402" 
d="M189 700v-557c0 -2 1 -3 3 -3h197v-140h-244c-63 0 -106 43 -106 106v594h150zM276 -147l-38 -73h-57l14 41c-32 9 -54 38 -54 71c0 40 32 73 73 73s73 -33 73 -73c0 -11 -4 -24 -11 -39z" />
    <glyph glyph-name="Lcaron.2" horiz-adv-x="402" 
d="M189 700v-557c0 -2 1 -3 3 -3h197v-140h-244c-63 0 -106 43 -106 106v594h150zM219 700h119l-62 -210h-57v210z" />
    <glyph glyph-name="Ldot.2" horiz-adv-x="402" 
d="M189 700v-557c0 -2 1 -3 3 -3h197v-140h-244c-63 0 -106 43 -106 106v594h150zM228 343c0 48 39 87 87 87s87 -39 87 -87s-39 -87 -87 -87s-87 39 -87 87z" />
    <glyph glyph-name="Lslash.2" horiz-adv-x="402" 
d="M192 140h197v-140h-244c-63 0 -106 43 -106 106v151l-56 -32v99l56 32v344h150v-258l56 32v-99l-56 -32v-200c0 -2 1 -3 3 -3z" />
    <glyph glyph-name="M" unicode="M" horiz-adv-x="596" 
d="M557 0h-145v345l-3 -18l-83 -327h-57l-82 327l-3 18v-345h-145v700h173l86 -347l86 347h173v-700z" />
    <glyph glyph-name="M.2" horiz-adv-x="678" 
d="M489 0v557c0 2 -1 3 -3 3h-69c-2 0 -3 -1 -3 -3v-557h-150v557c0 2 -1 3 -3 3h-69c-2 0 -3 -1 -3 -3v-557h-150v700h148v-52h2c19 33 49 54 92 54h27c42 0 73 -17 92 -52h2c19 35 50 52 92 52h39c63 0 106 -43 106 -106v-596h-150z" />
    <glyph glyph-name="N" unicode="N" 
d="M439 0h-138l-109 349l-3 15v-364h-150v700h158l89 -302l3 -16v318h150v-700z" />
    <glyph glyph-name="Ntilde" unicode="&#xd1;" 
d="M439 0h-138l-109 349l-3 15v-364h-150v700h158l89 -302l3 -16v318h150v-700zM89 806l60 60c15 15 34 23 56 23c21 0 39 -8 56 -23l32 -31c1 -1 3 -1 4 0l43 43l51 -52l-60 -60c-15 -15 -34 -23 -56 -23c-21 0 -39 8 -56 23l-32 31c-1 1 -3 1 -4 0l-43 -43z" />
    <glyph glyph-name="Nacute" unicode="&#x143;" 
d="M439 0h-138l-109 349l-3 15v-364h-150v700h158l89 -302l3 -16v318h150v-700zM389 878l-124 -125h-107l74 125h157z" />
    <glyph glyph-name="uni0145" unicode="&#x145;" 
d="M439 0h-138l-109 349l-3 15v-364h-150v700h158l89 -302l3 -16v318h150v-700zM301 -147l-38 -73h-57l14 41c-32 9 -54 38 -54 71c0 40 32 73 73 73s73 -33 73 -73c0 -11 -4 -24 -11 -39z" />
    <glyph glyph-name="Ncaron" unicode="&#x147;" 
d="M439 0h-138l-109 349l-3 15v-364h-150v700h158l89 -302l3 -16v318h150v-700zM288 875h77l-54 -125h-144l-54 125h77l49 -59z" />
    <glyph glyph-name="Eng" unicode="&#x14a;" 
d="M333 -155h-94v140h47c2 0 3 1 3 3v50l-97 310l-3 16v-364h-150v700h158l89 -302l3 -16v318h150v-749c0 -63 -43 -106 -106 -106z" />
    <glyph glyph-name="N.2" 
d="M289 0v557c0 2 -1 3 -3 3h-94c-2 0 -3 -1 -3 -3v-557h-150v700h148v-52h2c19 33 50 54 93 54h51c59 0 106 -47 106 -106v-596h-150z" />
    <glyph glyph-name="Ntilde.2" 
d="M289 0v557c0 2 -1 3 -3 3h-94c-2 0 -3 -1 -3 -3v-557h-150v700h148v-52h2c19 33 50 54 93 54h51c59 0 106 -47 106 -106v-596h-150zM89 806l60 60c15 15 34 23 56 23c21 0 39 -8 56 -23l32 -31c1 -1 3 -1 4 0l43 43l51 -52l-60 -60c-15 -15 -34 -23 -56 -23
c-21 0 -39 8 -56 23l-32 31c-1 1 -3 1 -4 0l-43 -43z" />
    <glyph glyph-name="Nacute.2" 
d="M289 0v557c0 2 -1 3 -3 3h-94c-2 0 -3 -1 -3 -3v-557h-150v700h148v-52h2c19 33 50 54 93 54h51c59 0 106 -47 106 -106v-596h-150zM389 878l-124 -125h-107l74 125h157z" />
    <glyph glyph-name="uni0145.2" 
d="M289 0v557c0 2 -1 3 -3 3h-94c-2 0 -3 -1 -3 -3v-557h-150v700h148v-52h2c19 33 50 54 93 54h51c59 0 106 -47 106 -106v-596h-150zM301 -147l-38 -73h-57l14 41c-32 9 -54 38 -54 71c0 40 32 73 73 73s73 -33 73 -73c0 -11 -4 -24 -11 -39z" />
    <glyph glyph-name="Ncaron.2" 
d="M289 0v557c0 2 -1 3 -3 3h-94c-2 0 -3 -1 -3 -3v-557h-150v700h148v-52h2c19 33 50 54 93 54h51c59 0 106 -47 106 -106v-596h-150zM288 875h77l-54 -125h-144l-54 125h77l49 -59z" />
    <glyph glyph-name="Eng.2" 
d="M239 -155v140h47c2 0 3 1 3 3v569c0 2 -1 3 -3 3h-94c-2 0 -3 -1 -3 -3v-557h-150v700h148v-52h2c19 33 49 54 92 54h53c63 0 105 -42 105 -105v-647c0 -63 -42 -105 -105 -105h-95z" />
    <glyph glyph-name="O" unicode="O" 
d="M333 -2h-188c-63 0 -106 43 -106 106v492c0 63 43 106 106 106h188c63 0 106 -43 106 -106v-492c0 -63 -43 -106 -106 -106zM286 560h-94c-2 0 -3 -1 -3 -3v-414c0 -2 1 -3 3 -3h94c2 0 3 1 3 3v414c0 2 -1 3 -3 3z" />
    <glyph glyph-name="Ograve" unicode="&#xd2;" 
d="M333 -2h-188c-63 0 -106 43 -106 106v492c0 63 43 106 106 106h188c63 0 106 -43 106 -106v-492c0 -63 -43 -106 -106 -106zM286 560h-94c-2 0 -3 -1 -3 -3v-414c0 -2 1 -3 3 -3h94c2 0 3 1 3 3v414c0 2 -1 3 -3 3zM89 878h157l74 -125h-107z" />
    <glyph glyph-name="Oacute" unicode="&#xd3;" 
d="M333 -2h-188c-63 0 -106 43 -106 106v492c0 63 43 106 106 106h188c63 0 106 -43 106 -106v-492c0 -63 -43 -106 -106 -106zM286 560h-94c-2 0 -3 -1 -3 -3v-414c0 -2 1 -3 3 -3h94c2 0 3 1 3 3v414c0 2 -1 3 -3 3zM389 878l-124 -125h-107l74 125h157z" />
    <glyph glyph-name="Ocircumflex" unicode="&#xd4;" 
d="M333 -2h-188c-63 0 -106 43 -106 106v492c0 63 43 106 106 106h188c63 0 106 -43 106 -106v-492c0 -63 -43 -106 -106 -106zM286 560h-94c-2 0 -3 -1 -3 -3v-414c0 -2 1 -3 3 -3h94c2 0 3 1 3 3v414c0 2 -1 3 -3 3zM365 753h-77l-49 59l-49 -59h-77l54 125h144z" />
    <glyph glyph-name="Otilde" unicode="&#xd5;" 
d="M333 -2h-188c-63 0 -106 43 -106 106v492c0 63 43 106 106 106h188c63 0 106 -43 106 -106v-492c0 -63 -43 -106 -106 -106zM286 560h-94c-2 0 -3 -1 -3 -3v-414c0 -2 1 -3 3 -3h94c2 0 3 1 3 3v414c0 2 -1 3 -3 3zM89 806l60 60c15 15 34 23 56 23c21 0 39 -8 56 -23
l32 -31c1 -1 3 -1 4 0l43 43l51 -52l-60 -60c-15 -15 -34 -23 -56 -23c-21 0 -39 8 -56 23l-32 31c-1 1 -3 1 -4 0l-43 -43z" />
    <glyph glyph-name="Odieresis" unicode="&#xd6;" 
d="M333 -2h-188c-63 0 -106 43 -106 106v492c0 63 43 106 106 106h188c63 0 106 -43 106 -106v-492c0 -63 -43 -106 -106 -106zM286 560h-94c-2 0 -3 -1 -3 -3v-414c0 -2 1 -3 3 -3h94c2 0 3 1 3 3v414c0 2 -1 3 -3 3zM67 816c0 44 37 81 81 81c45 0 81 -37 81 -81
c0 -45 -36 -82 -81 -82c-44 0 -81 37 -81 82zM250 816c0 44 37 81 81 81c45 0 81 -37 81 -81c0 -45 -36 -82 -81 -82c-44 0 -81 37 -81 82z" />
    <glyph glyph-name="Omacron" unicode="&#x14c;" 
d="M333 -2h-188c-63 0 -106 43 -106 106v492c0 63 43 106 106 106h188c63 0 106 -43 106 -106v-492c0 -63 -43 -106 -106 -106zM286 560h-94c-2 0 -3 -1 -3 -3v-414c0 -2 1 -3 3 -3h94c2 0 3 1 3 3v414c0 2 -1 3 -3 3zM378 771h-278v86h278v-86z" />
    <glyph glyph-name="Obreve" unicode="&#x14e;" 
d="M333 -2h-188c-63 0 -106 43 -106 106v492c0 63 43 106 106 106h188c63 0 106 -43 106 -106v-492c0 -63 -43 -106 -106 -106zM286 560h-94c-2 0 -3 -1 -3 -3v-414c0 -2 1 -3 3 -3h94c2 0 3 1 3 3v414c0 2 -1 3 -3 3zM239 750c-64 0 -121 26 -165 74l63 57
c29 -30 63 -45 102 -45s73 15 102 45l63 -57c-44 -48 -101 -74 -165 -74z" />
    <glyph glyph-name="Ohungarumlaut" unicode="&#x150;" 
d="M333 -2h-188c-63 0 -106 43 -106 106v492c0 63 43 106 106 106h188c63 0 106 -43 106 -106v-492c0 -63 -43 -106 -106 -106zM286 560h-94c-2 0 -3 -1 -3 -3v-414c0 -2 1 -3 3 -3h94c2 0 3 1 3 3v414c0 2 -1 3 -3 3zM176 878h104l-69 -125h-79zM303 878h104l-69 -125h-79z
" />
    <glyph glyph-name="Oslash" unicode="&#xd8;" 
d="M439 596v-492c0 -63 -43 -106 -106 -106h-188c-5 0 -12 1 -23 2l-29 -74h-45l36 89c-28 19 -45 50 -45 89v492c0 63 43 106 106 106h188c6 0 14 -1 23 -2l30 74h44l-35 -89c28 -19 44 -50 44 -89zM189 557v-277l100 251v26c0 2 -1 3 -3 3h-94c-2 0 -3 -1 -3 -3zM289 143
v276l-100 -251v-25c0 -2 1 -3 3 -3h94c2 0 3 1 3 3z" />
    <glyph glyph-name="Oslashacute" unicode="&#x1fe;" 
d="M439 596v-492c0 -63 -43 -106 -106 -106h-188c-5 0 -12 1 -23 2l-29 -74h-45l36 89c-28 19 -45 50 -45 89v492c0 63 43 106 106 106h188c6 0 14 -1 23 -2l30 74h44l-35 -89c28 -19 44 -50 44 -89zM189 557v-277l100 251v26c0 2 -1 3 -3 3h-94c-2 0 -3 -1 -3 -3zM289 143
v276l-100 -251v-25c0 -2 1 -3 3 -3h94c2 0 3 1 3 3zM389 878l-124 -125h-107l74 125h157z" />
    <glyph glyph-name="OE" unicode="&#x152;" horiz-adv-x="651" 
d="M639 0h-275v52h-2c-19 -33 -49 -54 -92 -54h-126c-63 0 -105 43 -105 106v492c0 63 42 106 105 106h126c43 0 73 -21 92 -54h2v52h275v-140h-201v-138h151v-130h-151v-152h201v-140zM286 560h-94c-2 0 -3 -1 -3 -3v-414c0 -2 1 -3 3 -3h94c2 0 3 1 3 3v414c0 2 -1 3 -3 3
z" />
    <glyph glyph-name="OE.2" horiz-adv-x="651" 
d="M39 106v488c0 63 43 106 106 106h126c42 0 73 -17 92 -52h2c17 32 49 52 93 52h181v-140h-197c-2 0 -3 -1 -3 -3v-135h150v-130h-150v-149c0 -2 1 -3 3 -3h197v-140h-181c-44 0 -76 20 -93 52h-2c-19 -35 -50 -52 -92 -52h-126c-63 0 -106 43 -106 106zM286 560h-94
c-2 0 -3 -1 -3 -3v-414c0 -2 1 -3 3 -3h94c2 0 3 1 3 3v414c0 2 -1 3 -3 3z" />
    <glyph glyph-name="P" unicode="P" horiz-adv-x="466" 
d="M333 260h-144v-260h-150v700h294c63 0 106 -43 106 -106v-228c0 -63 -42 -106 -106 -106zM286 560h-97v-160h97c2 0 3 1 3 3v154c0 2 -1 3 -3 3z" />
    <glyph glyph-name="Q" unicode="Q" 
d="M333 0h-19v-34c0 -2 1 -3 3 -3h47v-113h-94c-64 0 -106 43 -106 106v44h-19c-64 0 -106 43 -106 106v488c0 63 42 106 106 106h188c63 0 106 -43 106 -106v-488c0 -63 -43 -106 -106 -106zM192 140h94c2 0 3 1 3 3v414c0 2 -1 3 -3 3h-94c-2 0 -3 -1 -3 -3v-414
c0 -2 1 -3 3 -3z" />
    <glyph glyph-name="Q.2" 
d="M356 0l97 -125h-166l-89 123h-53c-63 0 -106 43 -106 106v492c0 63 43 106 106 106h188c63 0 106 -43 106 -106v-492c0 -59 -35 -95 -83 -104zM286 560h-94c-2 0 -3 -1 -3 -3v-414c0 -2 1 -3 3 -3h94c2 0 3 1 3 3v414c0 2 -1 3 -3 3z" />
    <glyph glyph-name="R" unicode="R" 
d="M449 0h-156l-66 260h-38v-260h-150v700h294c63 0 106 -43 106 -106v-228c0 -49 -26 -86 -69 -101zM189 560v-160h97c2 0 3 1 3 3v154c0 2 -1 3 -3 3h-97z" />
    <glyph glyph-name="Racute" unicode="&#x154;" 
d="M449 0h-156l-66 260h-38v-260h-150v700h294c63 0 106 -43 106 -106v-228c0 -49 -26 -86 -69 -101zM189 560v-160h97c2 0 3 1 3 3v154c0 2 -1 3 -3 3h-97zM389 878l-124 -125h-107l74 125h157z" />
    <glyph glyph-name="uni0156" unicode="&#x156;" 
d="M449 0h-156l-66 260h-38v-260h-150v700h294c63 0 106 -43 106 -106v-228c0 -49 -26 -86 -69 -101zM189 560v-160h97c2 0 3 1 3 3v154c0 2 -1 3 -3 3h-97zM301 -147l-38 -73h-57l14 41c-32 9 -54 38 -54 71c0 40 32 73 73 73s73 -33 73 -73c0 -11 -4 -24 -11 -39z" />
    <glyph glyph-name="Rcaron" unicode="&#x158;" 
d="M449 0h-156l-66 260h-38v-260h-150v700h294c63 0 106 -43 106 -106v-228c0 -49 -26 -86 -69 -101zM189 560v-160h97c2 0 3 1 3 3v154c0 2 -1 3 -3 3h-97zM288 875h77l-54 -125h-144l-54 125h77l49 -59z" />
    <glyph glyph-name="R.2" 
d="M439 0h-150v257c0 2 -1 3 -3 3h-97v-260h-150v700h294c63 0 106 -43 106 -106v-181c0 -43 -17 -70 -50 -80v-3c33 -10 50 -37 50 -82v-248zM286 560h-97v-160h97c2 0 3 1 3 3v154c0 2 -1 3 -3 3z" />
    <glyph glyph-name="Racute.2" 
d="M439 0h-150v257c0 2 -1 3 -3 3h-97v-260h-150v700h294c63 0 106 -43 106 -106v-181c0 -43 -17 -70 -50 -80v-3c33 -10 50 -37 50 -82v-248zM286 560h-97v-160h97c2 0 3 1 3 3v154c0 2 -1 3 -3 3zM390 878l-124 -125h-107l74 125h157z" />
    <glyph glyph-name="uni0156.2" 
d="M439 0h-150v257c0 2 -1 3 -3 3h-97v-260h-150v700h294c63 0 106 -43 106 -106v-181c0 -43 -17 -70 -50 -80v-3c33 -10 50 -37 50 -82v-248zM286 560h-97v-160h97c2 0 3 1 3 3v154c0 2 -1 3 -3 3zM302 -147l-38 -73h-57l14 41c-32 9 -54 38 -54 71c0 40 32 73 73 73
s73 -33 73 -73c0 -11 -4 -24 -11 -39z" />
    <glyph glyph-name="Rcaron.2" 
d="M439 0h-150v257c0 2 -1 3 -3 3h-97v-260h-150v700h294c63 0 106 -43 106 -106v-181c0 -43 -17 -70 -50 -80v-3c33 -10 50 -37 50 -82v-248zM286 560h-97v-160h97c2 0 3 1 3 3v154c0 2 -1 3 -3 3zM289 875h77l-54 -125h-144l-54 125h77l49 -59z" />
    <glyph glyph-name="S" unicode="S" 
d="M286 207l-207 204c-27 27 -40 62 -40 105v80c0 63 42 106 106 106h188c63 0 106 -43 106 -106v-121h-150v82c0 2 -1 3 -3 3h-94c-2 0 -3 -1 -3 -3v-43c0 -3 1 -5 3 -7l207 -204c27 -27 40 -62 40 -105v-94c0 -63 -43 -106 -106 -106h-188c-64 0 -106 43 -106 106v121h150
v-82c0 -2 1 -3 3 -3h94c2 0 3 1 3 3v57c0 3 -1 5 -3 7z" />
    <glyph glyph-name="Sacute" unicode="&#x15a;" 
d="M286 207l-207 204c-27 27 -40 62 -40 105v80c0 63 42 106 106 106h188c63 0 106 -43 106 -106v-121h-150v82c0 2 -1 3 -3 3h-94c-2 0 -3 -1 -3 -3v-43c0 -3 1 -5 3 -7l207 -204c27 -27 40 -62 40 -105v-94c0 -63 -43 -106 -106 -106h-188c-64 0 -106 43 -106 106v121h150
v-82c0 -2 1 -3 3 -3h94c2 0 3 1 3 3v57c0 3 -1 5 -3 7zM389 878l-124 -125h-107l74 125h157z" />
    <glyph glyph-name="Scircumflex" unicode="&#x15c;" 
d="M286 207l-207 204c-27 27 -40 62 -40 105v80c0 63 42 106 106 106h188c63 0 106 -43 106 -106v-121h-150v82c0 2 -1 3 -3 3h-94c-2 0 -3 -1 -3 -3v-43c0 -3 1 -5 3 -7l207 -204c27 -27 40 -62 40 -105v-94c0 -63 -43 -106 -106 -106h-188c-64 0 -106 43 -106 106v121h150
v-82c0 -2 1 -3 3 -3h94c2 0 3 1 3 3v57c0 3 -1 5 -3 7zM365 753h-77l-49 59l-49 -59h-77l54 125h144z" />
    <glyph glyph-name="Scedilla" unicode="&#x15e;" 
d="M439 475h-150v82c0 2 -1 3 -3 3h-94c-2 0 -3 -1 -3 -3v-43c0 -3 1 -5 3 -7l207 -204c27 -27 40 -62 40 -105v-94c0 -63 -43 -106 -106 -106h-69v-23h28c19 0 33 -15 33 -34v-28c0 -35 -28 -63 -61 -63h-111v86h86v28h-61v34h-33c-64 0 -106 43 -106 106v121h150v-82
c0 -2 1 -3 3 -3h94c2 0 3 1 3 3v57c0 3 -1 5 -3 7l-207 204c-27 27 -40 62 -40 105v80c0 63 42 106 106 106h188c63 0 106 -43 106 -106v-121z" />
    <glyph glyph-name="Scaron" unicode="&#x160;" 
d="M286 207l-207 204c-27 27 -40 62 -40 105v80c0 63 42 106 106 106h188c63 0 106 -43 106 -106v-121h-150v82c0 2 -1 3 -3 3h-94c-2 0 -3 -1 -3 -3v-43c0 -3 1 -5 3 -7l207 -204c27 -27 40 -62 40 -105v-94c0 -63 -43 -106 -106 -106h-188c-64 0 -106 43 -106 106v121h150
v-82c0 -2 1 -3 3 -3h94c2 0 3 1 3 3v57c0 3 -1 5 -3 7zM288 875h77l-54 -125h-144l-54 125h77l49 -59z" />
    <glyph glyph-name="uni0218" unicode="&#x218;" 
d="M286 207l-207 204c-27 27 -40 62 -40 105v80c0 63 42 106 106 106h188c63 0 106 -43 106 -106v-121h-150v82c0 2 -1 3 -3 3h-94c-2 0 -3 -1 -3 -3v-43c0 -3 1 -5 3 -7l207 -204c27 -27 40 -62 40 -105v-94c0 -63 -43 -106 -106 -106h-188c-64 0 -106 43 -106 106v121h150
v-82c0 -2 1 -3 3 -3h94c2 0 3 1 3 3v57c0 3 -1 5 -3 7zM301 -147l-38 -73h-57l14 41c-32 9 -54 38 -54 71c0 40 32 73 73 73s73 -33 73 -73c0 -11 -4 -24 -11 -39z" />
    <glyph glyph-name="S.2" 
d="M39 393v203c0 63 42 106 106 106h188c63 0 106 -43 106 -106v-121h-150v82c0 2 -1 3 -3 3h-94c-2 0 -3 -1 -3 -3v-127c0 -2 1 -3 3 -3h141c63 0 106 -43 106 -106v-217c0 -63 -43 -106 -106 -106h-188c-64 0 -106 43 -106 106v121h150v-82c0 -2 1 -3 3 -3h94c2 0 3 1 3 3
v141c0 2 -1 3 -3 3h-141c-64 0 -106 43 -106 106z" />
    <glyph glyph-name="Sacute.2" 
d="M39 393v203c0 63 42 106 106 106h188c63 0 106 -43 106 -106v-121h-150v82c0 2 -1 3 -3 3h-94c-2 0 -3 -1 -3 -3v-127c0 -2 1 -3 3 -3h141c63 0 106 -43 106 -106v-217c0 -63 -43 -106 -106 -106h-188c-64 0 -106 43 -106 106v121h150v-82c0 -2 1 -3 3 -3h94c2 0 3 1 3 3
v141c0 2 -1 3 -3 3h-141c-64 0 -106 43 -106 106zM389 878l-124 -125h-107l74 125h157z" />
    <glyph glyph-name="Scircumflex.2" 
d="M39 393v203c0 63 42 106 106 106h188c63 0 106 -43 106 -106v-121h-150v82c0 2 -1 3 -3 3h-94c-2 0 -3 -1 -3 -3v-127c0 -2 1 -3 3 -3h141c63 0 106 -43 106 -106v-217c0 -63 -43 -106 -106 -106h-188c-64 0 -106 43 -106 106v121h150v-82c0 -2 1 -3 3 -3h94c2 0 3 1 3 3
v141c0 2 -1 3 -3 3h-141c-64 0 -106 43 -106 106zM365 753h-77l-49 59l-49 -59h-77l54 125h144z" />
    <glyph glyph-name="Scedilla.2" 
d="M439 475h-150v82c0 2 -1 3 -3 3h-94c-2 0 -3 -1 -3 -3v-127c0 -2 1 -3 3 -3h141c63 0 106 -43 106 -106v-217c0 -63 -43 -106 -106 -106h-69v-23h28c19 0 33 -15 33 -34v-28c0 -35 -28 -63 -61 -63h-111v86h86v28h-61v34h-33c-64 0 -106 43 -106 106v121h150v-82
c0 -2 1 -3 3 -3h94c2 0 3 1 3 3v141c0 2 -1 3 -3 3h-141c-64 0 -106 43 -106 106v203c0 63 42 106 106 106h188c63 0 106 -43 106 -106v-121z" />
    <glyph glyph-name="Scaron.2" 
d="M39 393v203c0 63 42 106 106 106h188c63 0 106 -43 106 -106v-121h-150v82c0 2 -1 3 -3 3h-94c-2 0 -3 -1 -3 -3v-127c0 -2 1 -3 3 -3h141c63 0 106 -43 106 -106v-217c0 -63 -43 -106 -106 -106h-188c-64 0 -106 43 -106 106v121h150v-82c0 -2 1 -3 3 -3h94c2 0 3 1 3 3
v141c0 2 -1 3 -3 3h-141c-64 0 -106 43 -106 106zM288 875h77l-54 -125h-144l-54 125h77l49 -59z" />
    <glyph glyph-name="uni0218.2" 
d="M39 393v203c0 63 42 106 106 106h188c63 0 106 -43 106 -106v-121h-150v82c0 2 -1 3 -3 3h-94c-2 0 -3 -1 -3 -3v-127c0 -2 1 -3 3 -3h141c63 0 106 -43 106 -106v-217c0 -63 -43 -106 -106 -106h-188c-64 0 -106 43 -106 106v121h150v-82c0 -2 1 -3 3 -3h94c2 0 3 1 3 3
v141c0 2 -1 3 -3 3h-141c-64 0 -106 43 -106 106zM301 -147l-38 -73h-57l14 41c-32 9 -54 38 -54 71c0 40 32 73 73 73s73 -33 73 -73c0 -11 -4 -24 -11 -39z" />
    <glyph glyph-name="S.3" horiz-adv-x="440" 
d="M39 0v140h209c2 0 3 1 3 3v141c0 2 -1 3 -3 3h-103c-63 0 -106 43 -106 106v201c0 63 43 106 106 106h246v-140h-199c-2 0 -3 -1 -3 -3v-127c0 -2 1 -3 3 -3h103c63 0 106 -43 106 -106v-215c0 -63 -43 -106 -106 -106h-256z" />
    <glyph glyph-name="Sacute.3" horiz-adv-x="440" 
d="M39 0v140h209c2 0 3 1 3 3v141c0 2 -1 3 -3 3h-103c-63 0 -106 43 -106 106v201c0 63 43 106 106 106h246v-140h-199c-2 0 -3 -1 -3 -3v-127c0 -2 1 -3 3 -3h103c63 0 106 -43 106 -106v-215c0 -63 -43 -106 -106 -106h-256zM370 878l-124 -125h-107l74 125h157z" />
    <glyph glyph-name="Scircumflex.3" horiz-adv-x="440" 
d="M39 0v140h209c2 0 3 1 3 3v141c0 2 -1 3 -3 3h-103c-63 0 -106 43 -106 106v201c0 63 43 106 106 106h246v-140h-199c-2 0 -3 -1 -3 -3v-127c0 -2 1 -3 3 -3h103c63 0 106 -43 106 -106v-215c0 -63 -43 -106 -106 -106h-256zM346 753h-77l-49 59l-49 -59h-77l54 125h144z
" />
    <glyph glyph-name="Scedilla.3" horiz-adv-x="440" 
d="M401 321v-215c0 -63 -43 -106 -106 -106h-50v-25h28c19 0 33 -15 33 -34v-28c0 -35 -28 -63 -61 -63h-111v86h86v28h-61v36h-120v140h209c2 0 3 1 3 3v141c0 2 -1 3 -3 3h-103c-63 0 -106 43 -106 106v201c0 63 43 106 106 106h246v-140h-199c-2 0 -3 -1 -3 -3v-127
c0 -2 1 -3 3 -3h103c63 0 106 -43 106 -106z" />
    <glyph glyph-name="Scaron.3" horiz-adv-x="440" 
d="M39 0v140h209c2 0 3 1 3 3v141c0 2 -1 3 -3 3h-103c-63 0 -106 43 -106 106v201c0 63 43 106 106 106h246v-140h-199c-2 0 -3 -1 -3 -3v-127c0 -2 1 -3 3 -3h103c63 0 106 -43 106 -106v-215c0 -63 -43 -106 -106 -106h-256zM269 875h77l-54 -125h-144l-54 125h77l49 -59
z" />
    <glyph glyph-name="uni0218.3" horiz-adv-x="440" 
d="M39 0v140h209c2 0 3 1 3 3v141c0 2 -1 3 -3 3h-103c-63 0 -106 43 -106 106v201c0 63 43 106 106 106h246v-140h-199c-2 0 -3 -1 -3 -3v-127c0 -2 1 -3 3 -3h103c63 0 106 -43 106 -106v-215c0 -63 -43 -106 -106 -106h-256zM282 -147l-38 -73h-57l14 41
c-32 9 -54 38 -54 71c0 40 32 73 73 73s73 -33 73 -73c0 -11 -4 -24 -11 -39z" />
    <glyph glyph-name="uni1E9E" unicode="&#x1e9e;" horiz-adv-x="519" 
d="M480 316v-210c0 -63 -43 -106 -106 -106h-148v140h101c2 0 3 1 3 3v146c0 2 -1 3 -3 3h-101v130l113 138h-150v-560h-150v700h434v-160l-97 -118c61 -1 104 -43 104 -106z" />
    <glyph glyph-name="T" unicode="T" horiz-adv-x="428" 
d="M414 560h-125v-560h-150v560h-125v140h400v-140z" />
    <glyph glyph-name="uni0162" unicode="&#x162;" horiz-adv-x="428" 
d="M289 0h-35v-25h28c19 0 33 -15 33 -34v-28c0 -35 -28 -63 -61 -63h-111v86h86v28h-61v36h-29v560h-125v140h400v-140h-125v-560z" />
    <glyph glyph-name="Tcaron" unicode="&#x164;" horiz-adv-x="428" 
d="M414 560h-125v-560h-150v560h-125v140h400v-140zM263 875h77l-54 -125h-144l-54 125h77l49 -59z" />
    <glyph glyph-name="Tbar" unicode="&#x166;" horiz-adv-x="428" 
d="M414 560h-125v-167h64v-86h-64v-307h-150v307h-64v86h64v167h-125v140h400v-140z" />
    <glyph glyph-name="uni021A" unicode="&#x21a;" horiz-adv-x="428" 
d="M414 560h-125v-560h-150v560h-125v140h400v-140zM276 -147l-38 -73h-57l14 41c-32 9 -54 38 -54 71c0 40 32 73 73 73s73 -33 73 -73c0 -11 -4 -24 -11 -39z" />
    <glyph glyph-name="U" unicode="U" 
d="M333 -2h-188c-64 0 -106 43 -106 106v596h150v-557c0 -2 1 -3 3 -3h94c2 0 3 1 3 3v557h150v-596c0 -63 -43 -106 -106 -106z" />
    <glyph glyph-name="Ugrave" unicode="&#xd9;" 
d="M333 -2h-188c-64 0 -106 43 -106 106v596h150v-557c0 -2 1 -3 3 -3h94c2 0 3 1 3 3v557h150v-596c0 -63 -43 -106 -106 -106zM89 878h157l74 -125h-107z" />
    <glyph glyph-name="Uacute" unicode="&#xda;" 
d="M333 -2h-188c-64 0 -106 43 -106 106v596h150v-557c0 -2 1 -3 3 -3h94c2 0 3 1 3 3v557h150v-596c0 -63 -43 -106 -106 -106zM389 878l-124 -125h-107l74 125h157z" />
    <glyph glyph-name="Ucircumflex" unicode="&#xdb;" 
d="M333 -2h-188c-64 0 -106 43 -106 106v596h150v-557c0 -2 1 -3 3 -3h94c2 0 3 1 3 3v557h150v-596c0 -63 -43 -106 -106 -106zM365 753h-77l-49 59l-49 -59h-77l54 125h144z" />
    <glyph glyph-name="Udieresis" unicode="&#xdc;" 
d="M333 -2h-188c-64 0 -106 43 -106 106v596h150v-557c0 -2 1 -3 3 -3h94c2 0 3 1 3 3v557h150v-596c0 -63 -43 -106 -106 -106zM67 816c0 44 37 81 81 81c45 0 81 -37 81 -81c0 -45 -36 -82 -81 -82c-44 0 -81 37 -81 82zM250 816c0 44 37 81 81 81c45 0 81 -37 81 -81
c0 -45 -36 -82 -81 -82c-44 0 -81 37 -81 82z" />
    <glyph glyph-name="Utilde" unicode="&#x168;" 
d="M333 -2h-188c-64 0 -106 43 -106 106v596h150v-557c0 -2 1 -3 3 -3h94c2 0 3 1 3 3v557h150v-596c0 -63 -43 -106 -106 -106zM89 806l60 60c15 15 34 23 56 23c21 0 39 -8 56 -23l32 -31c1 -1 3 -1 4 0l43 43l51 -52l-60 -60c-15 -15 -34 -23 -56 -23c-21 0 -39 8 -56 23
l-32 31c-1 1 -3 1 -4 0l-43 -43z" />
    <glyph glyph-name="Umacron" unicode="&#x16a;" 
d="M333 -2h-188c-64 0 -106 43 -106 106v596h150v-557c0 -2 1 -3 3 -3h94c2 0 3 1 3 3v557h150v-596c0 -63 -43 -106 -106 -106zM378 771h-278v86h278v-86z" />
    <glyph glyph-name="Ubreve" unicode="&#x16c;" 
d="M333 -2h-188c-64 0 -106 43 -106 106v596h150v-557c0 -2 1 -3 3 -3h94c2 0 3 1 3 3v557h150v-596c0 -63 -43 -106 -106 -106zM239 750c-64 0 -121 26 -165 74l63 57c29 -30 63 -45 102 -45s73 15 102 45l63 -57c-44 -48 -101 -74 -165 -74z" />
    <glyph glyph-name="Uring" unicode="&#x16e;" 
d="M333 -2h-188c-64 0 -106 43 -106 106v596h150v-557c0 -2 1 -3 3 -3h94c2 0 3 1 3 3v557h150v-596c0 -63 -43 -106 -106 -106zM131 836c0 29 11 54 32 75c22 21 48 32 77 32s54 -11 75 -32s32 -46 32 -75c0 -61 -46 -109 -107 -109s-109 48 -109 109zM276 836
c0 19 -17 35 -36 35s-35 -16 -35 -35s16 -36 35 -36s36 17 36 36z" />
    <glyph glyph-name="Uhungarumlaut" unicode="&#x170;" 
d="M333 -2h-188c-64 0 -106 43 -106 106v596h150v-557c0 -2 1 -3 3 -3h94c2 0 3 1 3 3v557h150v-596c0 -63 -43 -106 -106 -106zM176 878h104l-69 -125h-79zM303 878h104l-69 -125h-79z" />
    <glyph glyph-name="Uogonek" unicode="&#x172;" 
d="M289 700h150v-596c0 -61 -41 -103 -101 -106l-28 -56l-1 -4c0 -1 1 -2 2 -2h28v-86h-34c-47 0 -81 34 -81 81c0 14 3 27 10 39l14 28h-103c-64 0 -106 43 -106 106v596h150v-557c0 -2 1 -3 3 -3h94c2 0 3 1 3 3v557z" />
    <glyph glyph-name="V" unicode="V" horiz-adv-x="496" 
d="M336 0h-176l-150 700h156l79 -433l3 -25l3 25l79 433h156z" />
    <glyph glyph-name="W" unicode="W" horiz-adv-x="722" 
d="M711 700l-120 -700h-169l-58 416l-3 29l-3 -29l-58 -416h-169l-120 700h158l53 -416l3 -30l3 30l52 416h163l51 -416l3 -31l3 31l54 416h157z" />
    <glyph glyph-name="Wcircumflex" unicode="&#x174;" horiz-adv-x="722" 
d="M711 700l-120 -700h-169l-58 416l-3 29l-3 -29l-58 -416h-169l-120 700h158l53 -416l3 -30l3 30l52 416h163l51 -416l3 -31l3 31l54 416h157zM487 753h-77l-49 59l-49 -59h-77l54 125h144z" />
    <glyph glyph-name="Wgrave" unicode="&#x1e80;" horiz-adv-x="722" 
d="M711 700l-120 -700h-169l-58 416l-3 29l-3 -29l-58 -416h-169l-120 700h158l53 -416l3 -30l3 30l52 416h163l51 -416l3 -31l3 31l54 416h157zM211 878h157l74 -125h-107z" />
    <glyph glyph-name="Wacute" unicode="&#x1e82;" horiz-adv-x="722" 
d="M711 700l-120 -700h-169l-58 416l-3 29l-3 -29l-58 -416h-169l-120 700h158l53 -416l3 -30l3 30l52 416h163l51 -416l3 -31l3 31l54 416h157zM511 878l-124 -125h-107l74 125h157z" />
    <glyph glyph-name="Wdieresis" unicode="&#x1e84;" horiz-adv-x="722" 
d="M711 700l-120 -700h-169l-58 416l-3 29l-3 -29l-58 -416h-169l-120 700h158l53 -416l3 -30l3 30l52 416h163l51 -416l3 -31l3 31l54 416h157zM189 816c0 44 37 81 81 81c45 0 81 -37 81 -81c0 -45 -36 -82 -81 -82c-44 0 -81 37 -81 82zM372 816c0 44 37 81 81 81
c45 0 81 -37 81 -81c0 -45 -36 -82 -81 -82c-44 0 -81 37 -81 82z" />
    <glyph glyph-name="W.2" horiz-adv-x="678" 
d="M39 104v596h150v-557c0 -2 1 -3 3 -3h69c2 0 3 1 3 3v557h150v-557c0 -2 1 -3 3 -3h69c2 0 3 1 3 3v557h150v-596c0 -63 -42 -106 -105 -106h-110c-45 0 -72 17 -82 50h-2c-10 -33 -37 -50 -80 -50h-115c-63 0 -106 43 -106 106z" />
    <glyph glyph-name="Wcircumflex.2" horiz-adv-x="678" 
d="M39 104v596h150v-557c0 -2 1 -3 3 -3h69c2 0 3 1 3 3v557h150v-557c0 -2 1 -3 3 -3h69c2 0 3 1 3 3v557h150v-596c0 -63 -42 -106 -105 -106h-110c-45 0 -72 17 -82 50h-2c-10 -33 -37 -50 -80 -50h-115c-63 0 -106 43 -106 106zM467 753h-77l-49 59l-49 -59h-77l54 125
h144z" />
    <glyph glyph-name="Wgrave.2" horiz-adv-x="678" 
d="M39 104v596h150v-557c0 -2 1 -3 3 -3h69c2 0 3 1 3 3v557h150v-557c0 -2 1 -3 3 -3h69c2 0 3 1 3 3v557h150v-596c0 -63 -42 -106 -105 -106h-110c-45 0 -72 17 -82 50h-2c-10 -33 -37 -50 -80 -50h-115c-63 0 -106 43 -106 106zM191 878h157l74 -125h-107z" />
    <glyph glyph-name="Wacute.2" horiz-adv-x="678" 
d="M39 104v596h150v-557c0 -2 1 -3 3 -3h69c2 0 3 1 3 3v557h150v-557c0 -2 1 -3 3 -3h69c2 0 3 1 3 3v557h150v-596c0 -63 -42 -106 -105 -106h-110c-45 0 -72 17 -82 50h-2c-10 -33 -37 -50 -80 -50h-115c-63 0 -106 43 -106 106zM491 878l-124 -125h-107l74 125h157z" />
    <glyph glyph-name="Wdieresis.2" horiz-adv-x="678" 
d="M39 104v596h150v-557c0 -2 1 -3 3 -3h69c2 0 3 1 3 3v557h150v-557c0 -2 1 -3 3 -3h69c2 0 3 1 3 3v557h150v-596c0 -63 -42 -106 -105 -106h-110c-45 0 -72 17 -82 50h-2c-10 -33 -37 -50 -80 -50h-115c-63 0 -106 43 -106 106zM169 816c0 44 37 81 81 81
c45 0 81 -37 81 -81c0 -45 -36 -82 -81 -82c-44 0 -81 37 -81 82zM352 816c0 44 37 81 81 81c45 0 81 -37 81 -81c0 -45 -36 -82 -81 -82c-44 0 -81 37 -81 82z" />
    <glyph glyph-name="X" unicode="X" horiz-adv-x="494" 
d="M494 0h-169l-76 210l-2 10l-2 -10l-76 -210h-169l160 366l-144 334h165l64 -177l2 -11l2 11l64 177h165l-144 -334z" />
    <glyph glyph-name="X.2" horiz-adv-x="494" 
d="M90 357v2c-33 10 -50 37 -50 81v260h150v-270c0 -2 1 -3 3 -3h94c2 0 3 1 3 3v270h150v-260c0 -44 -17 -71 -50 -81v-2c33 -10 50 -38 50 -83v-274h-150v284c0 2 -1 3 -3 3h-94c-2 0 -3 -1 -3 -3v-284h-150v274c0 45 17 73 50 83z" />
    <glyph glyph-name="Y" unicode="Y" horiz-adv-x="464" 
d="M457 700l-151 -430v-270h-150v270l-149 430h160l63 -238l2 -12l2 12l63 238h160z" />
    <glyph glyph-name="Yacute" unicode="&#xdd;" horiz-adv-x="464" 
d="M457 700l-151 -430v-270h-150v270l-149 430h160l63 -238l2 -12l2 12l63 238h160zM382 878l-124 -125h-107l74 125h157z" />
    <glyph glyph-name="Ycircumflex" unicode="&#x176;" horiz-adv-x="464" 
d="M457 700l-151 -430v-270h-150v270l-149 430h160l63 -238l2 -12l2 12l63 238h160zM358 753h-77l-49 59l-49 -59h-77l54 125h144z" />
    <glyph glyph-name="Ydieresis" unicode="&#x178;" horiz-adv-x="464" 
d="M457 700l-151 -430v-270h-150v270l-149 430h160l63 -238l2 -12l2 12l63 238h160zM60 816c0 44 37 81 81 81c45 0 81 -37 81 -81c0 -45 -36 -82 -81 -82c-44 0 -81 37 -81 82zM243 816c0 44 37 81 81 81c45 0 81 -37 81 -81c0 -45 -36 -82 -81 -82c-44 0 -81 37 -81 82z
" />
    <glyph glyph-name="Ygrave" unicode="&#x1ef2;" horiz-adv-x="464" 
d="M457 700l-151 -430v-270h-150v270l-149 430h160l63 -238l2 -12l2 12l63 238h160zM82 878h157l74 -125h-107z" />
    <glyph glyph-name="Y.2" 
d="M439 700v-334c0 -63 -43 -106 -106 -106h-19v-260h-150v260h-19c-63 0 -106 43 -106 106v334h150v-307c0 -2 1 -3 3 -3h94c2 0 3 1 3 3v307h150z" />
    <glyph glyph-name="Yacute.2" 
d="M439 700v-334c0 -63 -43 -106 -106 -106h-19v-260h-150v260h-19c-63 0 -106 43 -106 106v334h150v-307c0 -2 1 -3 3 -3h94c2 0 3 1 3 3v307h150zM389 878l-124 -125h-107l74 125h157z" />
    <glyph glyph-name="Ycircumflex.2" 
d="M439 700v-334c0 -63 -43 -106 -106 -106h-19v-260h-150v260h-19c-63 0 -106 43 -106 106v334h150v-307c0 -2 1 -3 3 -3h94c2 0 3 1 3 3v307h150zM365 753h-77l-49 59l-49 -59h-77l54 125h144z" />
    <glyph glyph-name="Ydieresis.2" 
d="M439 700v-334c0 -63 -43 -106 -106 -106h-19v-260h-150v260h-19c-63 0 -106 43 -106 106v334h150v-307c0 -2 1 -3 3 -3h94c2 0 3 1 3 3v307h150zM67 816c0 44 37 81 81 81c45 0 81 -37 81 -81c0 -45 -36 -82 -81 -82c-44 0 -81 37 -81 82zM250 816c0 44 37 81 81 81
c45 0 81 -37 81 -81c0 -45 -36 -82 -81 -82c-44 0 -81 37 -81 82z" />
    <glyph glyph-name="Ygrave.2" 
d="M439 700v-334c0 -63 -43 -106 -106 -106h-19v-260h-150v260h-19c-63 0 -106 43 -106 106v334h150v-307c0 -2 1 -3 3 -3h94c2 0 3 1 3 3v307h150zM89 878h157l74 -125h-107z" />
    <glyph glyph-name="Z" unicode="Z" horiz-adv-x="455" 
d="M422 0h-408v150l228 410h-220v140h392v-150l-229 -410h237v-140z" />
    <glyph glyph-name="Zacute" unicode="&#x179;" horiz-adv-x="455" 
d="M422 0h-408v150l228 410h-220v140h392v-150l-229 -410h237v-140zM368 878l-124 -125h-107l74 125h157z" />
    <glyph glyph-name="Zdotaccent" unicode="&#x17b;" horiz-adv-x="455" 
d="M422 0h-408v150l228 410h-220v140h392v-150l-229 -410h237v-140zM137 816c0 44 37 81 81 81c45 0 81 -37 81 -81c0 -45 -36 -82 -81 -82c-44 0 -81 37 -81 82z" />
    <glyph glyph-name="Zcaron" unicode="&#x17d;" horiz-adv-x="455" 
d="M422 0h-408v150l228 410h-220v140h392v-150l-229 -410h237v-140zM267 875h77l-54 -125h-144l-54 125h77l49 -59z" />
    <glyph glyph-name="Eth" unicode="&#xd0;" horiz-adv-x="479" 
d="M439 594v-488c0 -63 -43 -106 -106 -106h-294v314h-64v86h64v300h294c63 0 106 -43 106 -106zM289 143v414c0 2 -1 3 -3 3h-97v-160h64v-86h-64v-174h97c2 0 3 1 3 3z" />
    <glyph glyph-name="Thorn" unicode="&#xde;" horiz-adv-x="466" 
d="M333 136h-144v-136h-150v700h150v-124h144c63 0 106 -43 106 -106v-228c0 -63 -42 -106 -106 -106zM286 436h-97v-160h97c2 0 3 1 3 3v154c0 2 -1 3 -3 3z" />
    <glyph glyph-name="a" unicode="a" horiz-adv-x="418" 
d="M379 0h-133v38h-2c-8 -27 -35 -40 -70 -40h-36c-65 0 -104 37 -104 102v89c0 67 34 101 101 101h39c36 0 62 -13 70 -38h2l-2 38v52c0 2 -1 3 -3 3h-173v125h210c65 0 101 -36 101 -101v-369zM241 200h-69c-2 0 -3 -1 -3 -3v-79c0 -2 1 -3 3 -3h69c2 0 3 1 3 3v79
c0 2 -1 3 -3 3z" />
    <glyph glyph-name="agrave" unicode="&#xe0;" horiz-adv-x="413" 
d="M379 0h-133v38h-2c-8 -27 -35 -40 -70 -40h-36c-65 0 -104 37 -104 102v89c0 67 34 101 101 101h39c36 0 62 -13 70 -38h2l-2 38v52c0 2 -1 3 -3 3h-173v125h210c65 0 101 -36 101 -101v-369zM241 200h-69c-2 0 -3 -1 -3 -3v-79c0 -2 1 -3 3 -3h69c2 0 3 1 3 3v79
c0 2 -1 3 -3 3zM56 648h157l74 -125h-107z" />
    <glyph glyph-name="aacute" unicode="&#xe1;" horiz-adv-x="413" 
d="M379 0h-133v38h-2c-8 -27 -35 -40 -70 -40h-36c-65 0 -104 37 -104 102v89c0 67 34 101 101 101h39c36 0 62 -13 70 -38h2l-2 38v52c0 2 -1 3 -3 3h-173v125h210c65 0 101 -36 101 -101v-369zM241 200h-69c-2 0 -3 -1 -3 -3v-79c0 -2 1 -3 3 -3h69c2 0 3 1 3 3v79
c0 2 -1 3 -3 3zM356 648l-124 -125h-107l74 125h157z" />
    <glyph glyph-name="acircumflex" unicode="&#xe2;" horiz-adv-x="413" 
d="M379 0h-133v38h-2c-8 -27 -35 -40 -70 -40h-36c-65 0 -104 37 -104 102v89c0 67 34 101 101 101h39c36 0 62 -13 70 -38h2l-2 38v52c0 2 -1 3 -3 3h-173v125h210c65 0 101 -36 101 -101v-369zM241 200h-69c-2 0 -3 -1 -3 -3v-79c0 -2 1 -3 3 -3h69c2 0 3 1 3 3v79
c0 2 -1 3 -3 3zM332 523h-77l-49 59l-49 -59h-77l54 125h144z" />
    <glyph glyph-name="atilde" unicode="&#xe3;" horiz-adv-x="413" 
d="M379 0h-133v38h-2c-8 -27 -35 -40 -70 -40h-36c-65 0 -104 37 -104 102v89c0 67 34 101 101 101h39c36 0 62 -13 70 -38h2l-2 38v52c0 2 -1 3 -3 3h-173v125h210c65 0 101 -36 101 -101v-369zM241 200h-69c-2 0 -3 -1 -3 -3v-79c0 -2 1 -3 3 -3h69c2 0 3 1 3 3v79
c0 2 -1 3 -3 3zM56 576l60 60c15 15 34 23 56 23c21 0 39 -8 56 -23l32 -31c1 -1 3 -1 4 0l43 43l51 -52l-60 -60c-15 -15 -34 -23 -56 -23c-21 0 -39 8 -56 23l-32 31c-1 1 -3 1 -4 0l-43 -43z" />
    <glyph glyph-name="adieresis" unicode="&#xe4;" horiz-adv-x="413" 
d="M379 0h-133v38h-2c-8 -27 -35 -40 -70 -40h-36c-65 0 -104 37 -104 102v89c0 67 34 101 101 101h39c36 0 62 -13 70 -38h2l-2 38v52c0 2 -1 3 -3 3h-173v125h210c65 0 101 -36 101 -101v-369zM241 200h-69c-2 0 -3 -1 -3 -3v-79c0 -2 1 -3 3 -3h69c2 0 3 1 3 3v79
c0 2 -1 3 -3 3zM34 586c0 44 37 81 81 81c45 0 81 -37 81 -81c0 -45 -36 -82 -81 -82c-44 0 -81 37 -81 82zM217 586c0 44 37 81 81 81c45 0 81 -37 81 -81c0 -45 -36 -82 -81 -82c-44 0 -81 37 -81 82z" />
    <glyph glyph-name="aring" unicode="&#xe5;" horiz-adv-x="413" 
d="M379 0h-133v38h-2c-8 -27 -35 -40 -70 -40h-36c-65 0 -104 37 -104 102v89c0 67 34 101 101 101h39c36 0 62 -13 70 -38h2l-2 38v52c0 2 -1 3 -3 3h-173v125h210c65 0 101 -36 101 -101v-369zM241 200h-69c-2 0 -3 -1 -3 -3v-79c0 -2 1 -3 3 -3h69c2 0 3 1 3 3v79
c0 2 -1 3 -3 3zM98 606c0 29 11 54 32 75c22 21 48 32 77 32s54 -11 75 -32s32 -46 32 -75c0 -61 -46 -109 -107 -109s-109 48 -109 109zM243 606c0 19 -17 35 -36 35s-35 -16 -35 -35s16 -36 35 -36s36 17 36 36z" />
    <glyph glyph-name="amacron" unicode="&#x101;" horiz-adv-x="413" 
d="M379 0h-133v38h-2c-8 -27 -35 -40 -70 -40h-36c-65 0 -104 37 -104 102v89c0 67 34 101 101 101h39c36 0 62 -13 70 -38h2l-2 38v52c0 2 -1 3 -3 3h-173v125h210c65 0 101 -36 101 -101v-369zM241 200h-69c-2 0 -3 -1 -3 -3v-79c0 -2 1 -3 3 -3h69c2 0 3 1 3 3v79
c0 2 -1 3 -3 3zM345 541h-278v86h278v-86z" />
    <glyph glyph-name="abreve" unicode="&#x103;" horiz-adv-x="413" 
d="M379 0h-133v38h-2c-8 -27 -35 -40 -70 -40h-36c-65 0 -104 37 -104 102v89c0 67 34 101 101 101h39c36 0 62 -13 70 -38h2l-2 38v52c0 2 -1 3 -3 3h-173v125h210c65 0 101 -36 101 -101v-369zM241 200h-69c-2 0 -3 -1 -3 -3v-79c0 -2 1 -3 3 -3h69c2 0 3 1 3 3v79
c0 2 -1 3 -3 3zM206 520c-64 0 -121 26 -165 74l63 57c29 -30 63 -45 102 -45s73 15 102 45l63 -57c-44 -48 -101 -74 -165 -74z" />
    <glyph glyph-name="aogonek" unicode="&#x105;" horiz-adv-x="413" 
d="M379 0l-29 -58l-1 -4c0 -1 1 -2 2 -2h28v-86h-34c-47 0 -81 34 -81 81c0 14 3 27 10 39l15 30h-43v38h-2c-8 -27 -35 -40 -70 -40h-36c-65 0 -104 37 -104 102v89c0 67 34 101 101 101h39c36 0 62 -13 70 -38h2l-2 38v52c0 2 -1 3 -3 3h-173v125h210
c65 0 101 -36 101 -101v-369zM244 118v79c0 2 -1 3 -3 3h-69c-2 0 -3 -1 -3 -3v-79c0 -2 1 -3 3 -3h69c2 0 3 1 3 3z" />
    <glyph glyph-name="a.2" horiz-adv-x="423" 
d="M251 0v38h-2c-8 -25 -34 -40 -65 -40h-47c-57 0 -98 39 -98 96v100c0 63 37 96 96 96h49c29 0 57 -13 65 -38h2l-2 38v62c0 2 -1 3 -3 3h-64c-2 0 -3 -1 -3 -3v-32h-135v56c0 59 39 96 96 96h148c59 0 96 -37 96 -96v-376h-133zM246 200h-69c-2 0 -3 -1 -3 -3v-79
c0 -2 1 -3 3 -3h69c2 0 3 1 3 3v79c0 2 -1 3 -3 3z" />
    <glyph glyph-name="agrave.2" horiz-adv-x="423" 
d="M251 0v38h-2c-8 -25 -34 -40 -65 -40h-47c-57 0 -98 39 -98 96v100c0 63 37 96 96 96h49c29 0 57 -13 65 -38h2l-2 38v62c0 2 -1 3 -3 3h-64c-2 0 -3 -1 -3 -3v-32h-135v56c0 59 39 96 96 96h148c59 0 96 -37 96 -96v-376h-133zM246 200h-69c-2 0 -3 -1 -3 -3v-79
c0 -2 1 -3 3 -3h69c2 0 3 1 3 3v79c0 2 -1 3 -3 3zM61 648h157l74 -125h-107z" />
    <glyph glyph-name="aacute.2" horiz-adv-x="423" 
d="M251 0v38h-2c-8 -25 -34 -40 -65 -40h-47c-57 0 -98 39 -98 96v100c0 63 37 96 96 96h49c29 0 57 -13 65 -38h2l-2 38v62c0 2 -1 3 -3 3h-64c-2 0 -3 -1 -3 -3v-32h-135v56c0 59 39 96 96 96h148c59 0 96 -37 96 -96v-376h-133zM246 200h-69c-2 0 -3 -1 -3 -3v-79
c0 -2 1 -3 3 -3h69c2 0 3 1 3 3v79c0 2 -1 3 -3 3zM361 648l-124 -125h-107l74 125h157z" />
    <glyph glyph-name="acircumflex.2" horiz-adv-x="423" 
d="M251 0v38h-2c-8 -25 -34 -40 -65 -40h-47c-57 0 -98 39 -98 96v100c0 63 37 96 96 96h49c29 0 57 -13 65 -38h2l-2 38v62c0 2 -1 3 -3 3h-64c-2 0 -3 -1 -3 -3v-32h-135v56c0 59 39 96 96 96h148c59 0 96 -37 96 -96v-376h-133zM246 200h-69c-2 0 -3 -1 -3 -3v-79
c0 -2 1 -3 3 -3h69c2 0 3 1 3 3v79c0 2 -1 3 -3 3zM337 523h-77l-49 59l-49 -59h-77l54 125h144z" />
    <glyph glyph-name="atilde.2" horiz-adv-x="423" 
d="M251 0v38h-2c-8 -25 -34 -40 -65 -40h-47c-57 0 -98 39 -98 96v100c0 63 37 96 96 96h49c29 0 57 -13 65 -38h2l-2 38v62c0 2 -1 3 -3 3h-64c-2 0 -3 -1 -3 -3v-32h-135v56c0 59 39 96 96 96h148c59 0 96 -37 96 -96v-376h-133zM246 200h-69c-2 0 -3 -1 -3 -3v-79
c0 -2 1 -3 3 -3h69c2 0 3 1 3 3v79c0 2 -1 3 -3 3zM61 576l60 60c15 15 34 23 56 23c21 0 39 -8 56 -23l32 -31c1 -1 3 -1 4 0l43 43l51 -52l-60 -60c-15 -15 -34 -23 -56 -23c-21 0 -39 8 -56 23l-32 31c-1 1 -3 1 -4 0l-43 -43z" />
    <glyph glyph-name="adieresis.2" horiz-adv-x="423" 
d="M251 0v38h-2c-8 -25 -34 -40 -65 -40h-47c-57 0 -98 39 -98 96v100c0 63 37 96 96 96h49c29 0 57 -13 65 -38h2l-2 38v62c0 2 -1 3 -3 3h-64c-2 0 -3 -1 -3 -3v-32h-135v56c0 59 39 96 96 96h148c59 0 96 -37 96 -96v-376h-133zM246 200h-69c-2 0 -3 -1 -3 -3v-79
c0 -2 1 -3 3 -3h69c2 0 3 1 3 3v79c0 2 -1 3 -3 3zM39 586c0 44 37 81 81 81c45 0 81 -37 81 -81c0 -45 -36 -82 -81 -82c-44 0 -81 37 -81 82zM222 586c0 44 37 81 81 81c45 0 81 -37 81 -81c0 -45 -36 -82 -81 -82c-44 0 -81 37 -81 82z" />
    <glyph glyph-name="aring.2" horiz-adv-x="423" 
d="M251 0v38h-2c-8 -25 -34 -40 -65 -40h-47c-57 0 -98 39 -98 96v100c0 63 37 96 96 96h49c29 0 57 -13 65 -38h2l-2 38v62c0 2 -1 3 -3 3h-64c-2 0 -3 -1 -3 -3v-32h-135v56c0 59 39 96 96 96h148c59 0 96 -37 96 -96v-376h-133zM246 200h-69c-2 0 -3 -1 -3 -3v-79
c0 -2 1 -3 3 -3h69c2 0 3 1 3 3v79c0 2 -1 3 -3 3zM103 606c0 29 11 54 32 75c22 21 48 32 77 32s54 -11 75 -32s32 -46 32 -75c0 -61 -46 -109 -107 -109s-109 48 -109 109zM248 606c0 19 -17 35 -36 35s-35 -16 -35 -35s16 -36 35 -36s36 17 36 36z" />
    <glyph glyph-name="amacron.2" horiz-adv-x="423" 
d="M251 0v38h-2c-8 -25 -34 -40 -65 -40h-47c-57 0 -98 39 -98 96v100c0 63 37 96 96 96h49c29 0 57 -13 65 -38h2l-2 38v62c0 2 -1 3 -3 3h-64c-2 0 -3 -1 -3 -3v-32h-135v56c0 59 39 96 96 96h148c59 0 96 -37 96 -96v-376h-133zM246 200h-69c-2 0 -3 -1 -3 -3v-79
c0 -2 1 -3 3 -3h69c2 0 3 1 3 3v79c0 2 -1 3 -3 3zM350 541h-278v86h278v-86z" />
    <glyph glyph-name="abreve.2" horiz-adv-x="423" 
d="M251 0v38h-2c-8 -25 -34 -40 -65 -40h-47c-57 0 -98 39 -98 96v100c0 63 37 96 96 96h49c29 0 57 -13 65 -38h2l-2 38v62c0 2 -1 3 -3 3h-64c-2 0 -3 -1 -3 -3v-32h-135v56c0 59 39 96 96 96h148c59 0 96 -37 96 -96v-376h-133zM246 200h-69c-2 0 -3 -1 -3 -3v-79
c0 -2 1 -3 3 -3h69c2 0 3 1 3 3v79c0 2 -1 3 -3 3zM211 520c-64 0 -121 26 -165 74l63 57c29 -30 63 -45 102 -45s73 15 102 45l63 -57c-44 -48 -101 -74 -165 -74z" />
    <glyph glyph-name="aogonek.2" horiz-adv-x="423" 
d="M384 0l-29 -58l-1 -4c0 -1 1 -2 2 -2h28v-86h-34c-47 0 -81 34 -81 81c0 14 3 27 10 39l15 30h-43v38h-2c-8 -25 -34 -40 -65 -40h-47c-57 0 -98 39 -98 96v100c0 63 37 96 96 96h49c29 0 57 -13 65 -38h2l-2 38v62c0 2 -1 3 -3 3h-64c-2 0 -3 -1 -3 -3v-32h-135v56
c0 59 39 96 96 96h148c59 0 96 -37 96 -96v-376zM249 118v79c0 2 -1 3 -3 3h-69c-2 0 -3 -1 -3 -3v-79c0 -2 1 -3 3 -3h69c2 0 3 1 3 3z" />
    <glyph glyph-name="a.3" horiz-adv-x="423" 
d="M251 0v46h-2c-9 -31 -41 -48 -78 -48h-36c-57 0 -96 39 -96 96v282c0 57 39 96 96 96h36c37 0 69 -17 78 -48h2v46h133v-470h-133zM177 125h69c2 0 3 1 3 3v214c0 2 -1 3 -3 3h-69c-2 0 -3 -1 -3 -3v-214c0 -2 1 -3 3 -3z" />
    <glyph glyph-name="agrave.3" horiz-adv-x="423" 
d="M251 0v46h-2c-9 -31 -41 -48 -78 -48h-36c-57 0 -96 39 -96 96v282c0 57 39 96 96 96h36c37 0 69 -17 78 -48h2v46h133v-470h-133zM177 125h69c2 0 3 1 3 3v214c0 2 -1 3 -3 3h-69c-2 0 -3 -1 -3 -3v-214c0 -2 1 -3 3 -3zM61 648h157l74 -125h-107z" />
    <glyph glyph-name="aacute.3" horiz-adv-x="423" 
d="M251 0v46h-2c-9 -31 -41 -48 -78 -48h-36c-57 0 -96 39 -96 96v282c0 57 39 96 96 96h36c37 0 69 -17 78 -48h2v46h133v-470h-133zM177 125h69c2 0 3 1 3 3v214c0 2 -1 3 -3 3h-69c-2 0 -3 -1 -3 -3v-214c0 -2 1 -3 3 -3zM361 648l-124 -125h-107l74 125h157z" />
    <glyph glyph-name="acircumflex.3" horiz-adv-x="423" 
d="M251 0v46h-2c-9 -31 -41 -48 -78 -48h-36c-57 0 -96 39 -96 96v282c0 57 39 96 96 96h36c37 0 69 -17 78 -48h2v46h133v-470h-133zM177 125h69c2 0 3 1 3 3v214c0 2 -1 3 -3 3h-69c-2 0 -3 -1 -3 -3v-214c0 -2 1 -3 3 -3zM337 523h-77l-49 59l-49 -59h-77l54 125h144z
" />
    <glyph glyph-name="atilde.3" horiz-adv-x="423" 
d="M251 0v46h-2c-9 -31 -41 -48 -78 -48h-36c-57 0 -96 39 -96 96v282c0 57 39 96 96 96h36c37 0 69 -17 78 -48h2v46h133v-470h-133zM177 125h69c2 0 3 1 3 3v214c0 2 -1 3 -3 3h-69c-2 0 -3 -1 -3 -3v-214c0 -2 1 -3 3 -3zM61 576l60 60c15 15 34 23 56 23
c21 0 39 -8 56 -23l32 -31c1 -1 3 -1 4 0l43 43l51 -52l-60 -60c-15 -15 -34 -23 -56 -23c-21 0 -39 8 -56 23l-32 31c-1 1 -3 1 -4 0l-43 -43z" />
    <glyph glyph-name="adieresis.3" horiz-adv-x="423" 
d="M251 0v46h-2c-9 -31 -41 -48 -78 -48h-36c-57 0 -96 39 -96 96v282c0 57 39 96 96 96h36c37 0 69 -17 78 -48h2v46h133v-470h-133zM177 125h69c2 0 3 1 3 3v214c0 2 -1 3 -3 3h-69c-2 0 -3 -1 -3 -3v-214c0 -2 1 -3 3 -3zM39 586c0 44 37 81 81 81c45 0 81 -37 81 -81
c0 -45 -36 -82 -81 -82c-44 0 -81 37 -81 82zM222 586c0 44 37 81 81 81c45 0 81 -37 81 -81c0 -45 -36 -82 -81 -82c-44 0 -81 37 -81 82z" />
    <glyph glyph-name="aring.3" horiz-adv-x="423" 
d="M251 0v46h-2c-9 -31 -41 -48 -78 -48h-36c-57 0 -96 39 -96 96v282c0 57 39 96 96 96h36c37 0 69 -17 78 -48h2v46h133v-470h-133zM177 125h69c2 0 3 1 3 3v214c0 2 -1 3 -3 3h-69c-2 0 -3 -1 -3 -3v-214c0 -2 1 -3 3 -3zM103 606c0 29 11 54 32 75c22 21 48 32 77 32
s54 -11 75 -32s32 -46 32 -75c0 -61 -46 -109 -107 -109s-109 48 -109 109zM248 606c0 19 -17 35 -36 35s-35 -16 -35 -35s16 -36 35 -36s36 17 36 36z" />
    <glyph glyph-name="amacron.3" horiz-adv-x="423" 
d="M251 0v46h-2c-9 -31 -41 -48 -78 -48h-36c-57 0 -96 39 -96 96v282c0 57 39 96 96 96h36c37 0 69 -17 78 -48h2v46h133v-470h-133zM177 125h69c2 0 3 1 3 3v214c0 2 -1 3 -3 3h-69c-2 0 -3 -1 -3 -3v-214c0 -2 1 -3 3 -3zM350 541h-278v86h278v-86z" />
    <glyph glyph-name="abreve.3" horiz-adv-x="423" 
d="M251 0v46h-2c-9 -31 -41 -48 -78 -48h-36c-57 0 -96 39 -96 96v282c0 57 39 96 96 96h36c37 0 69 -17 78 -48h2v46h133v-470h-133zM177 125h69c2 0 3 1 3 3v214c0 2 -1 3 -3 3h-69c-2 0 -3 -1 -3 -3v-214c0 -2 1 -3 3 -3zM211 520c-64 0 -121 26 -165 74l63 57
c29 -30 63 -45 102 -45s73 15 102 45l63 -57c-44 -48 -101 -74 -165 -74z" />
    <glyph glyph-name="aogonek.3" horiz-adv-x="423" 
d="M384 0l-29 -58l-1 -4c0 -1 1 -2 2 -2h28v-86h-34c-47 0 -81 34 -81 81c0 14 3 27 10 39l15 30h-43v46h-2c-9 -31 -41 -48 -78 -48h-36c-57 0 -96 39 -96 96v282c0 57 39 96 96 96h36c37 0 69 -17 78 -48h2v46h133v-470zM249 128v214c0 2 -1 3 -3 3h-69c-2 0 -3 -1 -3 -3
v-214c0 -2 1 -3 3 -3h69c2 0 3 1 3 3z" />
    <glyph glyph-name="ae" unicode="&#xe6;" horiz-adv-x="622" 
d="M551 0h-178c-36 0 -58 13 -65 38h-2c-8 -27 -30 -40 -65 -40h-114c-57 0 -98 39 -98 96v100c0 63 37 96 96 96h49c29 0 57 -13 65 -38h2l-2 38v52c0 2 -1 3 -3 3h-173v125h178c36 0 58 -13 65 -38h2c8 27 30 40 65 40h115c57 0 96 -38 96 -95v-197h-210v-52
c0 -2 1 -3 3 -3h174v-125zM449 270v82c0 2 -1 3 -3 3h-69c-2 0 -3 -1 -3 -3v-82h75zM236 200h-69c-2 0 -3 -1 -3 -3v-79c0 -2 1 -3 3 -3h69c2 0 3 1 3 3v79c0 2 -1 3 -3 3z" />
    <glyph glyph-name="aeacute" unicode="&#x1fd;" horiz-adv-x="622" 
d="M551 0h-178c-36 0 -58 13 -65 38h-2c-8 -27 -30 -40 -65 -40h-114c-57 0 -98 39 -98 96v100c0 63 37 96 96 96h49c29 0 57 -13 65 -38h2l-2 38v52c0 2 -1 3 -3 3h-173v125h178c36 0 58 -13 65 -38h2c8 27 30 40 65 40h115c57 0 96 -38 96 -95v-197h-210v-52
c0 -2 1 -3 3 -3h174v-125zM449 270v82c0 2 -1 3 -3 3h-69c-2 0 -3 -1 -3 -3v-82h75zM236 200h-69c-2 0 -3 -1 -3 -3v-79c0 -2 1 -3 3 -3h69c2 0 3 1 3 3v79c0 2 -1 3 -3 3zM456 648l-124 -125h-107l74 125h157z" />
    <glyph glyph-name="ae.2" horiz-adv-x="633" 
d="M504 -2h-121c-35 0 -57 13 -65 40h-2c-8 -27 -30 -40 -65 -40h-120c-49 0 -92 43 -92 92v110c0 55 39 90 90 90h61c25 0 54 -14 59 -38h2l-2 38v62c0 2 -1 3 -3 3h-64c-2 0 -3 -1 -3 -3v-32h-135v60c0 51 41 92 90 92h117c35 0 57 -13 65 -40h2c8 27 30 40 65 40h121
c49 0 90 -41 90 -92v-190h-210v-72c0 -2 1 -3 3 -3h69c2 0 3 1 3 3v37h135v-65c0 -51 -41 -92 -90 -92zM459 270v82c0 2 -1 3 -3 3h-69c-2 0 -3 -1 -3 -3v-82h75zM246 200h-69c-2 0 -3 -1 -3 -3v-79c0 -2 1 -3 3 -3h69c2 0 3 1 3 3v79c0 2 -1 3 -3 3z" />
    <glyph glyph-name="aeacute.2" horiz-adv-x="633" 
d="M504 -2h-121c-35 0 -57 13 -65 40h-2c-8 -27 -30 -40 -65 -40h-120c-49 0 -92 43 -92 92v110c0 55 39 90 90 90h61c25 0 54 -14 59 -38h2l-2 38v62c0 2 -1 3 -3 3h-64c-2 0 -3 -1 -3 -3v-32h-135v60c0 51 41 92 90 92h117c35 0 57 -13 65 -40h2c8 27 30 40 65 40h121
c49 0 90 -41 90 -92v-190h-210v-72c0 -2 1 -3 3 -3h69c2 0 3 1 3 3v37h135v-65c0 -51 -41 -92 -90 -92zM459 270v82c0 2 -1 3 -3 3h-69c-2 0 -3 -1 -3 -3v-82h75zM246 200h-69c-2 0 -3 -1 -3 -3v-79c0 -2 1 -3 3 -3h69c2 0 3 1 3 3v79c0 2 -1 3 -3 3zM466 648l-124 -125
h-107l74 125h157z" />
    <glyph glyph-name="ae.3" horiz-adv-x="633" 
d="M561 0h-99c-37 0 -67 15 -78 46h-2v-46h-131v46h-2c-7 -29 -41 -48 -78 -48h-36c-57 0 -96 39 -96 96v282c0 57 39 96 96 96h36c37 0 71 -19 78 -48h2v46h131v-46h2c11 31 41 48 78 48h36c59 0 96 -37 96 -96v-196h-210v-52c0 -2 1 -3 3 -3h174v-125zM459 270v82
c0 2 -1 3 -3 3h-69c-2 0 -3 -1 -3 -3v-82h75zM249 128v214c0 2 -1 3 -3 3h-69c-2 0 -3 -1 -3 -3v-214c0 -2 1 -3 3 -3h69c2 0 3 1 3 3z" />
    <glyph glyph-name="aeacute.3" horiz-adv-x="633" 
d="M561 0h-99c-37 0 -67 15 -78 46h-2v-46h-131v46h-2c-7 -29 -41 -48 -78 -48h-36c-57 0 -96 39 -96 96v282c0 57 39 96 96 96h36c37 0 71 -19 78 -48h2v46h131v-46h2c11 31 41 48 78 48h36c59 0 96 -37 96 -96v-196h-210v-52c0 -2 1 -3 3 -3h174v-125zM459 270v82
c0 2 -1 3 -3 3h-69c-2 0 -3 -1 -3 -3v-82h75zM249 128v214c0 2 -1 3 -3 3h-69c-2 0 -3 -1 -3 -3v-214c0 -2 1 -3 3 -3h69c2 0 3 1 3 3zM466 648l-124 -125h-107l74 125h157z" />
    <glyph glyph-name="ae.4" horiz-adv-x="633" 
d="M498 -2h-37c-37 0 -66 17 -77 48h-2v-46h-131v46h-2c-7 -29 -41 -48 -78 -48h-36c-57 0 -96 39 -96 96v282c0 57 39 96 96 96h36c37 0 71 -19 78 -48h2v46h131v-46h2c11 31 41 48 78 48h36c59 0 96 -37 96 -96v-186h-210v-72c0 -2 1 -3 3 -3h69c2 0 3 1 3 3v37h135v-61
c0 -59 -39 -96 -96 -96zM459 270v82c0 2 -1 3 -3 3h-69c-2 0 -3 -1 -3 -3v-82h75zM249 128v214c0 2 -1 3 -3 3h-69c-2 0 -3 -1 -3 -3v-214c0 -2 1 -3 3 -3h69c2 0 3 1 3 3z" />
    <glyph glyph-name="aeacute.4" horiz-adv-x="633" 
d="M498 -2h-37c-37 0 -66 17 -77 48h-2v-46h-131v46h-2c-7 -29 -41 -48 -78 -48h-36c-57 0 -96 39 -96 96v282c0 57 39 96 96 96h36c37 0 71 -19 78 -48h2v46h131v-46h2c11 31 41 48 78 48h36c59 0 96 -37 96 -96v-186h-210v-72c0 -2 1 -3 3 -3h69c2 0 3 1 3 3v37h135v-61
c0 -59 -39 -96 -96 -96zM459 270v82c0 2 -1 3 -3 3h-69c-2 0 -3 -1 -3 -3v-82h75zM249 128v214c0 2 -1 3 -3 3h-69c-2 0 -3 -1 -3 -3v-214c0 -2 1 -3 3 -3h69c2 0 3 1 3 3zM466 648l-124 -125h-107l74 125h157z" />
    <glyph glyph-name="b" unicode="b" horiz-adv-x="422" 
d="M172 0h-133v700h135v-230l-2 -46h2c7 29 41 48 78 48h36c57 0 96 -39 96 -96v-282c0 -57 -39 -96 -96 -96h-36c-37 0 -71 19 -78 48h-2v-46zM249 128v214c0 2 -1 3 -3 3h-69c-2 0 -3 -1 -3 -3v-214c0 -2 1 -3 3 -3h69c2 0 3 1 3 3z" />
    <glyph glyph-name="c" unicode="c" horiz-adv-x="422" 
d="M288 -2h-153c-59 0 -96 39 -96 96v282c0 57 37 96 96 96h153c57 0 96 -39 96 -96v-108h-135v74c0 2 -1 3 -3 3h-69c-2 0 -3 -1 -3 -3v-214c0 -2 1 -3 3 -3h69c2 0 3 1 3 3v74h135v-108c0 -57 -39 -96 -96 -96z" />
    <glyph glyph-name="ccedilla" unicode="&#xe7;" horiz-adv-x="422" 
d="M384 268h-135v74c0 2 -1 3 -3 3h-69c-2 0 -3 -1 -3 -3v-214c0 -2 1 -3 3 -3h69c2 0 3 1 3 3v74h135v-108c0 -57 -39 -96 -96 -96h-52v-23h28c19 0 33 -15 33 -34v-28c0 -35 -28 -63 -61 -63h-111v86h86v28h-61v34h-15c-59 0 -96 39 -96 96v282c0 57 37 96 96 96h153
c57 0 96 -39 96 -96v-108z" />
    <glyph glyph-name="cacute" unicode="&#x107;" horiz-adv-x="422" 
d="M288 -2h-153c-59 0 -96 39 -96 96v282c0 57 37 96 96 96h153c57 0 96 -39 96 -96v-108h-135v74c0 2 -1 3 -3 3h-69c-2 0 -3 -1 -3 -3v-214c0 -2 1 -3 3 -3h69c2 0 3 1 3 3v74h135v-108c0 -57 -39 -96 -96 -96zM361 648l-124 -125h-107l74 125h157z" />
    <glyph glyph-name="ccircumflex" unicode="&#x109;" horiz-adv-x="422" 
d="M288 -2h-153c-59 0 -96 39 -96 96v282c0 57 37 96 96 96h153c57 0 96 -39 96 -96v-108h-135v74c0 2 -1 3 -3 3h-69c-2 0 -3 -1 -3 -3v-214c0 -2 1 -3 3 -3h69c2 0 3 1 3 3v74h135v-108c0 -57 -39 -96 -96 -96zM337 523h-77l-49 59l-49 -59h-77l54 125h144z" />
    <glyph glyph-name="cdotaccent" unicode="&#x10b;" horiz-adv-x="422" 
d="M288 -2h-153c-59 0 -96 39 -96 96v282c0 57 37 96 96 96h153c57 0 96 -39 96 -96v-108h-135v74c0 2 -1 3 -3 3h-69c-2 0 -3 -1 -3 -3v-214c0 -2 1 -3 3 -3h69c2 0 3 1 3 3v74h135v-108c0 -57 -39 -96 -96 -96zM130 586c0 44 37 81 81 81c45 0 81 -37 81 -81
c0 -45 -36 -82 -81 -82c-44 0 -81 37 -81 82z" />
    <glyph glyph-name="ccaron" unicode="&#x10d;" horiz-adv-x="422" 
d="M288 -2h-153c-59 0 -96 39 -96 96v282c0 57 37 96 96 96h153c57 0 96 -39 96 -96v-108h-135v74c0 2 -1 3 -3 3h-69c-2 0 -3 -1 -3 -3v-214c0 -2 1 -3 3 -3h69c2 0 3 1 3 3v74h135v-108c0 -57 -39 -96 -96 -96zM260 645h77l-54 -125h-144l-54 125h77l49 -59z" />
    <glyph glyph-name="c.2" horiz-adv-x="366" 
d="M39 96v278c0 59 39 96 96 96h205v-125h-163c-2 0 -3 -1 -3 -3v-214c0 -2 1 -3 3 -3h163v-125h-205c-57 0 -96 39 -96 96z" />
    <glyph glyph-name="ccedilla.2" horiz-adv-x="366" 
d="M174 342v-214c0 -2 1 -3 3 -3h163v-125h-106v-25h28c19 0 33 -15 33 -34v-28c0 -35 -28 -63 -61 -63h-111v86h86v28h-61v36h-13c-57 0 -96 39 -96 96v278c0 59 39 96 96 96h205v-125h-163c-2 0 -3 -1 -3 -3z" />
    <glyph glyph-name="cacute.2" horiz-adv-x="366" 
d="M39 96v278c0 59 39 96 96 96h205v-125h-163c-2 0 -3 -1 -3 -3v-214c0 -2 1 -3 3 -3h163v-125h-205c-57 0 -96 39 -96 96zM359 648l-124 -125h-107l74 125h157z" />
    <glyph glyph-name="ccircumflex.2" horiz-adv-x="366" 
d="M39 96v278c0 59 39 96 96 96h205v-125h-163c-2 0 -3 -1 -3 -3v-214c0 -2 1 -3 3 -3h163v-125h-205c-57 0 -96 39 -96 96zM335 523h-77l-49 59l-49 -59h-77l54 125h144z" />
    <glyph glyph-name="cdotaccent.2" horiz-adv-x="366" 
d="M39 96v278c0 59 39 96 96 96h205v-125h-163c-2 0 -3 -1 -3 -3v-214c0 -2 1 -3 3 -3h163v-125h-205c-57 0 -96 39 -96 96zM128 586c0 44 37 81 81 81c45 0 81 -37 81 -81c0 -45 -36 -82 -81 -82c-44 0 -81 37 -81 82z" />
    <glyph glyph-name="ccaron.2" horiz-adv-x="366" 
d="M39 96v278c0 59 39 96 96 96h205v-125h-163c-2 0 -3 -1 -3 -3v-214c0 -2 1 -3 3 -3h163v-125h-205c-57 0 -96 39 -96 96zM258 645h77l-54 -125h-144l-54 125h77l49 -59z" />
    <glyph glyph-name="d" unicode="d" horiz-adv-x="422" 
d="M384 0h-133v46h-2c-7 -29 -41 -48 -78 -48h-36c-56 0 -96 38 -96 90v294c0 52 40 90 96 90h36c37 0 71 -19 78 -48h2l-2 46v230h135v-700zM249 128v214c0 2 -1 3 -3 3h-69c-2 0 -3 -1 -3 -3v-214c0 -2 1 -3 3 -3h69c2 0 3 1 3 3z" />
    <glyph glyph-name="dcaron" unicode="&#x10f;" horiz-adv-x="422" 
d="M384 0h-133v46h-2c-7 -29 -41 -48 -78 -48h-36c-56 0 -96 38 -96 90v294c0 52 40 90 96 90h36c37 0 71 -19 78 -48h2l-2 46v230h135v-700zM249 128v214c0 2 -1 3 -3 3h-69c-2 0 -3 -1 -3 -3v-214c0 -2 1 -3 3 -3h69c2 0 3 1 3 3zM414 700h119l-62 -210h-57v210z" />
    <glyph glyph-name="dslash" unicode="&#x111;" horiz-adv-x="422" 
d="M422 608v-86h-38v-522h-133v46h-2c-7 -29 -41 -48 -78 -48h-36c-56 0 -96 38 -96 90v294c0 52 40 90 96 90h36c37 0 71 -19 78 -48h2l-2 46v52h-105v86h105v92h135v-92h38zM249 128v214c0 2 -1 3 -3 3h-69c-2 0 -3 -1 -3 -3v-214c0 -2 1 -3 3 -3h69c2 0 3 1 3 3z" />
    <glyph glyph-name="e" unicode="e" horiz-adv-x="422" 
d="M384 180h-210v-52c0 -2 1 -3 3 -3h174v-125h-216c-59 0 -96 39 -96 96v280c0 57 37 96 96 96h153c57 0 96 -39 96 -96v-196zM249 270v82c0 2 -1 3 -3 3h-69c-2 0 -3 -1 -3 -3v-82h75z" />
    <glyph glyph-name="egrave" unicode="&#xe8;" horiz-adv-x="422" 
d="M384 180h-210v-52c0 -2 1 -3 3 -3h174v-125h-216c-59 0 -96 39 -96 96v280c0 57 37 96 96 96h153c57 0 96 -39 96 -96v-196zM249 270v82c0 2 -1 3 -3 3h-69c-2 0 -3 -1 -3 -3v-82h75zM61 648h157l74 -125h-107z" />
    <glyph glyph-name="eacute" unicode="&#xe9;" horiz-adv-x="422" 
d="M384 180h-210v-52c0 -2 1 -3 3 -3h174v-125h-216c-59 0 -96 39 -96 96v280c0 57 37 96 96 96h153c57 0 96 -39 96 -96v-196zM249 270v82c0 2 -1 3 -3 3h-69c-2 0 -3 -1 -3 -3v-82h75zM361 648l-124 -125h-107l74 125h157z" />
    <glyph glyph-name="ecircumflex" unicode="&#xea;" horiz-adv-x="422" 
d="M384 180h-210v-52c0 -2 1 -3 3 -3h174v-125h-216c-59 0 -96 39 -96 96v280c0 57 37 96 96 96h153c57 0 96 -39 96 -96v-196zM249 270v82c0 2 -1 3 -3 3h-69c-2 0 -3 -1 -3 -3v-82h75zM337 523h-77l-49 59l-49 -59h-77l54 125h144z" />
    <glyph glyph-name="edieresis" unicode="&#xeb;" horiz-adv-x="422" 
d="M384 180h-210v-52c0 -2 1 -3 3 -3h174v-125h-216c-59 0 -96 39 -96 96v280c0 57 37 96 96 96h153c57 0 96 -39 96 -96v-196zM249 270v82c0 2 -1 3 -3 3h-69c-2 0 -3 -1 -3 -3v-82h75zM39 586c0 44 37 81 81 81c45 0 81 -37 81 -81c0 -45 -36 -82 -81 -82
c-44 0 -81 37 -81 82zM222 586c0 44 37 81 81 81c45 0 81 -37 81 -81c0 -45 -36 -82 -81 -82c-44 0 -81 37 -81 82z" />
    <glyph glyph-name="emacron" unicode="&#x113;" horiz-adv-x="422" 
d="M384 180h-210v-52c0 -2 1 -3 3 -3h174v-125h-216c-59 0 -96 39 -96 96v280c0 57 37 96 96 96h153c57 0 96 -39 96 -96v-196zM249 270v82c0 2 -1 3 -3 3h-69c-2 0 -3 -1 -3 -3v-82h75zM350 541h-278v86h278v-86z" />
    <glyph glyph-name="ebreve" unicode="&#x115;" horiz-adv-x="422" 
d="M384 180h-210v-52c0 -2 1 -3 3 -3h174v-125h-216c-59 0 -96 39 -96 96v280c0 57 37 96 96 96h153c57 0 96 -39 96 -96v-196zM249 270v82c0 2 -1 3 -3 3h-69c-2 0 -3 -1 -3 -3v-82h75zM211 520c-64 0 -121 26 -165 74l63 57c29 -30 63 -45 102 -45s73 15 102 45l63 -57
c-44 -48 -101 -74 -165 -74z" />
    <glyph glyph-name="edotaccent" unicode="&#x117;" horiz-adv-x="422" 
d="M384 180h-210v-52c0 -2 1 -3 3 -3h174v-125h-216c-59 0 -96 39 -96 96v280c0 57 37 96 96 96h153c57 0 96 -39 96 -96v-196zM249 270v82c0 2 -1 3 -3 3h-69c-2 0 -3 -1 -3 -3v-82h75zM130 586c0 44 37 81 81 81c45 0 81 -37 81 -81c0 -45 -36 -82 -81 -82
c-44 0 -81 37 -81 82z" />
    <glyph glyph-name="eogonek" unicode="&#x119;" horiz-adv-x="422" 
d="M384 180h-210v-52c0 -2 1 -3 3 -3h174v-125l-29 -58l-1 -4c0 -1 1 -2 2 -2h28v-86h-34c-47 0 -81 34 -81 81c0 14 3 27 10 39l15 30h-126c-59 0 -96 39 -96 96v280c0 57 37 96 96 96h153c57 0 96 -39 96 -96v-196zM174 352v-82h75v82c0 2 -1 3 -3 3h-69c-2 0 -3 -1 -3 -3
z" />
    <glyph glyph-name="ecaron" unicode="&#x11b;" horiz-adv-x="422" 
d="M384 180h-210v-52c0 -2 1 -3 3 -3h174v-125h-216c-59 0 -96 39 -96 96v280c0 57 37 96 96 96h153c57 0 96 -39 96 -96v-196zM249 270v82c0 2 -1 3 -3 3h-69c-2 0 -3 -1 -3 -3v-82h75zM260 645h77l-54 -125h-144l-54 125h77l49 -59z" />
    <glyph glyph-name="e.2" horiz-adv-x="423" 
d="M39 94v282c0 57 37 96 96 96h153c57 0 96 -39 96 -96v-186h-210v-72c0 -2 1 -3 3 -3h69c2 0 3 1 3 3v37h135v-61c0 -59 -39 -96 -96 -96h-153c-59 0 -96 39 -96 96zM249 270v82c0 2 -1 3 -3 3h-69c-2 0 -3 -1 -3 -3v-82h75z" />
    <glyph glyph-name="egrave.2" horiz-adv-x="423" 
d="M39 94v282c0 57 37 96 96 96h153c57 0 96 -39 96 -96v-186h-210v-72c0 -2 1 -3 3 -3h69c2 0 3 1 3 3v37h135v-61c0 -59 -39 -96 -96 -96h-153c-59 0 -96 39 -96 96zM249 270v82c0 2 -1 3 -3 3h-69c-2 0 -3 -1 -3 -3v-82h75zM61 648h157l74 -125h-107z" />
    <glyph glyph-name="eacute.2" horiz-adv-x="423" 
d="M39 94v282c0 57 37 96 96 96h153c57 0 96 -39 96 -96v-186h-210v-72c0 -2 1 -3 3 -3h69c2 0 3 1 3 3v37h135v-61c0 -59 -39 -96 -96 -96h-153c-59 0 -96 39 -96 96zM249 270v82c0 2 -1 3 -3 3h-69c-2 0 -3 -1 -3 -3v-82h75zM361 648l-124 -125h-107l74 125h157z" />
    <glyph glyph-name="ecircumflex.2" horiz-adv-x="423" 
d="M39 94v282c0 57 37 96 96 96h153c57 0 96 -39 96 -96v-186h-210v-72c0 -2 1 -3 3 -3h69c2 0 3 1 3 3v37h135v-61c0 -59 -39 -96 -96 -96h-153c-59 0 -96 39 -96 96zM249 270v82c0 2 -1 3 -3 3h-69c-2 0 -3 -1 -3 -3v-82h75zM337 523h-77l-49 59l-49 -59h-77l54 125h144z
" />
    <glyph glyph-name="edieresis.2" horiz-adv-x="423" 
d="M39 94v282c0 57 37 96 96 96h153c57 0 96 -39 96 -96v-186h-210v-72c0 -2 1 -3 3 -3h69c2 0 3 1 3 3v37h135v-61c0 -59 -39 -96 -96 -96h-153c-59 0 -96 39 -96 96zM249 270v82c0 2 -1 3 -3 3h-69c-2 0 -3 -1 -3 -3v-82h75zM39 586c0 44 37 81 81 81c45 0 81 -37 81 -81
c0 -45 -36 -82 -81 -82c-44 0 -81 37 -81 82zM222 586c0 44 37 81 81 81c45 0 81 -37 81 -81c0 -45 -36 -82 -81 -82c-44 0 -81 37 -81 82z" />
    <glyph glyph-name="emacron.2" horiz-adv-x="423" 
d="M39 94v282c0 57 37 96 96 96h153c57 0 96 -39 96 -96v-186h-210v-72c0 -2 1 -3 3 -3h69c2 0 3 1 3 3v37h135v-61c0 -59 -39 -96 -96 -96h-153c-59 0 -96 39 -96 96zM249 270v82c0 2 -1 3 -3 3h-69c-2 0 -3 -1 -3 -3v-82h75zM350 541h-278v86h278v-86z" />
    <glyph glyph-name="ebreve.2" horiz-adv-x="423" 
d="M39 94v282c0 57 37 96 96 96h153c57 0 96 -39 96 -96v-186h-210v-72c0 -2 1 -3 3 -3h69c2 0 3 1 3 3v37h135v-61c0 -59 -39 -96 -96 -96h-153c-59 0 -96 39 -96 96zM249 270v82c0 2 -1 3 -3 3h-69c-2 0 -3 -1 -3 -3v-82h75zM211 520c-64 0 -121 26 -165 74l63 57
c29 -30 63 -45 102 -45s73 15 102 45l63 -57c-44 -48 -101 -74 -165 -74z" />
    <glyph glyph-name="edotaccent.2" horiz-adv-x="423" 
d="M39 94v282c0 57 37 96 96 96h153c57 0 96 -39 96 -96v-186h-210v-72c0 -2 1 -3 3 -3h69c2 0 3 1 3 3v37h135v-61c0 -59 -39 -96 -96 -96h-153c-59 0 -96 39 -96 96zM249 270v82c0 2 -1 3 -3 3h-69c-2 0 -3 -1 -3 -3v-82h75zM130 586c0 44 37 81 81 81c45 0 81 -37 81 -81
c0 -45 -36 -82 -81 -82c-44 0 -81 37 -81 82z" />
    <glyph glyph-name="eogonek.2" horiz-adv-x="423" 
d="M384 190h-210v-72c0 -2 1 -3 3 -3h69c2 0 3 1 3 3v37h135v-61c0 -56 -36 -93 -91 -96l-28 -56l-1 -4c0 -1 1 -2 2 -2h28v-86h-34c-47 0 -81 34 -81 81c0 14 3 27 10 39l14 28h-68c-59 0 -96 39 -96 96v282c0 57 37 96 96 96h153c57 0 96 -39 96 -96v-186zM174 352v-82h75
v82c0 2 -1 3 -3 3h-69c-2 0 -3 -1 -3 -3z" />
    <glyph glyph-name="ecaron.2" horiz-adv-x="423" 
d="M39 94v282c0 57 37 96 96 96h153c57 0 96 -39 96 -96v-186h-210v-72c0 -2 1 -3 3 -3h69c2 0 3 1 3 3v37h135v-61c0 -59 -39 -96 -96 -96h-153c-59 0 -96 39 -96 96zM249 270v82c0 2 -1 3 -3 3h-69c-2 0 -3 -1 -3 -3v-82h75zM260 645h77l-54 -125h-144l-54 125h77l49 -59z
" />
    <glyph glyph-name="f" unicode="f" horiz-adv-x="318" 
d="M304 345h-90v-345h-135v345h-70v125h70v134c0 57 39 96 96 96h129v-125h-87c-2 0 -3 -1 -3 -3v-102h90v-125z" />
    <glyph glyph-name="f_j.2" horiz-adv-x="496" 
d="M458 -150h-135v495h-109v-345h-135v345h-70v125h70v134c0 57 39 96 96 96h114v-125h-72c-2 0 -3 -1 -3 -3v-102h244v-620zM309 586c0 44 37 81 81 81c45 0 81 -37 81 -81c0 -45 -36 -82 -81 -82c-44 0 -81 37 -81 82z" />
    <glyph glyph-name="f_k.2" horiz-adv-x="707" 
d="M458 293h2l85 177h141l-103 -179h2c45 0 83 -39 83 -94v-197h-135v187c0 2 -1 3 -3 3h-72v-190h-135v572c0 2 -1 3 -3 3h-103c-2 0 -3 -1 -3 -3v-102h80v-125h-80v-345h-135v345h-70v125h70v136c0 57 39 96 96 96h70c36 0 71 -19 78 -48h2v46h133v-407z" />
    <glyph glyph-name="f_t.2" horiz-adv-x="522" 
d="M308 470v140h135v-140h70v-125h-70v-345h-135v345h-94v-345h-135v345h-70v125h70v134c0 57 39 96 96 96h104v-125h-62c-2 0 -3 -1 -3 -3v-102h94z" />
    <glyph glyph-name="g" unicode="g" horiz-adv-x="422" 
d="M288 -150h-193v125h151c2 0 3 1 3 3v45l2 46h-2c-7 -29 -39 -46 -78 -46h-36c-57 0 -96 39 -96 96v257c0 57 39 96 96 96h36c37 0 71 -19 78 -48h2v46h133v-524c0 -56 -39 -96 -96 -96zM246 345h-69c-2 0 -3 -1 -3 -3v-191c0 -2 1 -3 3 -3h69c2 0 3 1 3 3v191
c0 2 -1 3 -3 3z" />
    <glyph glyph-name="gcircumflex" unicode="&#x11d;" horiz-adv-x="422" 
d="M288 -150h-193v125h151c2 0 3 1 3 3v45l2 46h-2c-7 -29 -39 -46 -78 -46h-36c-57 0 -96 39 -96 96v257c0 57 39 96 96 96h36c37 0 71 -19 78 -48h2v46h133v-524c0 -56 -39 -96 -96 -96zM246 345h-69c-2 0 -3 -1 -3 -3v-191c0 -2 1 -3 3 -3h69c2 0 3 1 3 3v191
c0 2 -1 3 -3 3zM337 523h-77l-49 59l-49 -59h-77l54 125h144z" />
    <glyph glyph-name="gbreve" unicode="&#x11f;" horiz-adv-x="422" 
d="M288 -150h-193v125h151c2 0 3 1 3 3v45l2 46h-2c-7 -29 -39 -46 -78 -46h-36c-57 0 -96 39 -96 96v257c0 57 39 96 96 96h36c37 0 71 -19 78 -48h2v46h133v-524c0 -56 -39 -96 -96 -96zM246 345h-69c-2 0 -3 -1 -3 -3v-191c0 -2 1 -3 3 -3h69c2 0 3 1 3 3v191
c0 2 -1 3 -3 3zM211 520c-64 0 -121 26 -165 74l63 57c29 -30 63 -45 102 -45s73 15 102 45l63 -57c-44 -48 -101 -74 -165 -74z" />
    <glyph glyph-name="gdotaccent" unicode="&#x121;" horiz-adv-x="422" 
d="M288 -150h-193v125h151c2 0 3 1 3 3v45l2 46h-2c-7 -29 -39 -46 -78 -46h-36c-57 0 -96 39 -96 96v257c0 57 39 96 96 96h36c37 0 71 -19 78 -48h2v46h133v-524c0 -56 -39 -96 -96 -96zM246 345h-69c-2 0 -3 -1 -3 -3v-191c0 -2 1 -3 3 -3h69c2 0 3 1 3 3v191
c0 2 -1 3 -3 3zM130 586c0 44 37 81 81 81c45 0 81 -37 81 -81c0 -45 -36 -82 -81 -82c-44 0 -81 37 -81 82z" />
    <glyph glyph-name="uni0123" unicode="&#x123;" horiz-adv-x="422" 
d="M288 -150h-193v125h151c2 0 3 1 3 3v45l2 46h-2c-7 -29 -39 -46 -78 -46h-36c-57 0 -96 39 -96 96v257c0 57 39 96 96 96h36c37 0 71 -19 78 -48h2v46h133v-524c0 -56 -39 -96 -96 -96zM246 345h-69c-2 0 -3 -1 -3 -3v-191c0 -2 1 -3 3 -3h69c2 0 3 1 3 3v191
c0 2 -1 3 -3 3zM149 627l38 73h57l-14 -41c32 -9 54 -38 54 -71c0 -40 -32 -73 -73 -73s-73 33 -73 73c0 11 4 24 11 39z" />
    <glyph glyph-name="h" unicode="h" horiz-adv-x="422" 
d="M384 0h-135v342c0 2 -1 3 -3 3h-69c-2 0 -3 -1 -3 -3v-342h-135v700h135v-230l-2 -46h2c7 29 41 48 78 48h36c57 0 96 -39 96 -96v-376z" />
    <glyph glyph-name="hcircumflex" unicode="&#x125;" horiz-adv-x="422" 
d="M384 0h-135v342c0 2 -1 3 -3 3h-69c-2 0 -3 -1 -3 -3v-342h-135v700h135v-230l-2 -46h2c7 29 41 48 78 48h36c57 0 96 -39 96 -96v-376zM233 753h-77l-49 59l-49 -59h-77l54 125h144z" />
    <glyph glyph-name="hbar" unicode="&#x127;" horiz-adv-x="422" 
d="M384 376v-376h-135v342c0 2 -1 3 -3 3h-69c-2 0 -3 -1 -3 -3v-342h-135v522h-39v86h39v92h135v-92h104v-86h-104v-52l-2 -46h2c7 29 41 48 78 48h36c57 0 96 -39 96 -96z" />
    <glyph glyph-name="i" unicode="i" horiz-adv-x="213" 
d="M25 586c0 44 37 81 81 81c45 0 81 -37 81 -81c0 -45 -36 -82 -81 -82c-44 0 -81 37 -81 82zM174 0h-135v470h135v-470z" />
    <glyph glyph-name="i.dotaccent" horiz-adv-x="213" 
d="M25 586c0 44 37 81 81 81c45 0 81 -37 81 -81c0 -45 -36 -82 -81 -82c-44 0 -81 37 -81 82zM174 0h-135v470h135v-470z" />
    <glyph glyph-name="dotlessi" unicode="&#x131;" horiz-adv-x="213" 
d="M174 0h-135v470h135v-470z" />
    <glyph glyph-name="igrave" unicode="&#xec;" horiz-adv-x="213" 
d="M174 0h-135v470h135v-470zM-44 648h157l74 -125h-107z" />
    <glyph glyph-name="iacute" unicode="&#xed;" horiz-adv-x="213" 
d="M174 0h-135v470h135v-470zM256 648l-124 -125h-107l74 125h157z" />
    <glyph glyph-name="icircumflex" unicode="&#xee;" horiz-adv-x="213" 
d="M174 0h-135v470h135v-470zM232 523h-77l-49 59l-49 -59h-77l54 125h144z" />
    <glyph glyph-name="idieresis" unicode="&#xef;" horiz-adv-x="213" 
d="M174 0h-135v470h135v-470zM-66 586c0 44 37 81 81 81c45 0 81 -37 81 -81c0 -45 -36 -82 -81 -82c-44 0 -81 37 -81 82zM117 586c0 44 37 81 81 81c45 0 81 -37 81 -81c0 -45 -36 -82 -81 -82c-44 0 -81 37 -81 82z" />
    <glyph glyph-name="itilde" unicode="&#x129;" horiz-adv-x="213" 
d="M174 0h-135v470h135v-470zM-44 576l60 60c15 15 34 23 56 23c21 0 39 -8 56 -23l32 -31c1 -1 3 -1 4 0l43 43l51 -52l-60 -60c-15 -15 -34 -23 -56 -23c-21 0 -39 8 -56 23l-32 31c-1 1 -3 1 -4 0l-43 -43z" />
    <glyph glyph-name="imacron" unicode="&#x12b;" horiz-adv-x="213" 
d="M174 0h-135v470h135v-470zM245 541h-278v86h278v-86z" />
    <glyph glyph-name="ibreve" unicode="&#x12d;" horiz-adv-x="213" 
d="M174 0h-135v470h135v-470zM106 520c-64 0 -121 26 -165 74l63 57c29 -30 63 -45 102 -45s73 15 102 45l63 -57c-44 -48 -101 -74 -165 -74z" />
    <glyph glyph-name="iogonek" unicode="&#x12f;" horiz-adv-x="213" 
d="M25 586c0 44 37 81 81 81c45 0 81 -37 81 -81c0 -45 -36 -82 -81 -82c-44 0 -81 37 -81 82zM39 0v470h135v-470l-29 -58l-1 -4c0 -1 1 -2 2 -2h28v-86h-34c-47 0 -81 34 -81 81c0 14 3 27 10 39l15 30h-45z" />
    <glyph glyph-name="ij" unicode="&#x133;" horiz-adv-x="426" 
d="M25 586c0 44 37 81 81 81c45 0 81 -37 81 -81c0 -45 -36 -82 -81 -82c-44 0 -81 37 -81 82zM174 0h-135v470h135v-470zM238 586c0 44 37 81 81 81c45 0 81 -37 81 -81c0 -45 -36 -82 -81 -82c-44 0 -81 37 -81 82zM291 -150h-79v125h37c2 0 3 1 3 3v492h135v-524
c0 -56 -39 -96 -96 -96z" />
    <glyph glyph-name="ij.2" horiz-adv-x="426" 
d="M25 586c0 44 37 81 81 81c45 0 81 -37 81 -81c0 -45 -36 -82 -81 -82c-44 0 -81 37 -81 82zM174 0h-135v470h135v-470zM238 586c0 44 37 81 81 81c45 0 82 -37 82 -81c0 -45 -37 -81 -82 -81c-44 0 -81 36 -81 81zM387 -150h-135v620h135v-620z" />
    <glyph glyph-name="iacute_j.loclNLD" horiz-adv-x="426" 
d="M174 0h-135v470h135v-470zM256 648l-124 -125h-107l74 125h157zM291 -150h-79v125h37c2 0 3 1 3 3v492h135v-524c0 -56 -39 -96 -96 -96zM470 648l-124 -125h-107l74 125h157z" />
    <glyph glyph-name="iacute_j.loclNLD.2" horiz-adv-x="426" 
d="M174 0h-135v470h135v-470zM256 648l-124 -125h-107l74 125h157zM387 -150h-135v620h135v-620zM470 648l-124 -125h-107l74 125h157z" />
    <glyph glyph-name="j" unicode="j" horiz-adv-x="213" 
d="M25 586c0 44 37 81 81 81c45 0 81 -37 81 -81c0 -45 -36 -82 -81 -82c-44 0 -81 37 -81 82zM78 -150h-79v125h37c2 0 3 1 3 3v492h135v-524c0 -56 -39 -96 -96 -96z" />
    <glyph glyph-name="uni0237" unicode="&#x237;" horiz-adv-x="213" 
d="M78 -150h-79v125h37c2 0 3 1 3 3v492h135v-524c0 -56 -39 -96 -96 -96z" />
    <glyph glyph-name="jcircumflex" unicode="&#x135;" horiz-adv-x="213" 
d="M78 -150h-79v125h37c2 0 3 1 3 3v492h135v-524c0 -56 -39 -96 -96 -96zM233 523h-77l-49 59l-49 -59h-77l54 125h144z" />
    <glyph glyph-name="j.2" horiz-adv-x="213" 
d="M25 586c0 44 37 81 81 81c45 0 82 -37 82 -81c0 -45 -37 -81 -82 -81c-44 0 -81 36 -81 81zM174 -150h-135v620h135v-620z" />
    <glyph glyph-name="uni0237.2" horiz-adv-x="213" 
d="M174 -150h-135v620h135v-620z" />
    <glyph glyph-name="jcircumflex.2" horiz-adv-x="213" 
d="M174 -150h-135v620h135v-620zM233 523h-77l-49 59l-49 -59h-77l54 125h144z" />
    <glyph glyph-name="k" unicode="k" horiz-adv-x="382" 
d="M394 0h-145l-58 153l-17 -33v-120h-135v700h135v-384l4 12l71 142h141l-106 -201z" />
    <glyph glyph-name="uni0137" unicode="&#x137;" horiz-adv-x="382" 
d="M394 0h-145l-58 153l-17 -33v-120h-135v700h135v-384l4 12l71 142h141l-106 -201zM278 -147l-38 -73h-57l14 41c-32 9 -54 38 -54 71c0 40 32 73 73 73s73 -33 73 -73c0 -11 -4 -24 -11 -39z" />
    <glyph glyph-name="kgreenlandic" unicode="&#x138;" horiz-adv-x="382" 
d="M394 0h-145l-51 166l-24 -46v-120h-135v470h135v-154l4 12l71 142h141l-110 -194z" />
    <glyph glyph-name="k.2" horiz-adv-x="423" 
d="M249 0v177c0 2 -1 3 -3 3h-72v-180h-135v700h135v-407h2l85 177h141l-103 -179h2c47 0 83 -39 83 -94v-197h-135z" />
    <glyph glyph-name="uni0137.2" horiz-adv-x="423" 
d="M249 0v177c0 2 -1 3 -3 3h-72v-180h-135v700h135v-407h2l85 177h141l-103 -179h2c47 0 83 -39 83 -94v-197h-135zM273 -147l-38 -73h-57l14 41c-32 9 -54 38 -54 71c0 40 32 73 73 73s73 -33 73 -73c0 -11 -4 -24 -11 -39z" />
    <glyph glyph-name="kgreenlandic.2" horiz-adv-x="423" 
d="M249 0v177c0 2 -1 3 -3 3h-72v-180h-135v470h135v-177h2l85 177h141l-103 -179h2c47 0 83 -39 83 -94v-197h-135z" />
    <glyph glyph-name="l" unicode="l" horiz-adv-x="213" 
d="M174 0h-135v700h135v-700z" />
    <glyph glyph-name="lacute" unicode="&#x13a;" horiz-adv-x="213" 
d="M174 0h-135v700h135v-700zM256 878l-124 -125h-107l74 125h157z" />
    <glyph glyph-name="uni013C" unicode="&#x13c;" horiz-adv-x="213" 
d="M174 0h-135v700h135v-700zM168 -147l-38 -73h-57l14 41c-32 9 -54 38 -54 71c0 40 32 73 73 73s73 -33 73 -73c0 -11 -4 -24 -11 -39z" />
    <glyph glyph-name="lcaron" unicode="&#x13e;" horiz-adv-x="213" 
d="M174 0h-135v700h135v-700zM204 700h119l-62 -210h-57v210z" />
    <glyph glyph-name="ldot" unicode="&#x140;" horiz-adv-x="359" 
d="M174 0h-135v700h135v-700zM199 235c0 48 39 87 87 87s87 -39 87 -87s-39 -87 -87 -87s-87 39 -87 87z" />
    <glyph glyph-name="lslash" unicode="&#x142;" horiz-adv-x="213" 
d="M228 469v-99l-54 -31v-339h-135v261l-53 -30v99l53 30v340h135v-262z" />
    <glyph glyph-name="m" unicode="m" horiz-adv-x="602" 
d="M564 0h-135v342c0 2 -1 3 -3 3h-54c-2 0 -3 -1 -3 -3v-342h-135v342c0 2 -1 3 -3 3h-54c-2 0 -3 -1 -3 -3v-342h-135v470h133v-46h2c7 29 41 48 78 48h29c37 0 70 -19 77 -48h2c7 29 40 48 77 48h31c59 0 96 -39 96 -98v-374z" />
    <glyph glyph-name="n" unicode="n" horiz-adv-x="423" 
d="M384 0h-135v342c0 2 -1 3 -3 3h-69c-2 0 -3 -1 -3 -3v-342h-135v470h133v-46h2c7 29 41 48 78 48h36c57 0 96 -39 96 -96v-376z" />
    <glyph glyph-name="ntilde" unicode="&#xf1;" horiz-adv-x="423" 
d="M384 0h-135v342c0 2 -1 3 -3 3h-69c-2 0 -3 -1 -3 -3v-342h-135v470h133v-46h2c7 29 41 48 78 48h36c57 0 96 -39 96 -96v-376zM61 576l60 60c15 15 34 23 56 23c21 0 39 -8 56 -23l32 -31c1 -1 3 -1 4 0l43 43l51 -52l-60 -60c-15 -15 -34 -23 -56 -23
c-21 0 -39 8 -56 23l-32 31c-1 1 -3 1 -4 0l-43 -43z" />
    <glyph glyph-name="nacute" unicode="&#x144;" horiz-adv-x="423" 
d="M384 0h-135v342c0 2 -1 3 -3 3h-69c-2 0 -3 -1 -3 -3v-342h-135v470h133v-46h2c7 29 41 48 78 48h36c57 0 96 -39 96 -96v-376zM361 648l-124 -125h-107l74 125h157z" />
    <glyph glyph-name="uni0146" unicode="&#x146;" horiz-adv-x="423" 
d="M384 0h-135v342c0 2 -1 3 -3 3h-69c-2 0 -3 -1 -3 -3v-342h-135v470h133v-46h2c7 29 41 48 78 48h36c57 0 96 -39 96 -96v-376zM273 -147l-38 -73h-57l14 41c-32 9 -54 38 -54 71c0 40 32 73 73 73s73 -33 73 -73c0 -11 -4 -24 -11 -39z" />
    <glyph glyph-name="ncaron" unicode="&#x148;" horiz-adv-x="423" 
d="M384 0h-135v342c0 2 -1 3 -3 3h-69c-2 0 -3 -1 -3 -3v-342h-135v470h133v-46h2c7 29 41 48 78 48h36c57 0 96 -39 96 -96v-376zM260 645h77l-54 -125h-144l-54 125h77l49 -59z" />
    <glyph glyph-name="eng" unicode="&#x14b;" horiz-adv-x="423" 
d="M288 -150h-79v125h37c2 0 3 1 3 3v364c0 2 -1 3 -3 3h-69c-2 0 -3 -1 -3 -3v-342h-135v470h133v-46h2c7 29 41 48 78 48h36c57 0 96 -39 96 -96v-430c0 -56 -39 -96 -96 -96z" />
    <glyph glyph-name="o" unicode="o" horiz-adv-x="423" 
d="M288 -2h-153c-59 0 -96 39 -96 96v282c0 59 37 96 96 96h153c57 0 96 -39 96 -96v-282c0 -57 -39 -96 -96 -96zM246 345h-69c-2 0 -3 -1 -3 -3v-214c0 -2 1 -3 3 -3h69c2 0 3 1 3 3v214c0 2 -1 3 -3 3z" />
    <glyph glyph-name="ograve" unicode="&#xf2;" horiz-adv-x="423" 
d="M288 -2h-153c-59 0 -96 39 -96 96v282c0 59 37 96 96 96h153c57 0 96 -39 96 -96v-282c0 -57 -39 -96 -96 -96zM246 345h-69c-2 0 -3 -1 -3 -3v-214c0 -2 1 -3 3 -3h69c2 0 3 1 3 3v214c0 2 -1 3 -3 3zM61 648h157l74 -125h-107z" />
    <glyph glyph-name="oacute" unicode="&#xf3;" horiz-adv-x="423" 
d="M288 -2h-153c-59 0 -96 39 -96 96v282c0 59 37 96 96 96h153c57 0 96 -39 96 -96v-282c0 -57 -39 -96 -96 -96zM246 345h-69c-2 0 -3 -1 -3 -3v-214c0 -2 1 -3 3 -3h69c2 0 3 1 3 3v214c0 2 -1 3 -3 3zM361 648l-124 -125h-107l74 125h157z" />
    <glyph glyph-name="ocircumflex" unicode="&#xf4;" horiz-adv-x="423" 
d="M288 -2h-153c-59 0 -96 39 -96 96v282c0 59 37 96 96 96h153c57 0 96 -39 96 -96v-282c0 -57 -39 -96 -96 -96zM246 345h-69c-2 0 -3 -1 -3 -3v-214c0 -2 1 -3 3 -3h69c2 0 3 1 3 3v214c0 2 -1 3 -3 3zM337 523h-77l-49 59l-49 -59h-77l54 125h144z" />
    <glyph glyph-name="otilde" unicode="&#xf5;" horiz-adv-x="423" 
d="M288 -2h-153c-59 0 -96 39 -96 96v282c0 59 37 96 96 96h153c57 0 96 -39 96 -96v-282c0 -57 -39 -96 -96 -96zM246 345h-69c-2 0 -3 -1 -3 -3v-214c0 -2 1 -3 3 -3h69c2 0 3 1 3 3v214c0 2 -1 3 -3 3zM61 576l60 60c15 15 34 23 56 23c21 0 39 -8 56 -23l32 -31
c1 -1 3 -1 4 0l43 43l51 -52l-60 -60c-15 -15 -34 -23 -56 -23c-21 0 -39 8 -56 23l-32 31c-1 1 -3 1 -4 0l-43 -43z" />
    <glyph glyph-name="odieresis" unicode="&#xf6;" horiz-adv-x="423" 
d="M288 -2h-153c-59 0 -96 39 -96 96v282c0 59 37 96 96 96h153c57 0 96 -39 96 -96v-282c0 -57 -39 -96 -96 -96zM246 345h-69c-2 0 -3 -1 -3 -3v-214c0 -2 1 -3 3 -3h69c2 0 3 1 3 3v214c0 2 -1 3 -3 3zM39 586c0 44 37 81 81 81c45 0 81 -37 81 -81
c0 -45 -36 -82 -81 -82c-44 0 -81 37 -81 82zM222 586c0 44 37 81 81 81c45 0 81 -37 81 -81c0 -45 -36 -82 -81 -82c-44 0 -81 37 -81 82z" />
    <glyph glyph-name="omacron" unicode="&#x14d;" horiz-adv-x="423" 
d="M288 -2h-153c-59 0 -96 39 -96 96v282c0 59 37 96 96 96h153c57 0 96 -39 96 -96v-282c0 -57 -39 -96 -96 -96zM246 345h-69c-2 0 -3 -1 -3 -3v-214c0 -2 1 -3 3 -3h69c2 0 3 1 3 3v214c0 2 -1 3 -3 3zM350 541h-278v86h278v-86z" />
    <glyph glyph-name="obreve" unicode="&#x14f;" horiz-adv-x="423" 
d="M288 -2h-153c-59 0 -96 39 -96 96v282c0 59 37 96 96 96h153c57 0 96 -39 96 -96v-282c0 -57 -39 -96 -96 -96zM246 345h-69c-2 0 -3 -1 -3 -3v-214c0 -2 1 -3 3 -3h69c2 0 3 1 3 3v214c0 2 -1 3 -3 3zM211 520c-64 0 -121 26 -165 74l63 57c29 -30 63 -45 102 -45
s73 15 102 45l63 -57c-44 -48 -101 -74 -165 -74z" />
    <glyph glyph-name="ohungarumlaut" unicode="&#x151;" horiz-adv-x="423" 
d="M288 -2h-153c-59 0 -96 39 -96 96v282c0 59 37 96 96 96h153c57 0 96 -39 96 -96v-282c0 -57 -39 -96 -96 -96zM246 345h-69c-2 0 -3 -1 -3 -3v-214c0 -2 1 -3 3 -3h69c2 0 3 1 3 3v214c0 2 -1 3 -3 3zM148 648h104l-69 -125h-79zM275 648h104l-69 -125h-79z" />
    <glyph glyph-name="oslash" unicode="&#xf8;" horiz-adv-x="423" 
d="M384 376v-282c0 -57 -39 -96 -96 -96h-153c-11 0 -23 2 -34 5l-32 -56h-43l42 74c-19 18 -29 42 -29 73v282c0 59 37 96 96 96h153c11 0 23 -2 34 -5l32 56h43l-43 -75c20 -18 30 -42 30 -72zM174 342v-135l75 132v3c0 2 -1 3 -3 3h-69c-2 0 -3 -1 -3 -3zM249 128v135
l-75 -132v-3c0 -2 1 -3 3 -3h69c2 0 3 1 3 3z" />
    <glyph glyph-name="oslashacute" unicode="&#x1ff;" horiz-adv-x="423" 
d="M384 376v-282c0 -57 -39 -96 -96 -96h-153c-11 0 -23 2 -34 5l-32 -56h-43l42 74c-19 18 -29 42 -29 73v282c0 59 37 96 96 96h153c11 0 23 -2 34 -5l32 56h43l-43 -75c20 -18 30 -42 30 -72zM174 342v-135l75 132v3c0 2 -1 3 -3 3h-69c-2 0 -3 -1 -3 -3zM249 128v135
l-75 -132v-3c0 -2 1 -3 3 -3h69c2 0 3 1 3 3zM361 648l-124 -125h-107l74 125h157z" />
    <glyph glyph-name="oe" unicode="&#x153;" horiz-adv-x="632" 
d="M561 0h-178c-36 0 -58 13 -65 38h-2c-8 -27 -30 -40 -66 -40h-115c-57 0 -96 39 -96 96v282c0 59 39 96 96 96h115c36 0 58 -13 66 -40h2c8 27 30 40 65 40h115c59 0 96 -37 96 -96v-196h-210v-52c0 -2 1 -3 3 -3h174v-125zM459 270v82c0 2 -1 3 -3 3h-69
c-2 0 -3 -1 -3 -3v-82h75zM249 128v214c0 2 -1 3 -3 3h-69c-2 0 -3 -1 -3 -3v-214c0 -2 1 -3 3 -3h69c2 0 3 1 3 3z" />
    <glyph glyph-name="oe.2" horiz-adv-x="633" 
d="M498 -2h-115c-35 0 -57 13 -65 40h-2c-8 -27 -30 -40 -66 -40h-115c-57 0 -96 39 -96 96v282c0 59 39 96 96 96h115c39 0 59 -17 66 -40h2c8 27 30 40 65 40h115c60 0 96 -30 96 -86v-196h-210v-72c0 -2 1 -3 3 -3h69c2 0 3 1 3 3v37h135v-61c0 -59 -39 -96 -96 -96z
M459 270v82c0 2 -1 3 -3 3h-69c-2 0 -3 -1 -3 -3v-82h75zM249 128v214c0 2 -1 3 -3 3h-69c-2 0 -3 -1 -3 -3v-214c0 -2 1 -3 3 -3h69c2 0 3 1 3 3z" />
    <glyph glyph-name="p" unicode="p" horiz-adv-x="423" 
d="M174 -150h-135v620h133v-46h2c7 29 41 48 78 48h36c57 0 96 -39 96 -96v-282c0 -57 -39 -96 -96 -96h-36c-37 0 -71 19 -78 48h-2l2 -45v-151zM177 125h69c2 0 3 1 3 3v214c0 2 -1 3 -3 3h-69c-2 0 -3 -1 -3 -3v-214c0 -2 1 -3 3 -3z" />
    <glyph glyph-name="q" unicode="q" horiz-adv-x="423" 
d="M384 -150h-135v151l2 45h-2c-7 -29 -41 -48 -78 -48h-36c-57 0 -96 39 -96 96v282c0 57 39 96 96 96h36c37 0 71 -19 78 -48h2v46h133v-620zM249 128v214c0 2 -1 3 -3 3h-69c-2 0 -3 -1 -3 -3v-214c0 -2 1 -3 3 -3h69c2 0 3 1 3 3z" />
    <glyph glyph-name="r" unicode="r" horiz-adv-x="303" 
d="M294 345h-117c-2 0 -3 -1 -3 -3v-342h-135v470h133v-46h2c7 29 41 48 78 48h42v-127z" />
    <glyph glyph-name="racute" unicode="&#x155;" horiz-adv-x="303" 
d="M294 345h-117c-2 0 -3 -1 -3 -3v-342h-135v470h133v-46h2c7 29 41 48 78 48h42v-127zM316 648l-124 -125h-107l74 125h157z" />
    <glyph glyph-name="uni0157" unicode="&#x157;" horiz-adv-x="303" 
d="M294 345h-117c-2 0 -3 -1 -3 -3v-342h-135v470h133v-46h2c7 29 41 48 78 48h42v-127zM228 -147l-38 -73h-57l14 41c-32 9 -54 38 -54 71c0 40 32 73 73 73s73 -33 73 -73c0 -11 -4 -24 -11 -39z" />
    <glyph glyph-name="rcaron" unicode="&#x159;" horiz-adv-x="303" 
d="M294 345h-117c-2 0 -3 -1 -3 -3v-342h-135v470h133v-46h2c7 29 41 48 78 48h42v-127zM215 645h77l-54 -125h-144l-54 125h77l49 -59z" />
    <glyph glyph-name="r.2" horiz-adv-x="383" 
d="M364 268h-135v74c0 2 -1 3 -3 3h-49c-2 0 -3 -1 -3 -3v-342h-135v470h133v-46h2c7 29 41 48 78 48h16c59 0 96 -37 96 -96v-108z" />
    <glyph glyph-name="racute.2" horiz-adv-x="383" 
d="M364 268h-135v74c0 2 -1 3 -3 3h-49c-2 0 -3 -1 -3 -3v-342h-135v470h133v-46h2c7 29 41 48 78 48h16c59 0 96 -37 96 -96v-108zM361 648l-124 -125h-107l74 125h157z" />
    <glyph glyph-name="uni0157.2" horiz-adv-x="383" 
d="M364 268h-135v74c0 2 -1 3 -3 3h-49c-2 0 -3 -1 -3 -3v-342h-135v470h133v-46h2c7 29 41 48 78 48h16c59 0 96 -37 96 -96v-108zM273 -147l-38 -73h-57l14 41c-32 9 -54 38 -54 71c0 40 32 73 73 73s73 -33 73 -73c0 -11 -4 -24 -11 -39z" />
    <glyph glyph-name="rcaron.2" horiz-adv-x="383" 
d="M364 268h-135v74c0 2 -1 3 -3 3h-49c-2 0 -3 -1 -3 -3v-342h-135v470h133v-46h2c7 29 41 48 78 48h16c59 0 96 -37 96 -96v-108zM260 645h77l-54 -125h-144l-54 125h77l49 -59z" />
    <glyph glyph-name="s" unicode="s" horiz-adv-x="423" 
d="M288 -2h-153c-59 0 -96 39 -96 96v66h135v-42c0 -2 1 -3 3 -3h69c2 0 3 1 3 3v37c0 2 -1 4 -4 5l-136 64c-48 23 -70 51 -70 96v56c0 57 37 96 96 96h153c57 0 96 -37 96 -96v-61h-135v37c0 2 -1 3 -3 3h-69c-2 0 -3 -1 -3 -3v-29c0 -3 1 -5 4 -6l124 -58
c56 -27 82 -55 82 -98v-67c0 -57 -39 -96 -96 -96z" />
    <glyph glyph-name="sacute" unicode="&#x15b;" horiz-adv-x="423" 
d="M288 -2h-153c-59 0 -96 39 -96 96v66h135v-42c0 -2 1 -3 3 -3h69c2 0 3 1 3 3v37c0 2 -1 4 -4 5l-136 64c-48 23 -70 51 -70 96v56c0 57 37 96 96 96h153c57 0 96 -37 96 -96v-61h-135v37c0 2 -1 3 -3 3h-69c-2 0 -3 -1 -3 -3v-29c0 -3 1 -5 4 -6l124 -58
c56 -27 82 -55 82 -98v-67c0 -57 -39 -96 -96 -96zM361 648l-124 -125h-107l74 125h157z" />
    <glyph glyph-name="scircumflex" unicode="&#x15d;" horiz-adv-x="423" 
d="M288 -2h-153c-59 0 -96 39 -96 96v66h135v-42c0 -2 1 -3 3 -3h69c2 0 3 1 3 3v37c0 2 -1 4 -4 5l-136 64c-48 23 -70 51 -70 96v56c0 57 37 96 96 96h153c57 0 96 -37 96 -96v-61h-135v37c0 2 -1 3 -3 3h-69c-2 0 -3 -1 -3 -3v-29c0 -3 1 -5 4 -6l124 -58
c56 -27 82 -55 82 -98v-67c0 -57 -39 -96 -96 -96zM337 523h-77l-49 59l-49 -59h-77l54 125h144z" />
    <glyph glyph-name="scedilla" unicode="&#x15f;" horiz-adv-x="423" 
d="M384 315h-135v37c0 2 -1 3 -3 3h-69c-2 0 -3 -1 -3 -3v-29c0 -3 1 -5 4 -6l124 -58c56 -27 82 -55 82 -98v-67c0 -57 -39 -96 -96 -96h-52v-23h28c19 0 33 -15 33 -34v-28c0 -35 -28 -63 -61 -63h-111v86h86v28h-61v34h-15c-59 0 -96 39 -96 96v66h135v-42
c0 -2 1 -3 3 -3h69c2 0 3 1 3 3v37c0 2 -1 4 -4 5l-136 64c-48 23 -70 51 -70 96v56c0 57 37 96 96 96h153c57 0 96 -37 96 -96v-61z" />
    <glyph glyph-name="scaron" unicode="&#x161;" horiz-adv-x="423" 
d="M288 -2h-153c-59 0 -96 39 -96 96v66h135v-42c0 -2 1 -3 3 -3h69c2 0 3 1 3 3v37c0 2 -1 4 -4 5l-136 64c-48 23 -70 51 -70 96v56c0 57 37 96 96 96h153c57 0 96 -37 96 -96v-61h-135v37c0 2 -1 3 -3 3h-69c-2 0 -3 -1 -3 -3v-29c0 -3 1 -5 4 -6l124 -58
c56 -27 82 -55 82 -98v-67c0 -57 -39 -96 -96 -96zM260 645h77l-54 -125h-144l-54 125h77l49 -59z" />
    <glyph glyph-name="uni0219" unicode="&#x219;" horiz-adv-x="423" 
d="M288 -2h-153c-59 0 -96 39 -96 96v66h135v-42c0 -2 1 -3 3 -3h69c2 0 3 1 3 3v37c0 2 -1 4 -4 5l-136 64c-48 23 -70 51 -70 96v56c0 57 37 96 96 96h153c57 0 96 -37 96 -96v-61h-135v37c0 2 -1 3 -3 3h-69c-2 0 -3 -1 -3 -3v-29c0 -3 1 -5 4 -6l124 -58
c56 -27 82 -55 82 -98v-67c0 -57 -39 -96 -96 -96zM273 -147l-38 -73h-57l14 41c-32 9 -54 38 -54 71c0 40 32 73 73 73s73 -33 73 -73c0 -11 -4 -24 -11 -39z" />
    <glyph glyph-name="s.2" horiz-adv-x="423" 
d="M246 191h-111c-59 0 -96 39 -96 96v89c0 57 37 96 96 96h153c57 0 96 -37 96 -96v-56h-135v32c0 2 -1 3 -3 3h-69c-2 0 -3 -1 -3 -3v-68c0 -2 1 -3 3 -3h111c57 0 96 -37 96 -96v-91c0 -57 -39 -96 -96 -96h-153c-59 0 -96 39 -96 96v61h135v-37c0 -2 1 -3 3 -3h69
c2 0 3 1 3 3v70c0 2 -1 3 -3 3z" />
    <glyph glyph-name="sacute.2" horiz-adv-x="423" 
d="M246 191h-111c-59 0 -96 39 -96 96v89c0 57 37 96 96 96h153c57 0 96 -37 96 -96v-56h-135v32c0 2 -1 3 -3 3h-69c-2 0 -3 -1 -3 -3v-68c0 -2 1 -3 3 -3h111c57 0 96 -37 96 -96v-91c0 -57 -39 -96 -96 -96h-153c-59 0 -96 39 -96 96v61h135v-37c0 -2 1 -3 3 -3h69
c2 0 3 1 3 3v70c0 2 -1 3 -3 3zM361 648l-124 -125h-107l74 125h157z" />
    <glyph glyph-name="scircumflex.2" horiz-adv-x="423" 
d="M246 191h-111c-59 0 -96 39 -96 96v89c0 57 37 96 96 96h153c57 0 96 -37 96 -96v-56h-135v32c0 2 -1 3 -3 3h-69c-2 0 -3 -1 -3 -3v-68c0 -2 1 -3 3 -3h111c57 0 96 -37 96 -96v-91c0 -57 -39 -96 -96 -96h-153c-59 0 -96 39 -96 96v61h135v-37c0 -2 1 -3 3 -3h69
c2 0 3 1 3 3v70c0 2 -1 3 -3 3zM337 523h-77l-49 59l-49 -59h-77l54 125h144z" />
    <glyph glyph-name="scedilla.2" horiz-adv-x="423" 
d="M384 320h-135v32c0 2 -1 3 -3 3h-69c-2 0 -3 -1 -3 -3v-68c0 -2 1 -3 3 -3h111c57 0 96 -37 96 -96v-91c0 -57 -39 -96 -96 -96h-52v-23h28c19 0 33 -15 33 -34v-28c0 -35 -28 -63 -61 -63h-111v86h86v28h-61v34h-15c-59 0 -96 39 -96 96v61h135v-37c0 -2 1 -3 3 -3h69
c2 0 3 1 3 3v70c0 2 -1 3 -3 3h-111c-59 0 -96 39 -96 96v89c0 57 37 96 96 96h153c57 0 96 -37 96 -96v-56z" />
    <glyph glyph-name="scaron.2" horiz-adv-x="423" 
d="M246 191h-111c-59 0 -96 39 -96 96v89c0 57 37 96 96 96h153c57 0 96 -37 96 -96v-56h-135v32c0 2 -1 3 -3 3h-69c-2 0 -3 -1 -3 -3v-68c0 -2 1 -3 3 -3h111c57 0 96 -37 96 -96v-91c0 -57 -39 -96 -96 -96h-153c-59 0 -96 39 -96 96v61h135v-37c0 -2 1 -3 3 -3h69
c2 0 3 1 3 3v70c0 2 -1 3 -3 3zM260 645h77l-54 -125h-144l-54 125h77l49 -59z" />
    <glyph glyph-name="uni0219.2" horiz-adv-x="423" 
d="M246 191h-111c-59 0 -96 39 -96 96v89c0 57 37 96 96 96h153c57 0 96 -37 96 -96v-56h-135v32c0 2 -1 3 -3 3h-69c-2 0 -3 -1 -3 -3v-68c0 -2 1 -3 3 -3h111c57 0 96 -37 96 -96v-91c0 -57 -39 -96 -96 -96h-153c-59 0 -96 39 -96 96v61h135v-37c0 -2 1 -3 3 -3h69
c2 0 3 1 3 3v70c0 2 -1 3 -3 3zM273 -147l-38 -73h-57l14 41c-32 9 -54 38 -54 71c0 40 32 73 73 73s73 -33 73 -73c0 -11 -4 -24 -11 -39z" />
    <glyph glyph-name="s.3" horiz-adv-x="379" 
d="M244 0h-205v125h163c2 0 3 1 3 3v60c0 2 -1 3 -3 3h-67c-57 0 -96 39 -96 96v87c0 59 39 96 96 96h195v-125h-153c-2 0 -3 -1 -3 -3v-58c0 -2 1 -3 3 -3h67c59 0 96 -37 96 -96v-89c0 -57 -37 -96 -96 -96z" />
    <glyph glyph-name="sacute.3" horiz-adv-x="379" 
d="M244 0h-205v125h163c2 0 3 1 3 3v60c0 2 -1 3 -3 3h-67c-57 0 -96 39 -96 96v87c0 59 39 96 96 96h195v-125h-153c-2 0 -3 -1 -3 -3v-58c0 -2 1 -3 3 -3h67c59 0 96 -37 96 -96v-89c0 -57 -37 -96 -96 -96zM339 648l-124 -125h-107l74 125h157z" />
    <glyph glyph-name="scircumflex.3" horiz-adv-x="379" 
d="M244 0h-205v125h163c2 0 3 1 3 3v60c0 2 -1 3 -3 3h-67c-57 0 -96 39 -96 96v87c0 59 39 96 96 96h195v-125h-153c-2 0 -3 -1 -3 -3v-58c0 -2 1 -3 3 -3h67c59 0 96 -37 96 -96v-89c0 -57 -37 -96 -96 -96zM315 523h-77l-49 59l-49 -59h-77l54 125h144z" />
    <glyph glyph-name="scedilla.3" horiz-adv-x="379" 
d="M340 185v-89c0 -57 -37 -96 -96 -96h-30v-25h28c19 0 33 -15 33 -34v-28c0 -35 -28 -63 -61 -63h-111v86h86v28h-61v36h-89v125h163c2 0 3 1 3 3v60c0 2 -1 3 -3 3h-67c-57 0 -96 39 -96 96v87c0 59 39 96 96 96h195v-125h-153c-2 0 -3 -1 -3 -3v-58c0 -2 1 -3 3 -3h67
c59 0 96 -37 96 -96z" />
    <glyph glyph-name="scaron.3" horiz-adv-x="379" 
d="M244 0h-205v125h163c2 0 3 1 3 3v60c0 2 -1 3 -3 3h-67c-57 0 -96 39 -96 96v87c0 59 39 96 96 96h195v-125h-153c-2 0 -3 -1 -3 -3v-58c0 -2 1 -3 3 -3h67c59 0 96 -37 96 -96v-89c0 -57 -37 -96 -96 -96zM238 645h77l-54 -125h-144l-54 125h77l49 -59z" />
    <glyph glyph-name="uni0219.3" horiz-adv-x="379" 
d="M244 0h-205v125h163c2 0 3 1 3 3v60c0 2 -1 3 -3 3h-67c-57 0 -96 39 -96 96v87c0 59 39 96 96 96h195v-125h-153c-2 0 -3 -1 -3 -3v-58c0 -2 1 -3 3 -3h67c59 0 96 -37 96 -96v-89c0 -57 -37 -96 -96 -96zM251 -147l-38 -73h-57l14 41c-32 9 -54 38 -54 71
c0 40 32 73 73 73s73 -33 73 -73c0 -11 -4 -24 -11 -39z" />
    <glyph glyph-name="germandbls" unicode="&#xdf;" horiz-adv-x="423" 
d="M288 0h-77v125h35c2 0 3 1 3 3v214c0 2 -1 3 -3 3h-35v125h35c2 0 3 1 3 3v99c0 2 -1 3 -3 3h-69c-2 0 -3 -1 -3 -3v-572h-135v606c0 59 39 96 96 96h153c59 0 96 -37 96 -96v-102c0 -52 -27 -82 -56 -95v-2c29 -13 56 -43 56 -95v-216c0 -57 -37 -96 -96 -96z" />
    <glyph glyph-name="t" unicode="t" horiz-adv-x="318" 
d="M304 0h-129c-57 0 -96 39 -96 96v249h-70v125h70v140h135v-140h90v-125h-90v-217c0 -2 1 -3 3 -3h87v-125z" />
    <glyph glyph-name="uni0163" unicode="&#x163;" horiz-adv-x="318" 
d="M304 345h-90v-217c0 -2 1 -3 3 -3h87v-125h-83v-25h28c19 0 33 -15 33 -34v-28c0 -35 -28 -63 -61 -63h-111v86h86v28h-61v43c-35 15 -56 48 -56 89v249h-70v125h70v140h135v-140h90v-125z" />
    <glyph glyph-name="uni021B" unicode="&#x21b;" horiz-adv-x="318" 
d="M304 0h-129c-57 0 -96 39 -96 96v249h-70v125h70v140h135v-140h90v-125h-90v-217c0 -2 1 -3 3 -3h87v-125zM228 -147l-38 -73h-57l14 41c-32 9 -54 38 -54 71c0 40 32 73 73 73s73 -33 73 -73c0 -11 -4 -24 -11 -39z" />
    <glyph glyph-name="tcaron" unicode="&#x165;" horiz-adv-x="318" 
d="M304 0h-129c-57 0 -96 39 -96 96v249h-70v125h70v140h135v-140h90v-125h-90v-217c0 -2 1 -3 3 -3h87v-125zM244 700h119l-62 -210h-57v210z" />
    <glyph glyph-name="tbar" unicode="&#x167;" horiz-adv-x="318" 
d="M304 345h-90v-67h83v-86h-83v-64c0 -2 1 -3 3 -3h87v-125h-129c-57 0 -96 39 -96 96v96h-60v86h60v67h-70v125h70v140h135v-140h90v-125z" />
    <glyph glyph-name="t.2" horiz-adv-x="293" 
d="M79 0v345h-70v125h70v140h135v-140h70v-125h-70v-345h-135z" />
    <glyph glyph-name="uni0163.2" horiz-adv-x="293" 
d="M214 0h-49v-25h28c19 0 33 -15 33 -34v-28c0 -35 -28 -63 -61 -63h-111v86h86v28h-61v381h-70v125h70v140h135v-140h70v-125h-70v-345z" />
    <glyph glyph-name="uni021B.2" horiz-adv-x="293" 
d="M79 0v345h-70v125h70v140h135v-140h70v-125h-70v-345h-135zM208 -147l-38 -73h-57l14 41c-32 9 -54 38 -54 71c0 40 32 73 73 73s73 -33 73 -73c0 -11 -4 -24 -11 -39z" />
    <glyph glyph-name="tcaron.2" horiz-adv-x="293" 
d="M79 0v345h-70v125h70v140h135v-140h70v-125h-70v-345h-135zM244 700h119l-62 -210h-57v210z" />
    <glyph glyph-name="tbar.2" horiz-adv-x="293" 
d="M285 278v-86h-71v-192h-135v192h-72v86h72v67h-70v125h70v140h135v-140h70v-125h-70v-67h71z" />
    <glyph glyph-name="t_f.2" horiz-adv-x="547" 
d="M79 0v345h-70v125h70v140h135v-140h94v134c0 57 39 96 96 96h129v-125h-87c-2 0 -3 -1 -3 -3v-102h90v-125h-90v-345h-135v345h-94v-345h-135z" />
    <glyph glyph-name="t_t.2" horiz-adv-x="522" 
d="M308 0v345h-94v-345h-135v345h-70v125h70v140h135v-140h94v140h135v-140h70v-125h-70v-345h-135z" />
    <glyph glyph-name="t_t_f.2" horiz-adv-x="776" 
d="M762 345h-90v-345h-135v345h-94v-345h-135v345h-94v-345h-135v345h-70v125h70v140h135v-140h94v140h135v-140h94v134c0 57 39 96 96 96h129v-125h-87c-2 0 -3 -1 -3 -3v-102h90v-125z" />
    <glyph glyph-name="u" unicode="u" horiz-adv-x="423" 
d="M39 470h135v-342c0 -2 1 -3 3 -3h69c2 0 3 1 3 3v342h135v-470h-133v46h-2c-7 -29 -41 -48 -78 -48h-26c-67 0 -106 38 -106 106v366z" />
    <glyph glyph-name="ugrave" unicode="&#xf9;" horiz-adv-x="423" 
d="M39 470h135v-342c0 -2 1 -3 3 -3h69c2 0 3 1 3 3v342h135v-470h-133v46h-2c-7 -29 -41 -48 -78 -48h-26c-67 0 -106 38 -106 106v366zM61 648h157l74 -125h-107z" />
    <glyph glyph-name="uacute" unicode="&#xfa;" horiz-adv-x="423" 
d="M39 470h135v-342c0 -2 1 -3 3 -3h69c2 0 3 1 3 3v342h135v-470h-133v46h-2c-7 -29 -41 -48 -78 -48h-26c-67 0 -106 38 -106 106v366zM361 648l-124 -125h-107l74 125h157z" />
    <glyph glyph-name="ucircumflex" unicode="&#xfb;" horiz-adv-x="423" 
d="M39 470h135v-342c0 -2 1 -3 3 -3h69c2 0 3 1 3 3v342h135v-470h-133v46h-2c-7 -29 -41 -48 -78 -48h-26c-67 0 -106 38 -106 106v366zM337 523h-77l-49 59l-49 -59h-77l54 125h144z" />
    <glyph glyph-name="udieresis" unicode="&#xfc;" horiz-adv-x="423" 
d="M39 470h135v-342c0 -2 1 -3 3 -3h69c2 0 3 1 3 3v342h135v-470h-133v46h-2c-7 -29 -41 -48 -78 -48h-26c-67 0 -106 38 -106 106v366zM39 586c0 44 37 81 81 81c45 0 81 -37 81 -81c0 -45 -36 -82 -81 -82c-44 0 -81 37 -81 82zM222 586c0 44 37 81 81 81
c45 0 81 -37 81 -81c0 -45 -36 -82 -81 -82c-44 0 -81 37 -81 82z" />
    <glyph glyph-name="utilde" unicode="&#x169;" horiz-adv-x="423" 
d="M39 470h135v-342c0 -2 1 -3 3 -3h69c2 0 3 1 3 3v342h135v-470h-133v46h-2c-7 -29 -41 -48 -78 -48h-26c-67 0 -106 38 -106 106v366zM61 576l60 60c15 15 34 23 56 23c21 0 39 -8 56 -23l32 -31c1 -1 3 -1 4 0l43 43l51 -52l-60 -60c-15 -15 -34 -23 -56 -23
c-21 0 -39 8 -56 23l-32 31c-1 1 -3 1 -4 0l-43 -43z" />
    <glyph glyph-name="umacron" unicode="&#x16b;" horiz-adv-x="423" 
d="M39 470h135v-342c0 -2 1 -3 3 -3h69c2 0 3 1 3 3v342h135v-470h-133v46h-2c-7 -29 -41 -48 -78 -48h-26c-67 0 -106 38 -106 106v366zM350 541h-278v86h278v-86z" />
    <glyph glyph-name="ubreve" unicode="&#x16d;" horiz-adv-x="423" 
d="M39 470h135v-342c0 -2 1 -3 3 -3h69c2 0 3 1 3 3v342h135v-470h-133v46h-2c-7 -29 -41 -48 -78 -48h-26c-67 0 -106 38 -106 106v366zM211 520c-64 0 -121 26 -165 74l63 57c29 -30 63 -45 102 -45s73 15 102 45l63 -57c-44 -48 -101 -74 -165 -74z" />
    <glyph glyph-name="uring" unicode="&#x16f;" horiz-adv-x="423" 
d="M39 470h135v-342c0 -2 1 -3 3 -3h69c2 0 3 1 3 3v342h135v-470h-133v46h-2c-7 -29 -41 -48 -78 -48h-26c-67 0 -106 38 -106 106v366zM103 606c0 29 11 54 32 75c22 21 48 32 77 32s54 -11 75 -32s32 -46 32 -75c0 -61 -46 -109 -107 -109s-109 48 -109 109zM248 606
c0 19 -17 35 -36 35s-35 -16 -35 -35s16 -36 35 -36s36 17 36 36z" />
    <glyph glyph-name="uhungarumlaut" unicode="&#x171;" horiz-adv-x="423" 
d="M39 470h135v-342c0 -2 1 -3 3 -3h69c2 0 3 1 3 3v342h135v-470h-133v46h-2c-7 -29 -41 -48 -78 -48h-26c-67 0 -106 38 -106 106v366zM148 648h104l-69 -125h-79zM275 648h104l-69 -125h-79z" />
    <glyph glyph-name="uogonek" unicode="&#x173;" horiz-adv-x="423" 
d="M384 0l-29 -58l-1 -4c0 -1 1 -2 2 -2h28v-86h-34c-47 0 -81 34 -81 81c0 14 3 27 10 39l15 30h-43v46h-2c-7 -29 -41 -48 -78 -48h-26c-67 0 -106 38 -106 106v366h135v-342c0 -2 1 -3 3 -3h69c2 0 3 1 3 3v342h135v-470z" />
    <glyph glyph-name="u.2" horiz-adv-x="423" 
d="M39 94v376h135v-342c0 -2 1 -3 3 -3h69c2 0 3 1 3 3v342h135v-376c0 -57 -37 -96 -96 -96h-153c-57 0 -96 39 -96 96z" />
    <glyph glyph-name="ugrave.2" horiz-adv-x="423" 
d="M39 94v376h135v-342c0 -2 1 -3 3 -3h69c2 0 3 1 3 3v342h135v-376c0 -57 -37 -96 -96 -96h-153c-57 0 -96 39 -96 96zM61 648h157l74 -125h-107z" />
    <glyph glyph-name="uacute.2" horiz-adv-x="423" 
d="M39 94v376h135v-342c0 -2 1 -3 3 -3h69c2 0 3 1 3 3v342h135v-376c0 -57 -37 -96 -96 -96h-153c-57 0 -96 39 -96 96zM361 648l-124 -125h-107l74 125h157z" />
    <glyph glyph-name="ucircumflex.2" horiz-adv-x="423" 
d="M39 94v376h135v-342c0 -2 1 -3 3 -3h69c2 0 3 1 3 3v342h135v-376c0 -57 -37 -96 -96 -96h-153c-57 0 -96 39 -96 96zM337 523h-77l-49 59l-49 -59h-77l54 125h144z" />
    <glyph glyph-name="udieresis.2" horiz-adv-x="423" 
d="M39 94v376h135v-342c0 -2 1 -3 3 -3h69c2 0 3 1 3 3v342h135v-376c0 -57 -37 -96 -96 -96h-153c-57 0 -96 39 -96 96zM39 586c0 44 37 81 81 81c45 0 81 -37 81 -81c0 -45 -36 -82 -81 -82c-44 0 -81 37 -81 82zM222 586c0 44 37 81 81 81c45 0 81 -37 81 -81
c0 -45 -36 -82 -81 -82c-44 0 -81 37 -81 82z" />
    <glyph glyph-name="utilde.2" horiz-adv-x="423" 
d="M39 94v376h135v-342c0 -2 1 -3 3 -3h69c2 0 3 1 3 3v342h135v-376c0 -57 -37 -96 -96 -96h-153c-57 0 -96 39 -96 96zM61 576l60 60c15 15 34 23 56 23c21 0 39 -8 56 -23l32 -31c1 -1 3 -1 4 0l43 43l51 -52l-60 -60c-15 -15 -34 -23 -56 -23c-21 0 -39 8 -56 23l-32 31
c-1 1 -3 1 -4 0l-43 -43z" />
    <glyph glyph-name="umacron.2" horiz-adv-x="423" 
d="M39 94v376h135v-342c0 -2 1 -3 3 -3h69c2 0 3 1 3 3v342h135v-376c0 -57 -37 -96 -96 -96h-153c-57 0 -96 39 -96 96zM350 541h-278v86h278v-86z" />
    <glyph glyph-name="ubreve.2" horiz-adv-x="423" 
d="M39 94v376h135v-342c0 -2 1 -3 3 -3h69c2 0 3 1 3 3v342h135v-376c0 -57 -37 -96 -96 -96h-153c-57 0 -96 39 -96 96zM211 520c-64 0 -121 26 -165 74l63 57c29 -30 63 -45 102 -45s73 15 102 45l63 -57c-44 -48 -101 -74 -165 -74z" />
    <glyph glyph-name="uring.2" horiz-adv-x="423" 
d="M39 94v376h135v-342c0 -2 1 -3 3 -3h69c2 0 3 1 3 3v342h135v-376c0 -57 -37 -96 -96 -96h-153c-57 0 -96 39 -96 96zM103 606c0 29 11 54 32 75c22 21 48 32 77 32s54 -11 75 -32s32 -46 32 -75c0 -61 -46 -109 -107 -109s-109 48 -109 109zM248 606c0 19 -17 35 -36 35
s-35 -16 -35 -35s16 -36 35 -36s36 17 36 36z" />
    <glyph glyph-name="uhungarumlaut.2" horiz-adv-x="423" 
d="M39 94v376h135v-342c0 -2 1 -3 3 -3h69c2 0 3 1 3 3v342h135v-376c0 -57 -37 -96 -96 -96h-153c-57 0 -96 39 -96 96zM148 648h104l-69 -125h-79zM275 648h104l-69 -125h-79z" />
    <glyph glyph-name="uogonek.2" horiz-adv-x="423" 
d="M249 470h135v-376c0 -56 -36 -95 -91 -96l-28 -56l-1 -4c0 -1 1 -2 2 -2h28v-86h-34c-47 0 -81 34 -81 81c0 14 3 27 10 39l14 28h-68c-57 0 -96 39 -96 96v376h135v-342c0 -2 1 -3 3 -3h69c2 0 3 1 3 3v342z" />
    <glyph glyph-name="v" unicode="v" horiz-adv-x="399" 
d="M398 470l-118 -470h-161l-118 470h141l55 -278l2 -15l2 15l56 278h141z" />
    <glyph glyph-name="w" unicode="w" horiz-adv-x="644" 
d="M644 470l-98 -470h-181l-41 260l-2 17l-2 -17l-40 -260h-181l-98 470h141l46 -282l2 -17l2 17l49 282h162l49 -282l2 -17l2 17l47 282h141z" />
    <glyph glyph-name="wcircumflex" unicode="&#x175;" horiz-adv-x="644" 
d="M644 470l-98 -470h-181l-41 260l-2 17l-2 -17l-40 -260h-181l-98 470h141l46 -282l2 -17l2 17l49 282h162l49 -282l2 -17l2 17l47 282h141zM448 523h-77l-49 59l-49 -59h-77l54 125h144z" />
    <glyph glyph-name="wgrave" unicode="&#x1e81;" horiz-adv-x="644" 
d="M644 470l-98 -470h-181l-41 260l-2 17l-2 -17l-40 -260h-181l-98 470h141l46 -282l2 -17l2 17l49 282h162l49 -282l2 -17l2 17l47 282h141zM172 648h157l74 -125h-107z" />
    <glyph glyph-name="wacute" unicode="&#x1e83;" horiz-adv-x="644" 
d="M644 470l-98 -470h-181l-41 260l-2 17l-2 -17l-40 -260h-181l-98 470h141l46 -282l2 -17l2 17l49 282h162l49 -282l2 -17l2 17l47 282h141zM472 648l-124 -125h-107l74 125h157z" />
    <glyph glyph-name="wdieresis" unicode="&#x1e85;" horiz-adv-x="644" 
d="M644 470l-98 -470h-181l-41 260l-2 17l-2 -17l-40 -260h-181l-98 470h141l46 -282l2 -17l2 17l49 282h162l49 -282l2 -17l2 17l47 282h141zM150 586c0 44 37 81 81 81c45 0 81 -37 81 -81c0 -45 -36 -82 -81 -82c-44 0 -81 37 -81 82zM333 586c0 44 37 81 81 81
c45 0 81 -37 81 -81c0 -45 -36 -82 -81 -82c-44 0 -81 37 -81 82z" />
    <glyph glyph-name="w.2" horiz-adv-x="603" 
d="M468 -2h-89c-36 0 -70 19 -77 48h-2c-7 -29 -41 -48 -77 -48h-88c-56 0 -96 40 -96 96v376h135v-342c0 -2 1 -3 3 -3h54c2 0 3 1 3 3v342h135v-342c0 -2 1 -3 3 -3h54c2 0 3 1 3 3v342h135v-376c0 -56 -40 -96 -96 -96z" />
    <glyph glyph-name="wcircumflex.2" horiz-adv-x="603" 
d="M468 -2h-89c-36 0 -70 19 -77 48h-2c-7 -29 -41 -48 -77 -48h-88c-56 0 -96 40 -96 96v376h135v-342c0 -2 1 -3 3 -3h54c2 0 3 1 3 3v342h135v-342c0 -2 1 -3 3 -3h54c2 0 3 1 3 3v342h135v-376c0 -56 -40 -96 -96 -96zM427 523h-77l-49 59l-49 -59h-77l54 125h144z" />
    <glyph glyph-name="wgrave.2" horiz-adv-x="603" 
d="M468 -2h-89c-36 0 -70 19 -77 48h-2c-7 -29 -41 -48 -77 -48h-88c-56 0 -96 40 -96 96v376h135v-342c0 -2 1 -3 3 -3h54c2 0 3 1 3 3v342h135v-342c0 -2 1 -3 3 -3h54c2 0 3 1 3 3v342h135v-376c0 -56 -40 -96 -96 -96zM151 648h157l74 -125h-107z" />
    <glyph glyph-name="wacute.2" horiz-adv-x="603" 
d="M468 -2h-89c-36 0 -70 19 -77 48h-2c-7 -29 -41 -48 -77 -48h-88c-56 0 -96 40 -96 96v376h135v-342c0 -2 1 -3 3 -3h54c2 0 3 1 3 3v342h135v-342c0 -2 1 -3 3 -3h54c2 0 3 1 3 3v342h135v-376c0 -56 -40 -96 -96 -96zM451 648l-124 -125h-107l74 125h157z" />
    <glyph glyph-name="wdieresis.2" horiz-adv-x="603" 
d="M468 -2h-89c-36 0 -70 19 -77 48h-2c-7 -29 -41 -48 -77 -48h-88c-56 0 -96 40 -96 96v376h135v-342c0 -2 1 -3 3 -3h54c2 0 3 1 3 3v342h135v-342c0 -2 1 -3 3 -3h54c2 0 3 1 3 3v342h135v-376c0 -56 -40 -96 -96 -96zM129 586c0 44 37 81 81 81c45 0 81 -37 81 -81
c0 -45 -36 -82 -81 -82c-44 0 -81 37 -81 82zM312 586c0 44 37 81 81 81c45 0 81 -37 81 -81c0 -45 -36 -82 -81 -82c-44 0 -81 37 -81 82z" />
    <glyph glyph-name="x" unicode="x" horiz-adv-x="398" 
d="M397 0h-146l-50 136l-2 9l-2 -9l-51 -136h-146l116 232l-116 238h146l51 -138l2 -9l2 9l50 138h146l-116 -238z" />
    <glyph glyph-name="x.2" horiz-adv-x="423" 
d="M384 0h-135v171c0 2 -1 3 -3 3h-69c-2 0 -3 -1 -3 -3v-171h-135v158c0 39 17 70 46 77v2c-29 7 -46 38 -46 77v156h135v-168c0 -2 1 -3 3 -3h69c2 0 3 1 3 3v168h135v-156c0 -39 -17 -70 -46 -77v-2c29 -7 46 -38 46 -77v-158z" />
    <glyph glyph-name="y" unicode="y" horiz-adv-x="398" 
d="M398 470l-174 -620h-141l46 150l-128 470h141l55 -281l2 -15l2 15l56 281h141z" />
    <glyph glyph-name="yacute" unicode="&#xfd;" horiz-adv-x="398" 
d="M398 470l-174 -620h-141l46 150l-128 470h141l55 -281l2 -15l2 15l56 281h141zM349 648l-124 -125h-107l74 125h157z" />
    <glyph glyph-name="ydieresis" unicode="&#xff;" horiz-adv-x="398" 
d="M398 470l-174 -620h-141l46 150l-128 470h141l55 -281l2 -15l2 15l56 281h141zM27 586c0 44 37 81 81 81c45 0 81 -37 81 -81c0 -45 -36 -82 -81 -82c-44 0 -81 37 -81 82zM210 586c0 44 37 81 81 81c45 0 81 -37 81 -81c0 -45 -36 -82 -81 -82c-44 0 -81 37 -81 82z" />
    <glyph glyph-name="ycircumflex" unicode="&#x177;" horiz-adv-x="398" 
d="M398 470l-174 -620h-141l46 150l-128 470h141l55 -281l2 -15l2 15l56 281h141zM325 523h-77l-49 59l-49 -59h-77l54 125h144z" />
    <glyph glyph-name="ygrave" unicode="&#x1ef3;" horiz-adv-x="398" 
d="M398 470l-174 -620h-141l46 150l-128 470h141l55 -281l2 -15l2 15l56 281h141zM49 648h157l74 -125h-107z" />
    <glyph glyph-name="y.2" horiz-adv-x="423" 
d="M288 -150h-193v125h151c2 0 3 1 3 3v45l2 46h-2c-7 -29 -39 -46 -78 -46h-36c-57 0 -96 39 -96 96v351h135v-319c0 -2 1 -3 3 -3h69c2 0 3 1 3 3v319h135v-524c0 -56 -39 -96 -96 -96z" />
    <glyph glyph-name="yacute.2" horiz-adv-x="423" 
d="M288 -150h-193v125h151c2 0 3 1 3 3v45l2 46h-2c-7 -29 -39 -46 -78 -46h-36c-57 0 -96 39 -96 96v351h135v-319c0 -2 1 -3 3 -3h69c2 0 3 1 3 3v319h135v-524c0 -56 -39 -96 -96 -96zM361 648l-124 -125h-107l74 125h157z" />
    <glyph glyph-name="ydieresis.2" horiz-adv-x="423" 
d="M288 -150h-193v125h151c2 0 3 1 3 3v45l2 46h-2c-7 -29 -39 -46 -78 -46h-36c-57 0 -96 39 -96 96v351h135v-319c0 -2 1 -3 3 -3h69c2 0 3 1 3 3v319h135v-524c0 -56 -39 -96 -96 -96zM39 586c0 44 37 81 81 81c45 0 81 -37 81 -81c0 -45 -36 -82 -81 -82
c-44 0 -81 37 -81 82zM222 586c0 44 37 81 81 81c45 0 81 -37 81 -81c0 -45 -36 -82 -81 -82c-44 0 -81 37 -81 82z" />
    <glyph glyph-name="ycircumflex.2" horiz-adv-x="423" 
d="M288 -150h-193v125h151c2 0 3 1 3 3v45l2 46h-2c-7 -29 -39 -46 -78 -46h-36c-57 0 -96 39 -96 96v351h135v-319c0 -2 1 -3 3 -3h69c2 0 3 1 3 3v319h135v-524c0 -56 -39 -96 -96 -96zM337 523h-77l-49 59l-49 -59h-77l54 125h144z" />
    <glyph glyph-name="ygrave.2" horiz-adv-x="423" 
d="M288 -150h-193v125h151c2 0 3 1 3 3v45l2 46h-2c-7 -29 -39 -46 -78 -46h-36c-57 0 -96 39 -96 96v351h135v-319c0 -2 1 -3 3 -3h69c2 0 3 1 3 3v319h135v-524c0 -56 -39 -96 -96 -96zM61 648h157l74 -125h-107z" />
    <glyph glyph-name="z" unicode="z" horiz-adv-x="343" 
d="M329 0h-315v135l162 210h-154v125h301v-135l-162 -210h168v-125z" />
    <glyph glyph-name="zacute" unicode="&#x17a;" horiz-adv-x="343" 
d="M329 0h-315v135l162 210h-154v125h301v-135l-162 -210h168v-125zM336 648l-124 -125h-107l74 125h157z" />
    <glyph glyph-name="zdotaccent" unicode="&#x17c;" horiz-adv-x="343" 
d="M329 0h-315v135l162 210h-154v125h301v-135l-162 -210h168v-125zM105 586c0 44 37 81 81 81c45 0 81 -37 81 -81c0 -45 -36 -82 -81 -82c-44 0 -81 37 -81 82z" />
    <glyph glyph-name="zcaron" unicode="&#x17e;" horiz-adv-x="343" 
d="M329 0h-315v135l162 210h-154v125h301v-135l-162 -210h168v-125zM235 645h77l-54 -125h-144l-54 125h77l49 -59z" />
    <glyph glyph-name="ordfeminine" unicode="&#xaa;" horiz-adv-x="398" 
d="M359 280h-128v38h-2c-7 -24 -30 -40 -65 -40h-27c-57 0 -98 39 -98 96v75c0 63 37 96 96 96h29c35 0 58 -14 65 -38h2l-2 38v32c0 2 -1 3 -3 3h-142v120h179c59 0 96 -37 96 -96v-324zM229 392v65c0 2 -1 3 -3 3h-53c-2 0 -3 -1 -3 -3v-65c0 -2 1 -3 3 -3h53c2 0 3 1 3 3
zM359 90h-320v120h320v-120z" />
    <glyph glyph-name="ordfeminine.2" horiz-adv-x="398" 
d="M359 280h-128v38h-2c-7 -24 -30 -40 -59 -40h-33c-57 0 -98 39 -98 96v75c0 63 37 96 96 96h29c35 0 58 -14 65 -38h1l-1 38v47c0 2 -1 3 -3 3h-54c-2 0 -3 -1 -3 -3v-23h-130v37c0 59 39 96 96 96h128c59 0 96 -37 96 -96v-326zM229 392v65c0 2 -1 3 -3 3h-53
c-2 0 -3 -1 -3 -3v-65c0 -2 1 -3 3 -3h53c2 0 3 1 3 3zM359 90h-320v120h320v-120z" />
    <glyph glyph-name="ordfeminine.3" horiz-adv-x="398" 
d="M359 280h-128v38h-2c-7 -24 -30 -40 -65 -40h-27c-57 0 -98 39 -98 96v233c0 63 37 95 96 95h29c35 0 58 -15 65 -39h2v37h128v-420zM229 403v174c0 2 -1 3 -3 3h-54c-2 0 -3 -1 -3 -3v-174c0 -2 1 -3 3 -3h54c2 0 3 1 3 3zM359 90h-320v120h320v-120z" />
    <glyph glyph-name="ordmasculine" unicode="&#xba;" horiz-adv-x="398" 
d="M263 278h-128c-57 0 -96 39 -96 96v232c0 59 39 96 96 96h128c59 0 96 -37 96 -96v-232c0 -57 -37 -96 -96 -96zM229 403v174c0 2 -1 3 -3 3h-54c-2 0 -3 -1 -3 -3v-174c0 -2 1 -3 3 -3h54c2 0 3 1 3 3zM39 210h320v-120h-320v120z" />
    <glyph glyph-name="eth" unicode="&#xf0;" horiz-adv-x="422" 
d="M376 610l-54 -25l33 -69c23 -47 29 -97 29 -181v-241c0 -57 -39 -96 -96 -96h-153c-59 0 -96 39 -96 96v282c0 59 39 96 96 96h48c23 0 40 -7 53 -22h2l-11 20l-27 58l-56 -26l-43 93l55 26l-37 79h149l10 -23l55 26zM177 125h69c2 0 3 1 3 3v214c0 2 -1 3 -3 3h-69
c-2 0 -3 -1 -3 -3v-214c0 -2 1 -3 3 -3z" />
    <glyph glyph-name="thorn" unicode="&#xfe;" horiz-adv-x="423" 
d="M288 0h-36c-39 0 -71 17 -78 46h-2l2 -46v-150h-135v850h135v-230l-2 -46h2c7 29 39 46 78 46h36c57 0 96 -39 96 -96v-278c0 -57 -39 -96 -96 -96zM246 345h-69c-2 0 -3 -1 -3 -3v-214c0 -2 1 -3 3 -3h69c2 0 3 1 3 3v214c0 2 -1 3 -3 3z" />
    <glyph glyph-name="uni0410" unicode="&#x410;" horiz-adv-x="496" 
d="M330 0l-15 80h-134l-15 -80h-156l150 700h176l150 -700h-156zM204 210h88l-41 223l-3 25l-3 -25z" />
    <glyph glyph-name="uni0410.2" 
d="M289 0v260h-100v-260h-150v596c0 63 43 106 106 106h188c63 0 106 -43 106 -106v-596h-150zM289 400v157c0 2 -1 3 -3 3h-94c-2 0 -3 -1 -3 -3v-157h100z" />
    <glyph glyph-name="uni0411" unicode="&#x411;" horiz-adv-x="466" 
d="M439 316v-210c0 -63 -43 -106 -106 -106h-294v700h390v-140h-240v-138h144c64 0 106 -43 106 -106zM289 143v146c0 2 -1 3 -3 3h-97v-152h97c2 0 3 1 3 3z" />
    <glyph glyph-name="uni0411.2" horiz-adv-x="466" 
d="M439 316v-210c0 -63 -43 -106 -106 -106h-294v594c0 63 43 106 106 106h284v-140h-237c-2 0 -3 -1 -3 -3v-135h144c64 0 106 -43 106 -106zM286 292h-97v-152h97c2 0 3 1 3 3v146c0 2 -1 3 -3 3z" />
    <glyph glyph-name="uni0412" unicode="&#x412;" horiz-adv-x="479" 
d="M334 0h-294v700h294c63 0 106 -43 106 -106v-154c0 -41 -19 -73 -50 -81v-2c31 -8 50 -41 50 -82v-169c0 -63 -43 -106 -106 -106zM290 425v132c0 2 -1 3 -3 3h-97v-138h97c2 0 3 1 3 3zM290 143v146c0 2 -1 3 -3 3h-97v-152h97c2 0 3 1 3 3z" />
    <glyph glyph-name="uni0413" unicode="&#x413;" horiz-adv-x="402" 
d="M389 560h-200v-560h-150v700h350v-140z" />
    <glyph glyph-name="uni0413.2" horiz-adv-x="402" 
d="M389 560h-197c-2 0 -3 -1 -3 -3v-557h-150v594c0 63 43 106 106 106h244v-140z" />
    <glyph glyph-name="uni0403" unicode="&#x403;" horiz-adv-x="402" 
d="M389 560h-200v-560h-150v700h350v-140zM351 878l-124 -125h-107l74 125h157z" />
    <glyph glyph-name="uni0403.2" horiz-adv-x="402" 
d="M389 560h-197c-2 0 -3 -1 -3 -3v-557h-150v594c0 63 43 106 106 106h244v-140zM351 878l-124 -125h-107l74 125h157z" />
    <glyph glyph-name="uni0490" unicode="&#x490;" horiz-adv-x="402" 
d="M249 790h140v-230h-200v-560h-150v700h210v90z" />
    <glyph glyph-name="uni0490.2" horiz-adv-x="402" 
d="M249 790h140v-230h-197c-2 0 -3 -1 -3 -3v-557h-150v594c0 63 43 106 106 106h104v90z" />
    <glyph glyph-name="uni0414" unicode="&#x414;" horiz-adv-x="560" 
d="M488 140h52v-230h-140v90h-240v-90h-140v230h52l120 560h176zM277 433l-54 -293h114l-54 293l-3 25z" />
    <glyph glyph-name="uni0414.2" horiz-adv-x="520" 
d="M449 140h51v-230h-140v90h-200v-90h-140v230h41c20 23 30 56 30 99v356c0 63 44 105 105 105h253v-560zM299 140v420h-63c-2 0 -3 -1 -3 -3v-310c0 -39 -9 -75 -27 -107h93z" />
    <glyph glyph-name="uni0415" unicode="&#x415;" horiz-adv-x="402" 
d="M389 0h-350v700h350v-140h-200v-138h150v-130h-150v-152h200v-140z" />
    <glyph glyph-name="uni0415.2" horiz-adv-x="402" 
d="M39 106v488c0 63 43 106 106 106h244v-140h-197c-2 0 -3 -1 -3 -3v-135h150v-130h-150v-149c0 -2 1 -3 3 -3h197v-140h-244c-63 0 -106 43 -106 106z" />
    <glyph glyph-name="uni0401" unicode="&#x401;" horiz-adv-x="402" 
d="M389 0h-350v700h350v-140h-200v-138h150v-130h-150v-152h200v-140zM42 816c0 44 37 81 81 81c45 0 81 -37 81 -81c0 -45 -36 -82 -81 -82c-44 0 -81 37 -81 82zM225 816c0 44 37 81 81 81c45 0 81 -37 81 -81c0 -45 -36 -82 -81 -82c-44 0 -81 37 -81 82z" />
    <glyph glyph-name="uni0401.2" horiz-adv-x="402" 
d="M39 106v488c0 63 43 106 106 106h244v-140h-197c-2 0 -3 -1 -3 -3v-135h150v-130h-150v-149c0 -2 1 -3 3 -3h197v-140h-244c-63 0 -106 43 -106 106zM42 816c0 44 37 81 81 81c45 0 81 -37 81 -81c0 -45 -36 -82 -81 -82c-44 0 -81 37 -81 82zM225 816c0 44 37 81 81 81
c45 0 81 -37 81 -81c0 -45 -36 -82 -81 -82c-44 0 -81 37 -81 82z" />
    <glyph glyph-name="uni0400" unicode="&#x400;" horiz-adv-x="402" 
d="M389 0h-350v700h350v-140h-200v-138h150v-130h-150v-152h200v-140zM64 878h157l74 -125h-107z" />
    <glyph glyph-name="uni0400.2" horiz-adv-x="402" 
d="M39 106v488c0 63 43 106 106 106h244v-140h-197c-2 0 -3 -1 -3 -3v-135h150v-130h-150v-149c0 -2 1 -3 3 -3h197v-140h-244c-63 0 -106 43 -106 106zM64 878h157l74 -125h-107z" />
    <glyph glyph-name="uni0416" unicode="&#x416;" horiz-adv-x="688" 
d="M557 366l142 -366h-164l-100 287h-16v-287h-150v287h-16l-100 -287h-164l142 366l-130 334h156l96 -273h16v273h150v-273h16l96 273h156z" />
    <glyph glyph-name="uni0416.2" horiz-adv-x="678" 
d="M639 294v-294h-150v257c0 2 -1 3 -3 3h-72v-260h-150v260h-72c-2 0 -3 -1 -3 -3v-257h-150v294c0 53 29 97 70 106l-89 300h156l77 -300h11v300h150v-300h11l77 300h156l-89 -300c41 -9 70 -53 70 -106z" />
    <glyph glyph-name="uni0417" unicode="&#x417;" 
d="M333 -2h-188c-63 0 -106 43 -106 106v121h150v-82c0 -2 1 -3 3 -3h94c2 0 3 1 3 3v146c0 2 -1 3 -3 3h-147v130h147c2 0 3 1 3 3v132c0 2 -1 3 -3 3h-94c-2 0 -3 -1 -3 -3v-82h-150v121c0 63 43 106 106 106h188c63 0 106 -43 106 -106v-157c0 -44 -17 -71 -50 -81v-2
c32 -9 50 -37 50 -82v-170c0 -63 -43 -106 -106 -106z" />
    <glyph glyph-name="uni0417.2" horiz-adv-x="402" 
d="M257 0h-244v140h198c2 0 3 1 3 3v146c0 2 -1 3 -3 3h-148v130h147c2 0 3 1 3 3v132c0 2 -1 3 -3 3h-197v140h244c63 0 106 -43 106 -106v-155c0 -44 -17 -71 -50 -81v-2c32 -9 50 -37 50 -82v-168c0 -63 -43 -106 -106 -106z" />
    <glyph glyph-name="uni0418" unicode="&#x418;" 
d="M39 0v700h150v-348l4 19l96 329h150v-700h-150v348l-4 -19l-96 -329h-150z" />
    <glyph glyph-name="uni0419" unicode="&#x419;" 
d="M39 0v700h150v-348l4 19l96 329h150v-700h-150v348l-4 -19l-96 -329h-150zM275 878h95v-54c0 -41 -30 -71 -71 -71h-120c-41 0 -71 30 -71 71v54h95v-61c0 -3 2 -5 5 -5h62c3 0 5 2 5 5v61z" />
    <glyph glyph-name="uni040D" unicode="&#x40d;" 
d="M39 0v700h150v-348l4 19l96 329h150v-700h-150v348l-4 -19l-96 -329h-150zM89 878h157l74 -125h-107z" />
    <glyph glyph-name="uni041A" unicode="&#x41a;" 
d="M39 700h150v-273h30l102 273h156l-136 -334l148 -366h-164l-106 287h-30v-287h-150v700z" />
    <glyph glyph-name="uni041A.2" 
d="M289 0v257c0 2 -1 3 -3 3h-97v-260h-150v700h150v-300h36l77 300h156l-89 -300c41 -9 70 -53 70 -106v-294h-150z" />
    <glyph glyph-name="uni040C" unicode="&#x40c;" 
d="M39 700h150v-273h30l102 273h156l-136 -334l148 -366h-164l-106 287h-30v-287h-150v700zM389 878l-124 -125h-107l74 125h157z" />
    <glyph glyph-name="uni040C.2" 
d="M289 0v257c0 2 -1 3 -3 3h-97v-260h-150v700h150v-300h36l77 300h156l-89 -300c41 -9 70 -53 70 -106v-294h-150zM389 878l-124 -125h-107l74 125h157z" />
    <glyph glyph-name="uni041B" unicode="&#x41b;" horiz-adv-x="496" 
d="M248 458l-3 -25l-79 -433h-156l150 700h176l150 -700h-156l-79 433z" />
    <glyph glyph-name="uni041B.2" 
d="M439 0h-150v560h-63c-2 0 -3 -1 -3 -3v-350c0 -131 -81 -212 -210 -212v140c43 0 68 27 68 68v391c0 63 43 106 106 106h252v-700z" />
    <glyph glyph-name="uni041C" unicode="&#x41c;" horiz-adv-x="596" 
d="M557 0h-145v345l-3 -18l-83 -327h-57l-82 327l-3 18v-345h-145v700h173l86 -347l86 347h173v-700z" />
    <glyph glyph-name="uni041D" unicode="&#x41d;" 
d="M439 0h-150v287h-100v-287h-150v700h150v-273h100v273h150v-700z" />
    <glyph glyph-name="uni041E" unicode="&#x41e;" 
d="M333 -2h-188c-63 0 -106 43 -106 106v492c0 63 43 106 106 106h188c63 0 106 -43 106 -106v-492c0 -63 -43 -106 -106 -106zM286 560h-94c-2 0 -3 -1 -3 -3v-414c0 -2 1 -3 3 -3h94c2 0 3 1 3 3v414c0 2 -1 3 -3 3z" />
    <glyph glyph-name="uni041F" unicode="&#x41f;" 
d="M439 0h-150v560h-100v-560h-150v700h400v-700z" />
    <glyph glyph-name="uni0420" unicode="&#x420;" horiz-adv-x="466" 
d="M333 260h-144v-260h-150v700h294c63 0 106 -43 106 -106v-228c0 -63 -42 -106 -106 -106zM286 560h-97v-160h97c2 0 3 1 3 3v154c0 2 -1 3 -3 3z" />
    <glyph glyph-name="uni0421" unicode="&#x421;" 
d="M333 -2h-188c-63 0 -106 43 -106 106v492c0 63 43 106 106 106h188c63 0 106 -43 106 -106v-121h-150v82c0 2 -1 3 -3 3h-94c-2 0 -3 -1 -3 -3v-414c0 -2 1 -3 3 -3h94c2 0 3 1 3 3v82h150v-121c0 -63 -43 -106 -106 -106z" />
    <glyph glyph-name="uni0421.2" horiz-adv-x="419" 
d="M389 0h-244c-63 0 -106 43 -106 106v488c0 63 43 106 106 106h244v-140h-197c-2 0 -3 -1 -3 -3v-414c0 -2 1 -3 3 -3h197v-140z" />
    <glyph glyph-name="uni0422" unicode="&#x422;" horiz-adv-x="428" 
d="M414 560h-125v-560h-150v560h-125v140h400v-140z" />
    <glyph glyph-name="uni0423" unicode="&#x423;" horiz-adv-x="464" 
d="M307 700h150l-199 -700h-150l65 216l-166 484h160l77 -293l2 -14l2 15z" />
    <glyph glyph-name="uni0423.2" 
d="M289 700h150v-594c0 -63 -43 -106 -106 -106h-284v140h237c2 0 3 1 3 3v117h-144c-63 0 -106 43 -106 106v334h150v-297c0 -2 1 -3 3 -3h97v300z" />
    <glyph glyph-name="uni0424" unicode="&#x424;" horiz-adv-x="678" 
d="M639 514v-328c0 -63 -43 -106 -106 -106h-119v-90h-150v90h-119c-63 0 -106 43 -106 106v328c0 63 43 106 106 106h119v90h150v-90h119c63 0 106 -43 106 -106zM192 220h72v260h-72c-2 0 -3 -1 -3 -3v-254c0 -2 1 -3 3 -3zM489 223v254c0 2 -1 3 -3 3h-72v-260h72
c2 0 3 1 3 3z" />
    <glyph glyph-name="uni0424.loclBGR" horiz-adv-x="678" 
d="M639 594v-488c0 -63 -43 -106 -106 -106h-119v-90h-150v90h-119c-63 0 -106 43 -106 106v488c0 63 43 106 106 106h119v90h150v-90h119c63 0 106 -43 106 -106zM192 140h72v420h-72c-2 0 -3 -1 -3 -3v-414c0 -2 1 -3 3 -3zM489 143v414c0 2 -1 3 -3 3h-72v-420h72
c2 0 3 1 3 3z" />
    <glyph glyph-name="uni0425" unicode="&#x425;" horiz-adv-x="494" 
d="M494 0h-169l-76 210l-2 10l-2 -10l-76 -210h-169l160 366l-144 334h165l64 -177l2 -11l2 11l64 177h165l-144 -334z" />
    <glyph glyph-name="uni0425.2" horiz-adv-x="494" 
d="M90 357v2c-33 10 -50 37 -50 81v260h150v-270c0 -2 1 -3 3 -3h94c2 0 3 1 3 3v270h150v-260c0 -44 -17 -71 -50 -81v-2c33 -10 50 -38 50 -83v-274h-150v284c0 2 -1 3 -3 3h-94c-2 0 -3 -1 -3 -3v-284h-150v274c0 45 17 73 50 83z" />
    <glyph glyph-name="uni0427" unicode="&#x427;" 
d="M189 700v-292c0 -2 1 -3 3 -3h97v295h150v-700h-150v265h-144c-64 0 -106 43 -106 106v329h150z" />
    <glyph glyph-name="uni0426" unicode="&#x426;" horiz-adv-x="510" 
d="M439 140h51v-230h-140v90h-311v700h150v-560h100v560h150v-560z" />
    <glyph glyph-name="uni0426.2" horiz-adv-x="510" 
d="M439 140h51v-230h-140v90h-205c-63 0 -106 43 -106 106v594h150v-557c0 -2 1 -3 3 -3h97v560h150v-560z" />
    <glyph glyph-name="uni0428" unicode="&#x428;" horiz-adv-x="678" 
d="M489 700h150v-700h-600v700h150v-560h75v560h150v-560h75v560z" />
    <glyph glyph-name="uni0428.2" horiz-adv-x="678" 
d="M489 700h150v-594c0 -63 -43 -106 -106 -106h-388c-63 0 -106 43 -106 106v594h150v-557c0 -2 1 -3 3 -3h72v560h150v-560h72c2 0 3 1 3 3v557z" />
    <glyph glyph-name="uni0429" unicode="&#x429;" horiz-adv-x="710" 
d="M639 140h51v-230h-140v90h-511v700h150v-560h75v560h150v-560h75v560h150v-560z" />
    <glyph glyph-name="uni0429.2" horiz-adv-x="710" 
d="M639 140h51v-230h-140v90h-405c-63 0 -106 43 -106 106v594h150v-557c0 -2 1 -3 3 -3h72v560h150v-560h75v560h150v-560z" />
    <glyph glyph-name="uni042C" unicode="&#x42c;" horiz-adv-x="466" 
d="M439 334v-228c0 -63 -43 -106 -106 -106h-294v700h150v-260h144c64 0 106 -43 106 -106zM289 143v154c0 2 -1 3 -3 3h-97v-160h97c2 0 3 1 3 3z" />
    <glyph glyph-name="uni042A" unicode="&#x42a;" horiz-adv-x="566" 
d="M539 334v-228c0 -63 -43 -106 -106 -106h-294v560h-125v140h275v-260h144c64 0 106 -43 106 -106zM389 143v154c0 2 -1 3 -3 3h-97v-160h97c2 0 3 1 3 3z" />
    <glyph glyph-name="uni042B" unicode="&#x42b;" horiz-adv-x="679" 
d="M439 334v-228c0 -63 -43 -106 -106 -106h-294v700h150v-260h144c64 0 106 -43 106 -106zM640 0h-150v700h150v-700zM286 300h-97v-160h97c2 0 3 1 3 3v154c0 2 -1 3 -3 3z" />
    <glyph glyph-name="uni042D" unicode="&#x42d;" 
d="M439 596v-492c0 -63 -43 -106 -106 -106h-188c-63 0 -106 43 -106 106v121h150v-82c0 -2 1 -3 3 -3h94c2 0 3 1 3 3v149h-150v130h150v135c0 2 -1 3 -3 3h-94c-2 0 -3 -1 -3 -3v-82h-150v121c0 63 43 106 106 106h188c63 0 106 -43 106 -106z" />
    <glyph glyph-name="uni042D.2" horiz-adv-x="402" 
d="M257 0h-244v140h197c2 0 3 1 3 3v149h-150v130h150v135c0 2 -1 3 -3 3h-197v140h244c63 0 106 -43 106 -106v-488c0 -63 -43 -106 -106 -106z" />
    <glyph glyph-name="uni042E" unicode="&#x42e;" horiz-adv-x="695" 
d="M656 596v-492c0 -63 -43 -106 -106 -106h-188c-63 0 -106 43 -106 106v188h-67v-292h-150v700h150v-278h67v174c0 63 43 106 106 106h188c63 0 106 -43 106 -106zM506 143v414c0 2 -1 3 -3 3h-94c-2 0 -3 -1 -3 -3v-414c0 -2 1 -3 3 -3h94c2 0 3 1 3 3z" />
    <glyph glyph-name="uni042F" unicode="&#x42f;" 
d="M145 700h294v-700h-150v260h-38l-66 -260h-156l79 265c-43 15 -69 52 -69 101v228c0 63 43 106 106 106zM289 400v160h-97c-2 0 -3 -1 -3 -3v-154c0 -2 1 -3 3 -3h97z" />
    <glyph glyph-name="uni042F.2" 
d="M39 0v248c0 45 17 72 50 82v3c-33 10 -50 37 -50 80v181c0 63 43 106 106 106h294v-700h-150v260h-97c-2 0 -3 -1 -3 -3v-257h-150zM189 557v-154c0 -2 1 -3 3 -3h97v160h-97c-2 0 -3 -1 -3 -3z" />
    <glyph glyph-name="uni040F" unicode="&#x40f;" 
d="M439 0h-130v-90h-140v90h-130v700h150v-560h100v560h150v-700z" />
    <glyph glyph-name="uni040F.2" 
d="M333 0h-24v-90h-140v90h-24c-63 0 -106 43 -106 106v594h150v-557c0 -2 1 -3 3 -3h94c2 0 3 1 3 3v557h150v-594c0 -63 -43 -106 -106 -106z" />
    <glyph glyph-name="uni0409" unicode="&#x409;" horiz-adv-x="745" 
d="M718 334v-228c0 -63 -43 -106 -106 -106h-294v409l-2 -10l-162 -399h-167l307 700h174v-260h144c64 0 106 -43 106 -106zM568 143v154c0 2 -1 3 -3 3h-97v-160h97c2 0 3 1 3 3z" />
    <glyph glyph-name="uni0409.2" horiz-adv-x="716" 
d="M689 334v-228c0 -63 -43 -106 -106 -106h-294v560h-63c-2 0 -3 -1 -3 -3v-350c0 -131 -81 -212 -210 -212v140c43 0 68 27 68 68v391c0 63 43 106 106 106h252v-260h144c64 0 106 -43 106 -106zM539 143v154c0 2 -1 3 -3 3h-97v-160h97c2 0 3 1 3 3z" />
    <glyph glyph-name="uni040A" unicode="&#x40a;" horiz-adv-x="716" 
d="M689 334v-228c0 -63 -43 -106 -106 -106h-294v300h-100v-300h-150v700h150v-260h100v260h150v-260h144c64 0 106 -43 106 -106zM539 143v154c0 2 -1 3 -3 3h-97v-160h97c2 0 3 1 3 3z" />
    <glyph glyph-name="uni0405" unicode="&#x405;" 
d="M286 207l-207 204c-27 27 -40 62 -40 105v80c0 63 42 106 106 106h188c63 0 106 -43 106 -106v-121h-150v82c0 2 -1 3 -3 3h-94c-2 0 -3 -1 -3 -3v-43c0 -3 1 -5 3 -7l207 -204c27 -27 40 -62 40 -105v-94c0 -63 -43 -106 -106 -106h-188c-64 0 -106 43 -106 106v121h150
v-82c0 -2 1 -3 3 -3h94c2 0 3 1 3 3v57c0 3 -1 5 -3 7z" />
    <glyph glyph-name="uni0405.2" 
d="M39 393v203c0 63 42 106 106 106h188c63 0 106 -43 106 -106v-121h-150v82c0 2 -1 3 -3 3h-94c-2 0 -3 -1 -3 -3v-127c0 -2 1 -3 3 -3h141c63 0 106 -43 106 -106v-217c0 -63 -43 -106 -106 -106h-188c-64 0 -106 43 -106 106v121h150v-82c0 -2 1 -3 3 -3h94c2 0 3 1 3 3
v141c0 2 -1 3 -3 3h-141c-64 0 -106 43 -106 106z" />
    <glyph glyph-name="uni0405.3" horiz-adv-x="440" 
d="M39 0v140h209c2 0 3 1 3 3v141c0 2 -1 3 -3 3h-103c-63 0 -106 43 -106 106v201c0 63 43 106 106 106h246v-140h-199c-2 0 -3 -1 -3 -3v-127c0 -2 1 -3 3 -3h103c63 0 106 -43 106 -106v-215c0 -63 -43 -106 -106 -106h-256z" />
    <glyph glyph-name="uni0404" unicode="&#x404;" 
d="M145 702h188c63 0 106 -43 106 -106v-121h-150v82c0 2 -1 3 -3 3h-94c-2 0 -3 -1 -3 -3v-135h150v-130h-150v-149c0 -2 1 -3 3 -3h94c2 0 3 1 3 3v82h150v-121c0 -63 -43 -106 -106 -106h-188c-63 0 -106 43 -106 106v492c0 63 43 106 106 106z" />
    <glyph glyph-name="uni0404.2" horiz-adv-x="402" 
d="M39 106v488c0 63 43 106 106 106h244v-140h-197c-2 0 -3 -1 -3 -3v-135h150v-130h-150v-149c0 -2 1 -3 3 -3h197v-140h-244c-63 0 -106 43 -106 106z" />
    <glyph glyph-name="uni0406" unicode="&#x406;" horiz-adv-x="227" 
d="M189 0h-150v700h150v-700z" />
    <glyph glyph-name="uni0407" unicode="&#x407;" horiz-adv-x="227" 
d="M9 816c0 51 19 81 50 81s50 -30 50 -81s-19 -82 -50 -82s-50 31 -50 82zM120 816c0 51 19 81 50 81s50 -30 50 -81s-19 -82 -50 -82s-50 31 -50 82zM189 0h-150v700h150v-700z" />
    <glyph glyph-name="uni0408" unicode="&#x408;" horiz-adv-x="433" 
d="M288 -2h-163c-63 0 -106 43 -106 106v121h150v-82c0 -2 1 -3 3 -3h69c2 0 3 1 3 3v557h150v-596c0 -63 -43 -106 -106 -106z" />
    <glyph glyph-name="uni0408.2" horiz-adv-x="352" 
d="M13 140h147c2 0 3 1 3 3v557h150v-594c0 -63 -43 -106 -106 -106h-194v140z" />
    <glyph glyph-name="uni040B" unicode="&#x40b;" horiz-adv-x="578" 
d="M539 329v-329h-150v292c0 2 -1 3 -3 3h-97v-295h-150v560h-125v140h400v-140h-125v-125h144c64 0 106 -43 106 -106z" />
    <glyph glyph-name="uni0402" unicode="&#x402;" horiz-adv-x="578" 
d="M539 329v-223c0 -63 -43 -106 -106 -106h-94v140h47c2 0 3 1 3 3v149c0 2 -1 3 -3 3h-97v-295h-150v560h-125v140h400v-140h-125v-125h144c63 0 106 -43 106 -106z" />
    <glyph glyph-name="uni0430" unicode="&#x430;" horiz-adv-x="413" 
d="M379 0h-133v38h-2c-8 -27 -35 -40 -70 -40h-36c-65 0 -104 37 -104 102v89c0 67 34 101 101 101h39c36 0 62 -13 70 -38h2l-2 38v52c0 2 -1 3 -3 3h-173v125h210c65 0 101 -36 101 -101v-369zM241 200h-69c-2 0 -3 -1 -3 -3v-79c0 -2 1 -3 3 -3h69c2 0 3 1 3 3v79
c0 2 -1 3 -3 3z" />
    <glyph glyph-name="uni0430.2" horiz-adv-x="423" 
d="M251 0v38h-2c-8 -25 -34 -40 -65 -40h-47c-57 0 -98 39 -98 96v100c0 63 37 96 96 96h49c29 0 57 -13 65 -38h2l-2 38v62c0 2 -1 3 -3 3h-64c-2 0 -3 -1 -3 -3v-32h-135v56c0 59 39 96 96 96h148c59 0 96 -37 96 -96v-376h-133zM246 200h-69c-2 0 -3 -1 -3 -3v-79
c0 -2 1 -3 3 -3h69c2 0 3 1 3 3v79c0 2 -1 3 -3 3z" />
    <glyph glyph-name="uni0430.3" horiz-adv-x="423" 
d="M251 0v46h-2c-9 -31 -41 -48 -78 -48h-36c-57 0 -96 39 -96 96v282c0 57 39 96 96 96h36c37 0 69 -17 78 -48h2v46h133v-470h-133zM177 125h69c2 0 3 1 3 3v214c0 2 -1 3 -3 3h-69c-2 0 -3 -1 -3 -3v-214c0 -2 1 -3 3 -3z" />
    <glyph glyph-name="uni0431" unicode="&#x431;" horiz-adv-x="423" 
d="M288 538h-111c-2 0 -3 -1 -3 -3v-65l-2 -38h2c5 25 34 38 70 38h39c67 0 101 -34 101 -101v-270c0 -64 -39 -101 -103 -101h-139c-64 0 -103 37 -103 101v463c0 65 36 101 101 101h106c2 0 3 1 3 3v34h135v-66c0 -57 -39 -96 -96 -96zM174 342v-214c0 -2 1 -3 3 -3h69
c2 0 3 1 3 3v214c0 2 -1 3 -3 3h-69c-2 0 -3 -1 -3 -3z" />
    <glyph glyph-name="uni0431.2" horiz-adv-x="423" 
d="M140 700h210v-125h-173c-2 0 -3 -1 -3 -3v-102l-2 -38h2c5 25 34 38 70 38h39c67 0 101 -34 101 -101v-270c0 -64 -39 -101 -103 -101h-139c-64 0 -103 37 -103 101v500c0 65 36 101 101 101zM174 342v-214c0 -2 1 -3 3 -3h69c2 0 3 1 3 3v214c0 2 -1 3 -3 3h-69
c-2 0 -3 -1 -3 -3z" />
    <glyph glyph-name="uni0431.loclSRB" horiz-adv-x="423" 
d="M174 535v-27c0 -3 1 -5 4 -6l124 -58c56 -27 82 -55 82 -98v-252c0 -57 -39 -96 -96 -96h-153c-59 0 -96 39 -96 96v242c0 35 16 59 52 82c-36 21 -52 47 -52 87v57c0 65 36 101 101 101h106c2 0 3 1 3 3v34h135v-66c0 -57 -39 -96 -96 -96h-111c-2 0 -3 -1 -3 -3z
M249 118v222c0 2 -1 4 -4 5l-33 16l-34 -16c-3 -1 -4 -3 -4 -5v-222c0 -2 1 -3 3 -3h69c2 0 3 1 3 3z" />
    <glyph glyph-name="uni0431.loclSRB.2" horiz-adv-x="423" 
d="M384 346v-252c0 -57 -39 -96 -96 -96h-153c-59 0 -96 39 -96 96v242c0 35 16 59 52 82c-36 21 -52 47 -52 87v101c0 57 37 94 96 94h229v-125h-187c-2 0 -3 -1 -3 -3v-64c0 -3 1 -5 4 -6l124 -58c56 -27 82 -55 82 -98zM249 118v222c0 2 -1 4 -4 5l-33 16l-34 -16
c-3 -1 -4 -3 -4 -5v-222c0 -2 1 -3 3 -3h69c2 0 3 1 3 3z" />
    <glyph glyph-name="uni0432" unicode="&#x432;" horiz-adv-x="423" 
d="M288 0h-249v470h249c59 0 96 -39 96 -96v-59c0 -41 -19 -73 -50 -81v-2c31 -8 50 -41 50 -82v-54c0 -57 -37 -96 -96 -96zM249 286v66c0 2 -1 3 -3 3h-72v-72h72c2 0 3 1 3 3zM249 118v72c0 2 -1 3 -3 3h-72v-78h72c2 0 3 1 3 3z" />
    <glyph glyph-name="uni0432.loclBGR" horiz-adv-x="423" 
d="M288 0h-249v604c0 57 37 96 96 96h153c59 0 96 -39 96 -96v-170c0 -41 -19 -73 -50 -81v-2c31 -8 50 -41 50 -82v-173c0 -57 -37 -96 -96 -96zM249 418v164c0 2 -1 3 -3 3h-69c-2 0 -3 -1 -3 -3v-167h72c2 0 3 1 3 3zM249 118v179c0 2 -1 3 -3 3h-72v-185h72c2 0 3 1 3 3
z" />
    <glyph glyph-name="uni0433" unicode="&#x433;" horiz-adv-x="323" 
d="M314 470v-125h-140v-345h-135v470h275z" />
    <glyph glyph-name="uni0433.2" horiz-adv-x="323" 
d="M174 342v-342h-135v374c0 57 37 96 96 96h179v-125h-137c-2 0 -3 -1 -3 -3z" />
    <glyph glyph-name="uni0433.loclBGR" horiz-adv-x="423" 
d="M39 94v67c0 43 26 71 82 98l124 58c3 1 4 3 4 6v29c0 2 -1 3 -3 3h-69c-2 0 -3 -1 -3 -3v-37h-135v61c0 59 39 96 96 96h153c59 0 96 -39 96 -96v-56c0 -45 -22 -73 -70 -96l-136 -64c-3 -1 -4 -3 -4 -5v-37c0 -2 1 -3 3 -3h69c2 0 3 1 3 3v42h135v-66
c0 -57 -37 -96 -96 -96h-153c-57 0 -96 39 -96 96z" />
    <glyph glyph-name="uni0433.loclBGR.2" horiz-adv-x="423" 
d="M174 188v-70c0 -2 1 -3 3 -3h69c2 0 3 1 3 3v37h135v-61c0 -57 -37 -96 -96 -96h-153c-57 0 -96 39 -96 96v91c0 59 39 96 96 96h111c2 0 3 1 3 3v68c0 2 -1 3 -3 3h-69c-2 0 -3 -1 -3 -3v-32h-135v56c0 59 39 96 96 96h153c59 0 96 -39 96 -96v-89
c0 -57 -37 -96 -96 -96h-111c-2 0 -3 -1 -3 -3z" />
    <glyph glyph-name="uni0433.loclBGR.3" horiz-adv-x="379" 
d="M39 96v89c0 59 39 96 96 96h67c2 0 3 1 3 3v58c0 2 -1 3 -3 3h-153v125h195c59 0 96 -37 96 -96v-87c0 -57 -37 -96 -96 -96h-67c-2 0 -3 -1 -3 -3v-60c0 -2 1 -3 3 -3h163v-125h-205c-57 0 -96 39 -96 96z" />
    <glyph glyph-name="uni0453" unicode="&#x453;" horiz-adv-x="323" 
d="M314 470v-125h-140v-345h-135v470h275zM312 648l-124 -125h-107l74 125h157z" />
    <glyph glyph-name="uni0453.2" horiz-adv-x="323" 
d="M174 342v-342h-135v374c0 57 37 96 96 96h179v-125h-137c-2 0 -3 -1 -3 -3zM312 648l-124 -125h-107l74 125h157z" />
    <glyph glyph-name="uni0491" unicode="&#x491;" horiz-adv-x="323" 
d="M189 550h125v-205h-140v-345h-135v470h150v80z" />
    <glyph glyph-name="uni0491.2" horiz-adv-x="323" 
d="M189 550h125v-205h-137c-2 0 -3 -1 -3 -3v-342h-135v374c0 57 37 96 96 96h54v80z" />
    <glyph glyph-name="uni0434" unicode="&#x434;" horiz-adv-x="459" 
d="M402 125h37v-205h-125v80h-169v-80h-125v205h37l87 345h171zM227 325l-36 -200h77l-37 200l-2 16z" />
    <glyph glyph-name="uni0434.2" horiz-adv-x="460" 
d="M394 125h46v-205h-125v80h-170v-80h-125v205h28c14 21 21 44 21 70v179c0 57 37 96 96 96h229v-345zM259 125v220h-60c-2 0 -3 -1 -3 -3v-121c0 -35 -7 -67 -21 -96h84z" />
    <glyph glyph-name="uni0434.loclBGR" horiz-adv-x="422" 
d="M288 -150h-193v125h151c2 0 3 1 3 3v45l2 46h-2c-7 -29 -39 -46 -78 -46h-36c-57 0 -96 39 -96 96v257c0 57 39 96 96 96h36c37 0 71 -19 78 -48h2v46h133v-524c0 -56 -39 -96 -96 -96zM246 345h-69c-2 0 -3 -1 -3 -3v-191c0 -2 1 -3 3 -3h69c2 0 3 1 3 3v191
c0 2 -1 3 -3 3z" />
    <glyph glyph-name="uni0435" unicode="&#x435;" horiz-adv-x="422" 
d="M384 180h-210v-52c0 -2 1 -3 3 -3h174v-125h-216c-59 0 -96 39 -96 96v280c0 57 37 96 96 96h153c57 0 96 -39 96 -96v-196zM249 270v82c0 2 -1 3 -3 3h-69c-2 0 -3 -1 -3 -3v-82h75z" />
    <glyph glyph-name="uni0435.2" horiz-adv-x="423" 
d="M39 94v282c0 57 37 96 96 96h153c57 0 96 -39 96 -96v-186h-210v-72c0 -2 1 -3 3 -3h69c2 0 3 1 3 3v37h135v-61c0 -59 -39 -96 -96 -96h-153c-59 0 -96 39 -96 96zM249 270v82c0 2 -1 3 -3 3h-69c-2 0 -3 -1 -3 -3v-82h75z" />
    <glyph glyph-name="uni0451" unicode="&#x451;" horiz-adv-x="422" 
d="M384 180h-210v-52c0 -2 1 -3 3 -3h174v-125h-216c-59 0 -96 39 -96 96v280c0 57 37 96 96 96h153c57 0 96 -39 96 -96v-196zM249 270v82c0 2 -1 3 -3 3h-69c-2 0 -3 -1 -3 -3v-82h75zM39 586c0 44 37 81 81 81c45 0 81 -37 81 -81c0 -45 -36 -82 -81 -82
c-44 0 -81 37 -81 82zM222 586c0 44 37 81 81 81c45 0 81 -37 81 -81c0 -45 -36 -82 -81 -82c-44 0 -81 37 -81 82z" />
    <glyph glyph-name="uni0451.2" horiz-adv-x="423" 
d="M39 94v282c0 57 37 96 96 96h153c57 0 96 -39 96 -96v-186h-210v-72c0 -2 1 -3 3 -3h69c2 0 3 1 3 3v37h135v-61c0 -59 -39 -96 -96 -96h-153c-59 0 -96 39 -96 96zM249 270v82c0 2 -1 3 -3 3h-69c-2 0 -3 -1 -3 -3v-82h75zM39 586c0 44 37 81 81 81c45 0 81 -37 81 -81
c0 -45 -36 -82 -81 -82c-44 0 -81 37 -81 82zM222 586c0 44 37 81 81 81c45 0 81 -37 81 -81c0 -45 -36 -82 -81 -82c-44 0 -81 37 -81 82z" />
    <glyph glyph-name="uni0450" unicode="&#x450;" horiz-adv-x="422" 
d="M384 180h-210v-52c0 -2 1 -3 3 -3h174v-125h-216c-59 0 -96 39 -96 96v280c0 57 37 96 96 96h153c57 0 96 -39 96 -96v-196zM249 270v82c0 2 -1 3 -3 3h-69c-2 0 -3 -1 -3 -3v-82h75zM61 648h157l74 -125h-107z" />
    <glyph glyph-name="uni0450.2" horiz-adv-x="423" 
d="M39 94v282c0 57 37 96 96 96h153c57 0 96 -39 96 -96v-186h-210v-72c0 -2 1 -3 3 -3h69c2 0 3 1 3 3v37h135v-61c0 -59 -39 -96 -96 -96h-153c-59 0 -96 39 -96 96zM249 270v82c0 2 -1 3 -3 3h-69c-2 0 -3 -1 -3 -3v-82h75zM61 648h157l74 -125h-107z" />
    <glyph glyph-name="uni0436" unicode="&#x436;" horiz-adv-x="531" 
d="M464 259l79 -259h-143l-49 178h-18v-178h-135v178h-18l-47 -178h-145l79 259l-75 211h141l51 -167h14v167h135v-167h14l53 167h139z" />
    <glyph glyph-name="uni0436.2" horiz-adv-x="603" 
d="M564 197v-197h-135v177c0 2 -1 3 -3 3h-57v-180h-135v180h-57c-2 0 -3 -1 -3 -3v-177h-135v197c0 54 38 93 64 93h1l-83 180h141l70 -177h2v177h135v-177h2l70 177h141l-83 -180h1c26 0 64 -39 64 -93z" />
    <glyph glyph-name="uni0436.loclBGR" horiz-adv-x="531" 
d="M464 259l79 -259h-143l-49 178h-18v-178h-135v178h-18l-47 -178h-145l79 259l-75 211h141l51 -167h14v397h135v-397h14l53 167h139z" />
    <glyph glyph-name="uni0436.loclBGR.2" horiz-adv-x="603" 
d="M564 197v-197h-135v177c0 2 -1 3 -3 3h-57v-180h-135v180h-57c-2 0 -3 -1 -3 -3v-177h-135v197c0 54 38 93 64 93h1l-83 180h141l70 -177h2v407h135v-407h2l70 177h141l-83 -180h1c26 0 64 -39 64 -93z" />
    <glyph glyph-name="uni0437" unicode="&#x437;" horiz-adv-x="423" 
d="M384 376v-61c0 -41 -19 -73 -50 -81v-2c31 -8 50 -41 50 -82v-56c0 -57 -37 -96 -96 -96h-153c-57 0 -96 39 -96 96v108h125v-84c0 -2 1 -3 3 -3h79c2 0 3 1 3 3v72c0 2 -1 3 -3 3h-62v90h62c2 0 3 1 3 3v66c0 2 -1 3 -3 3h-79c-2 0 -3 -1 -3 -3v-84h-125v108
c0 57 39 96 96 96h153c59 0 96 -39 96 -96z" />
    <glyph glyph-name="uni0437.2" horiz-adv-x="366" 
d="M327 374v-59c0 -41 -19 -73 -50 -81v-2c31 -8 50 -41 50 -82v-54c0 -57 -37 -96 -96 -96h-205v125h163c2 0 3 1 3 3v62c0 2 -1 3 -3 3h-92v90h92c2 0 3 1 3 3v56c0 2 -1 3 -3 3h-163v125h205c59 0 96 -39 96 -96z" />
    <glyph glyph-name="uni0437.loclBGR" horiz-adv-x="411" 
d="M372 376v-131c0 -41 -19 -73 -50 -81v-2c31 -8 50 -41 50 -82v-134c0 -57 -37 -96 -96 -96h-193v125h151c2 0 3 1 3 3v117c0 2 -1 3 -3 3h-92v125h92c2 0 3 1 3 3v116c0 2 -1 3 -3 3h-79c-2 0 -3 -1 -3 -3v-74h-125v108c0 57 39 96 96 96h153c59 0 96 -39 96 -96z" />
    <glyph glyph-name="uni0437.loclBGR.2" horiz-adv-x="366" 
d="M327 376v-131c0 -41 -19 -73 -50 -81v-2c31 -8 50 -41 50 -82v-134c0 -57 -37 -96 -96 -96h-205v125h163c2 0 3 1 3 3v117c0 2 -1 3 -3 3h-92v125h92c2 0 3 1 3 3v116c0 2 -1 3 -3 3h-163v125h205c59 0 96 -37 96 -94z" />
    <glyph glyph-name="uni0438" unicode="&#x438;" horiz-adv-x="423" 
d="M249 470h135v-470h-132v249l-3 -13l-75 -236h-135v470h132v-249l3 13z" />
    <glyph glyph-name="uni0438.loclBGR" horiz-adv-x="423" 
d="M39 470h135v-342c0 -2 1 -3 3 -3h69c2 0 3 1 3 3v342h135v-470h-133v46h-2c-7 -29 -41 -48 -78 -48h-26c-67 0 -106 38 -106 106v366z" />
    <glyph glyph-name="uni0439" unicode="&#x439;" horiz-adv-x="423" 
d="M249 470h135v-470h-132v249l-3 -13l-75 -236h-135v470h132v-249l3 13zM248 648h95v-54c0 -41 -30 -71 -71 -71h-120c-41 0 -71 30 -71 71v54h95v-61c0 -3 2 -5 5 -5h62c3 0 5 2 5 5v61z" />
    <glyph glyph-name="uni0439.loclBGR" horiz-adv-x="423" 
d="M39 470h135v-342c0 -2 1 -3 3 -3h69c2 0 3 1 3 3v342h135v-470h-133v46h-2c-7 -29 -41 -48 -78 -48h-26c-67 0 -106 38 -106 106v366zM247 648h95v-54c0 -41 -30 -71 -71 -71h-120c-41 0 -71 30 -71 71v54h95v-61c0 -3 2 -5 5 -5h62c3 0 5 2 5 5v61z" />
    <glyph glyph-name="uni045D" unicode="&#x45d;" horiz-adv-x="423" 
d="M249 470h135v-470h-132v249l-3 -13l-75 -236h-135v470h132v-249l3 13zM62 648h157l74 -125h-107z" />
    <glyph glyph-name="uni045D.loclBGR" horiz-adv-x="423" 
d="M39 470h135v-342c0 -2 1 -3 3 -3h69c2 0 3 1 3 3v342h135v-470h-133v46h-2c-7 -29 -41 -48 -78 -48h-26c-67 0 -106 38 -106 106v366zM61 648h157l74 -125h-107z" />
    <glyph glyph-name="uni043A" unicode="&#x43a;" horiz-adv-x="382" 
d="M292 249l102 -249h-145l-52 178h-23v-178h-135v470h135v-167h14l61 167h141z" />
    <glyph glyph-name="uni043A.2" horiz-adv-x="423" 
d="M249 0v177c0 2 -1 3 -3 3h-72v-180h-135v470h135v-177h2l85 177h141l-103 -180h1c47 0 84 -38 84 -93v-197h-135z" />
    <glyph glyph-name="uni043A.loclBGR" horiz-adv-x="382" 
d="M394 0h-145l-58 153l-17 -33v-120h-135v700h135v-384l4 12l71 142h141l-106 -201z" />
    <glyph glyph-name="uni043A.loclBGR.2" horiz-adv-x="423" 
d="M249 0v177c0 2 -1 3 -3 3h-72v-180h-135v700h135v-407h2l85 177h141l-103 -179h2c47 0 83 -39 83 -94v-197h-135z" />
    <glyph glyph-name="uni045C" unicode="&#x45c;" horiz-adv-x="382" 
d="M292 249l102 -249h-145l-52 178h-23v-178h-135v470h135v-167h14l61 167h141zM341 648l-124 -125h-107l74 125h157z" />
    <glyph glyph-name="uni045C.2" horiz-adv-x="423" 
d="M249 0v177c0 2 -1 3 -3 3h-72v-180h-135v470h135v-177h2l85 177h141l-103 -180h1c47 0 84 -38 84 -93v-197h-135zM362 648l-124 -125h-107l74 125h157z" />
    <glyph glyph-name="uni043B" unicode="&#x43b;" horiz-adv-x="399" 
d="M398 0h-141l-56 278l-2 15l-2 -15l-55 -278h-141l118 470h161z" />
    <glyph glyph-name="uni043B.2" horiz-adv-x="423" 
d="M384 470v-470h-135v345h-50c-2 0 -3 -1 -3 -3v-152c0 -121 -68 -195 -187 -195v125c37 0 60 23 60 60v194c0 57 37 96 96 96h219z" />
    <glyph glyph-name="uni043C" unicode="&#x43c;" horiz-adv-x="528" 
d="M324 470h165v-470h-131v249l-3 -14l-69 -235h-44l-69 235l-3 14v-249h-131v470h165l58 -207l2 -11l2 11z" />
    <glyph glyph-name="uni043D" unicode="&#x43d;" horiz-adv-x="423" 
d="M249 470h135v-470h-135v183h-75v-183h-135v470h135v-162h75v162z" />
    <glyph glyph-name="uni043E" unicode="&#x43e;" horiz-adv-x="423" 
d="M288 -2h-153c-59 0 -96 39 -96 96v282c0 59 37 96 96 96h153c57 0 96 -39 96 -96v-282c0 -57 -39 -96 -96 -96zM246 345h-69c-2 0 -3 -1 -3 -3v-214c0 -2 1 -3 3 -3h69c2 0 3 1 3 3v214c0 2 -1 3 -3 3z" />
    <glyph glyph-name="uni043F" unicode="&#x43f;" horiz-adv-x="423" 
d="M384 470v-470h-135v345h-75v-345h-135v470h345z" />
    <glyph glyph-name="uni043F.loclBGR" horiz-adv-x="423" 
d="M384 0h-135v342c0 2 -1 3 -3 3h-69c-2 0 -3 -1 -3 -3v-342h-135v470h133v-46h2c7 29 41 48 78 48h36c57 0 96 -39 96 -96v-376z" />
    <glyph glyph-name="uni0440" unicode="&#x440;" horiz-adv-x="423" 
d="M174 -150h-135v620h133v-46h2c7 29 41 48 78 48h36c57 0 96 -39 96 -96v-282c0 -57 -39 -96 -96 -96h-36c-37 0 -71 19 -78 48h-2l2 -45v-151zM177 125h69c2 0 3 1 3 3v214c0 2 -1 3 -3 3h-69c-2 0 -3 -1 -3 -3v-214c0 -2 1 -3 3 -3z" />
    <glyph glyph-name="uni0441" unicode="&#x441;" horiz-adv-x="422" 
d="M288 -2h-153c-59 0 -96 39 -96 96v282c0 57 37 96 96 96h153c57 0 96 -39 96 -96v-108h-135v74c0 2 -1 3 -3 3h-69c-2 0 -3 -1 -3 -3v-214c0 -2 1 -3 3 -3h69c2 0 3 1 3 3v74h135v-108c0 -57 -39 -96 -96 -96z" />
    <glyph glyph-name="uni0441.2" horiz-adv-x="366" 
d="M39 96v278c0 59 39 96 96 96h205v-125h-163c-2 0 -3 -1 -3 -3v-214c0 -2 1 -3 3 -3h163v-125h-205c-57 0 -96 39 -96 96z" />
    <glyph glyph-name="uni0442" unicode="&#x442;" horiz-adv-x="353" 
d="M344 470v-125h-100v-345h-135v345h-100v125h335z" />
    <glyph glyph-name="uni0442.loclBGR" horiz-adv-x="602" 
d="M564 0h-135v342c0 2 -1 3 -3 3h-54c-2 0 -3 -1 -3 -3v-342h-135v342c0 2 -1 3 -3 3h-54c-2 0 -3 -1 -3 -3v-342h-135v470h133v-46h2c7 29 41 48 78 48h29c37 0 70 -19 77 -48h2c7 29 40 48 77 48h31c59 0 96 -39 96 -98v-374z" />
    <glyph glyph-name="uni0443" unicode="&#x443;" horiz-adv-x="398" 
d="M398 470l-174 -620h-141l46 150l-128 470h141l55 -281l2 -15l2 15l56 281h141z" />
    <glyph glyph-name="uni0443.2" horiz-adv-x="423" 
d="M288 -150h-193v125h151c2 0 3 1 3 3v45l2 46h-2c-7 -29 -39 -46 -78 -46h-36c-57 0 -96 39 -96 96v351h135v-319c0 -2 1 -3 3 -3h69c2 0 3 1 3 3v319h135v-524c0 -56 -39 -96 -96 -96z" />
    <glyph glyph-name="uni0444" unicode="&#x444;" horiz-adv-x="603" 
d="M369 -150h-135v150l2 46h-2c-7 -29 -41 -48 -72 -48h-33c-52 0 -90 39 -90 96v282c0 57 38 96 90 96h33c31 0 65 -19 72 -48h2l-2 46v230h135v-230l-2 -46h2c7 29 41 48 72 48h33c52 0 90 -39 90 -96v-282c0 -57 -38 -96 -90 -96h-33c-31 0 -65 19 -72 48h-2l2 -46v-150z
M234 128v214c0 2 -1 3 -3 3h-54c-2 0 -3 -1 -3 -3v-214c0 -2 1 -3 3 -3h54c2 0 3 1 3 3zM429 128v214c0 2 -1 3 -3 3h-54c-2 0 -3 -1 -3 -3v-214c0 -2 1 -3 3 -3h54c2 0 3 1 3 3z" />
    <glyph glyph-name="uni0444.2" horiz-adv-x="603" 
d="M369 -150h-135v150h-105c-52 0 -90 39 -90 96v278c0 57 38 96 90 96h105v230h135v-230h105c52 0 90 -39 90 -96v-278c0 -57 -38 -96 -90 -96h-105v-150zM234 125v220h-57c-2 0 -3 -1 -3 -3v-214c0 -2 1 -3 3 -3h57zM429 128v214c0 2 -1 3 -3 3h-57v-220h57c2 0 3 1 3 3z
" />
    <glyph glyph-name="uni0445" unicode="&#x445;" horiz-adv-x="398" 
d="M397 0h-146l-50 136l-2 9l-2 -9l-51 -136h-146l116 232l-116 238h146l51 -138l2 -9l2 9l50 138h146l-116 -238z" />
    <glyph glyph-name="uni0445.2" horiz-adv-x="423" 
d="M384 0h-135v171c0 2 -1 3 -3 3h-69c-2 0 -3 -1 -3 -3v-171h-135v158c0 39 17 70 46 77v2c-29 7 -46 38 -46 77v156h135v-168c0 -2 1 -3 3 -3h69c2 0 3 1 3 3v168h135v-156c0 -39 -17 -70 -46 -77v-2c29 -7 46 -38 46 -77v-158z" />
    <glyph glyph-name="uni0447" unicode="&#x447;" horiz-adv-x="418" 
d="M379 0h-135v145l2 46h-2c-7 -29 -41 -48 -78 -48h-26c-67 0 -106 38 -106 106v221h135v-197c0 -2 1 -3 3 -3h69c2 0 3 1 3 3v197h135v-470z" />
    <glyph glyph-name="uni0446" unicode="&#x446;" horiz-adv-x="450" 
d="M384 125h46v-205h-125v80h-266v470h135v-345h75v345h135v-345z" />
    <glyph glyph-name="uni0446.2" horiz-adv-x="450" 
d="M384 125h46v-205h-125v80h-170c-59 0 -96 37 -96 94v376h135v-342c0 -2 1 -3 3 -3h72v345h135v-345z" />
    <glyph glyph-name="uni0446.loclBGR" horiz-adv-x="450" 
d="M384 125h46v-205h-125v80h-54v46h-2c-7 -29 -41 -48 -78 -48h-26c-67 0 -106 38 -106 106v366h135v-342c0 -2 1 -3 3 -3h69c2 0 3 1 3 3v342h135v-345z" />
    <glyph glyph-name="uni0448" unicode="&#x448;" horiz-adv-x="603" 
d="M429 470h135v-470h-525v470h135v-345h60v345h135v-345h60v345z" />
    <glyph glyph-name="uni0448.2" horiz-adv-x="603" 
d="M429 470h135v-376c0 -57 -37 -94 -96 -94h-333c-59 0 -96 37 -96 94v376h135v-342c0 -2 1 -3 3 -3h57v345h135v-345h57c2 0 3 1 3 3v342z" />
    <glyph glyph-name="uni0448.loclBGR" horiz-adv-x="603" 
d="M39 470h135v-342c0 -2 1 -3 3 -3h54c2 0 3 1 3 3v342h135v-342c0 -2 1 -3 3 -3h54c2 0 3 1 3 3v342h135v-470h-133v46h-2c-7 -29 -41 -48 -78 -48h-29c-37 0 -70 19 -77 48h-2c-7 -29 -40 -48 -77 -48h-31c-59 0 -96 39 -96 98v374z" />
    <glyph glyph-name="uni0449" unicode="&#x449;" horiz-adv-x="630" 
d="M564 125h46v-205h-125v80h-446v470h135v-345h60v345h135v-345h60v345h135v-345z" />
    <glyph glyph-name="uni0449.2" horiz-adv-x="630" 
d="M564 125h46v-205h-125v80h-349c-59 0 -97 37 -97 94v376h135v-342c0 -2 1 -3 3 -3h57v345h135v-345h60v345h135v-345z" />
    <glyph glyph-name="uni0449.loclBGR" horiz-adv-x="630" 
d="M564 125h46v-205h-125v80h-54v46h-2c-7 -29 -41 -48 -78 -48h-29c-37 0 -70 19 -77 48h-2c-7 -29 -40 -48 -77 -48h-31c-59 0 -96 39 -96 98v374h135v-342c0 -2 1 -3 3 -3h54c2 0 3 1 3 3v342h135v-342c0 -2 1 -3 3 -3h54c2 0 3 1 3 3v342h135v-345z" />
    <glyph glyph-name="uni044C" unicode="&#x44c;" horiz-adv-x="423" 
d="M39 0v470h135v-146h114c59 0 96 -33 96 -96v-132c0 -57 -41 -96 -98 -96h-247zM174 209v-94h71c2 0 3 1 3 3v88c0 2 -1 3 -3 3h-71z" />
    <glyph glyph-name="uni044A" unicode="&#x44a;" horiz-adv-x="493" 
d="M454 228v-132c0 -57 -41 -96 -98 -96h-247v345h-100v125h235v-146h114c59 0 96 -33 96 -96zM244 115h71c2 0 3 1 3 3v88c0 2 -1 3 -3 3h-71v-94z" />
    <glyph glyph-name="uni044B" unicode="&#x44b;" horiz-adv-x="604" 
d="M39 0v470h135v-146h114c59 0 96 -33 96 -96v-132c0 -57 -41 -96 -98 -96h-247zM565 0h-135v470h135v-470zM174 209v-94h71c2 0 3 1 3 3v88c0 2 -1 3 -3 3h-71z" />
    <glyph glyph-name="uni044D" unicode="&#x44d;" horiz-adv-x="423" 
d="M384 376v-282c0 -57 -37 -96 -96 -96h-153c-57 0 -96 39 -96 96v108h125v-74c0 -2 1 -3 3 -3h79c2 0 3 1 3 3v65h-65v90h65v59c0 2 -1 3 -3 3h-79c-2 0 -3 -1 -3 -3v-74h-125v108c0 57 39 96 96 96h153c59 0 96 -39 96 -96z" />
    <glyph glyph-name="uni044D.2" horiz-adv-x="366" 
d="M327 374v-278c0 -57 -37 -96 -96 -96h-205v125h163c2 0 3 1 3 3v55h-95v110h95v49c0 2 -1 3 -3 3h-163v125h205c59 0 96 -37 96 -96z" />
    <glyph glyph-name="uni044E" unicode="&#x44e;" horiz-adv-x="616" 
d="M577 376v-282c0 -57 -39 -96 -96 -96h-153c-59 0 -96 39 -96 96v89h-58v-183h-135v470h135v-162h58v68c0 59 37 96 96 96h153c57 0 96 -39 96 -96zM442 128v214c0 2 -1 3 -3 3h-69c-2 0 -3 -1 -3 -3v-214c0 -2 1 -3 3 -3h69c2 0 3 1 3 3z" />
    <glyph glyph-name="uni044F" unicode="&#x44f;" horiz-adv-x="423" 
d="M137 470h247v-470h-135v146h-32l-43 -146h-145l64 153c-33 13 -54 44 -54 89v132c0 57 41 96 98 96zM249 261v94h-72c-2 0 -3 -1 -3 -3v-88c0 -2 1 -3 3 -3h72z" />
    <glyph glyph-name="uni044F.2" horiz-adv-x="423" 
d="M384 470v-470h-135v155h-72c-2 0 -3 -1 -3 -3v-152h-135v130c0 41 19 74 50 82v2c-31 8 -50 40 -50 81v79c0 57 41 96 98 96h247zM249 270v85h-72c-2 0 -3 -1 -3 -3v-79c0 -2 1 -3 3 -3h72z" />
    <glyph glyph-name="uni044E.loclBGR" horiz-adv-x="616" 
d="M577 376v-282c0 -57 -39 -96 -96 -96h-153c-59 0 -96 39 -96 96v89h-58v-183h-135v700h135v-392h58v68c0 59 37 96 96 96h153c57 0 96 -39 96 -96zM442 128v214c0 2 -1 3 -3 3h-69c-2 0 -3 -1 -3 -3v-214c0 -2 1 -3 3 -3h69c2 0 3 1 3 3z" />
    <glyph glyph-name="uni045F" unicode="&#x45f;" horiz-adv-x="423" 
d="M384 0h-110v-80h-125v80h-110v470h135v-345h75v345h135v-470z" />
    <glyph glyph-name="uni045F.2" horiz-adv-x="423" 
d="M249 470h135v-376c0 -57 -37 -96 -96 -96h-14v-78h-125v78h-14c-57 0 -96 39 -96 96v376h135v-342c0 -2 1 -3 3 -3h69c2 0 3 1 3 3v342z" />
    <glyph glyph-name="uni0459" unicode="&#x459;" horiz-adv-x="638" 
d="M599 228v-132c0 -57 -41 -96 -98 -96h-247v293l-3 -15l-112 -278h-141l211 470h180v-146h114c59 0 96 -33 96 -96zM463 118v88c0 2 -1 3 -3 3h-71v-94h71c2 0 3 1 3 3z" />
    <glyph glyph-name="uni0459.2" horiz-adv-x="633" 
d="M594 228v-132c0 -57 -41 -96 -98 -96h-247v345h-50c-2 0 -3 -1 -3 -3v-152c0 -121 -68 -195 -187 -195v125c37 0 60 23 60 60v194c0 57 37 96 96 96h219v-146h114c59 0 96 -33 96 -96zM458 118v88c0 2 -1 3 -3 3h-71v-94h71c2 0 3 1 3 3z" />
    <glyph glyph-name="uni045A" unicode="&#x45a;" horiz-adv-x="633" 
d="M594 228v-132c0 -57 -41 -96 -98 -96h-247v199h-75v-199h-135v470h135v-146h75v146h135v-146h114c59 0 96 -33 96 -96zM458 118v88c0 2 -1 3 -3 3h-71v-94h71c2 0 3 1 3 3z" />
    <glyph glyph-name="uni0455" unicode="&#x455;" horiz-adv-x="423" 
d="M288 -2h-153c-59 0 -96 39 -96 96v66h135v-42c0 -2 1 -3 3 -3h69c2 0 3 1 3 3v37c0 2 -1 4 -4 5l-136 64c-48 23 -70 51 -70 96v56c0 57 37 96 96 96h153c57 0 96 -37 96 -96v-61h-135v37c0 2 -1 3 -3 3h-69c-2 0 -3 -1 -3 -3v-29c0 -3 1 -5 4 -6l124 -58
c56 -27 82 -55 82 -98v-67c0 -57 -39 -96 -96 -96z" />
    <glyph glyph-name="uni0455.2" horiz-adv-x="423" 
d="M246 191h-111c-59 0 -96 39 -96 96v89c0 57 37 96 96 96h153c57 0 96 -37 96 -96v-56h-135v32c0 2 -1 3 -3 3h-69c-2 0 -3 -1 -3 -3v-68c0 -2 1 -3 3 -3h111c57 0 96 -37 96 -96v-91c0 -57 -39 -96 -96 -96h-153c-59 0 -96 39 -96 96v61h135v-37c0 -2 1 -3 3 -3h69
c2 0 3 1 3 3v70c0 2 -1 3 -3 3z" />
    <glyph glyph-name="uni0455.3" horiz-adv-x="379" 
d="M244 0h-205v125h163c2 0 3 1 3 3v60c0 2 -1 3 -3 3h-67c-57 0 -96 39 -96 96v87c0 59 39 96 96 96h195v-125h-153c-2 0 -3 -1 -3 -3v-58c0 -2 1 -3 3 -3h67c59 0 96 -37 96 -96v-89c0 -57 -37 -96 -96 -96z" />
    <glyph glyph-name="uni0454" unicode="&#x454;" horiz-adv-x="423" 
d="M135 472h153c57 0 96 -39 96 -96v-108h-125v74c0 2 -1 3 -3 3h-79c-2 0 -3 -1 -3 -3v-59h65v-90h-65v-65c0 -2 1 -3 3 -3h79c2 0 3 1 3 3v74h125v-108c0 -57 -39 -96 -96 -96h-153c-59 0 -96 39 -96 96v282c0 57 37 96 96 96z" />
    <glyph glyph-name="uni0454.2" horiz-adv-x="366" 
d="M135 470h205v-125h-163c-2 0 -3 -1 -3 -3v-49h95v-110h-95v-55c0 -2 1 -3 3 -3h163v-125h-205c-57 0 -96 39 -96 96v278c0 59 39 96 96 96z" />
    <glyph glyph-name="uni0456" unicode="&#x456;" horiz-adv-x="213" 
d="M25 586c0 44 37 81 81 81c45 0 81 -37 81 -81c0 -45 -36 -82 -81 -82c-44 0 -81 37 -81 82zM174 0h-135v470h135v-470z" />
    <glyph glyph-name="uni0457" unicode="&#x457;" horiz-adv-x="213" 
d="M7 586c0 49 18 81 47 81s47 -32 47 -81c0 -51 -18 -82 -47 -82s-47 31 -47 82zM112 586c0 49 18 81 47 81s47 -32 47 -81c0 -51 -18 -82 -47 -82s-47 31 -47 82zM174 0h-135v470h135v-470z" />
    <glyph glyph-name="uni0458" unicode="&#x458;" horiz-adv-x="213" 
d="M25 586c0 44 37 81 81 81c45 0 81 -37 81 -81c0 -45 -36 -82 -81 -82c-44 0 -81 37 -81 82zM78 -150h-79v125h37c2 0 3 1 3 3v492h135v-524c0 -56 -39 -96 -96 -96z" />
    <glyph glyph-name="uni045B" unicode="&#x45b;" horiz-adv-x="422" 
d="M384 376v-376h-135v342c0 2 -1 3 -3 3h-69c-2 0 -3 -1 -3 -3v-342h-135v522h-39v86h39v92h135v-92h104v-86h-104v-52l-2 -46h2c7 29 41 48 78 48h36c57 0 96 -39 96 -96z" />
    <glyph glyph-name="uni0452" unicode="&#x452;" horiz-adv-x="423" 
d="M384 376v-430c0 -56 -39 -96 -96 -96h-79v125h37c2 0 3 1 3 3v364c0 2 -1 3 -3 3h-69c-2 0 -3 -1 -3 -3v-342h-135v522h-39v86h39v92h135v-92h104v-86h-104v-52l-2 -46h2c7 29 41 48 78 48h36c57 0 96 -39 96 -96z" />
    <glyph glyph-name="zero" unicode="0" 
d="M333 0h-188c-63 0 -106 43 -106 106v488c0 63 43 106 106 106h188c63 0 106 -43 106 -106v-488c0 -63 -43 -106 -106 -106zM192 140h94c2 0 3 1 3 3v414c0 2 -1 3 -3 3h-94c-2 0 -3 -1 -3 -3v-414c0 -2 1 -3 3 -3z" />
    <glyph glyph-name="one" unicode="1" horiz-adv-x="390" 
d="M380 0h-350v140h100v420h-100v140h250v-560h100v-140z" />
    <glyph glyph-name="one.2" horiz-adv-x="308" 
d="M119 0v560h-100v140h250v-700h-150z" />
    <glyph glyph-name="two" unicode="2" 
d="M191 140h248v-140h-400v116c0 48 8 72 33 105l214 274c2 3 3 6 3 9v53c0 2 -1 3 -3 3h-94c-2 0 -3 -1 -3 -3v-82h-150v121c0 63 42 106 106 106h188c63 0 106 -43 106 -106v-71c0 -48 -8 -71 -33 -104l-212 -272c-2 -3 -3 -5 -3 -7v-2z" />
    <glyph glyph-name="two.2" 
d="M145 400h141c2 0 3 1 3 3v154c0 2 -1 3 -3 3h-94c-2 0 -3 -1 -3 -3v-82h-150v121c0 63 43 106 106 106h188c64 0 106 -43 106 -106v-230c0 -63 -42 -106 -106 -106h-141c-2 0 -3 -1 -3 -3v-117h250v-140h-400v294c0 63 43 106 106 106z" />
    <glyph glyph-name="two.3" horiz-adv-x="440" 
d="M39 0v321c0 63 43 106 106 106h103c2 0 3 1 3 3v127c0 2 -1 3 -3 3h-198v140h245c63 0 106 -43 106 -106v-201c0 -63 -43 -106 -106 -106h-103c-2 0 -3 -1 -3 -3v-144h212v-140h-362z" />
    <glyph glyph-name="three" unicode="3" 
d="M334 -2h-190c-61 0 -105 44 -105 105v122h150v-82c0 -2 1 -3 3 -3h94c2 0 3 1 3 3v146c0 2 -1 3 -3 3h-122v130h122c2 0 3 1 3 3v132c0 2 -1 3 -3 3h-94c-2 0 -3 -1 -3 -3v-82h-150v122c0 63 44 105 105 105h190c63 0 105 -42 105 -105v-159c0 -43 -17 -70 -50 -80v-2
c33 -10 50 -37 50 -81v-172c0 -61 -42 -105 -105 -105z" />
    <glyph glyph-name="three.2" horiz-adv-x="419" 
d="M274 0h-244v140h197c2 0 3 1 3 3v146c0 2 -1 3 -3 3h-122v130h122c2 0 3 1 3 3v132c0 2 -1 3 -3 3h-197v140h244c63 0 106 -43 106 -106v-154c0 -44 -17 -71 -50 -81v-2c33 -10 50 -37 50 -82v-169c0 -63 -43 -106 -106 -106z" />
    <glyph glyph-name="four" unicode="4" horiz-adv-x="485" 
d="M455 135h-50v-135h-150v135h-225v140l225 425h150v-425h50v-140zM255 275v178l-3 -9l-87 -169h90z" />
    <glyph glyph-name="five" unicode="5" 
d="M333 -2h-188c-63 0 -106 43 -106 106v121h150v-82c0 -2 1 -3 3 -3h94c2 0 3 1 3 3v196c0 2 -1 3 -3 3h-94c-2 0 -3 -1 -3 -3v-56h-150v417h390v-140h-240v-77l-2 -51h2c10 34 38 51 84 51h60c63 0 106 -43 106 -106v-273c0 -63 -43 -106 -106 -106z" />
    <glyph glyph-name="five.2" horiz-adv-x="440" 
d="M39 0v140h209c2 0 3 1 3 3v141c0 2 -1 3 -3 3h-209v413h352v-140h-202v-133h106c63 0 106 -43 106 -106v-215c0 -63 -43 -106 -106 -106h-256z" />
    <glyph glyph-name="six" unicode="6" 
d="M333 -2h-188c-63 0 -106 43 -106 106v492c0 63 43 106 106 106h188c63 0 106 -43 106 -106v-109h-150v70c0 2 -1 3 -3 3h-94c-2 0 -3 -1 -3 -3v-112l-2 -50h2c10 33 38 50 84 50h60c63 0 106 -45 106 -109v-232c0 -63 -43 -106 -106 -106zM286 305h-94c-2 0 -3 -1 -3 -3
v-159c0 -2 1 -3 3 -3h94c2 0 3 1 3 3v159c0 2 -1 3 -3 3z" />
    <glyph glyph-name="six.2" 
d="M333 -2h-188c-63 0 -106 43 -106 106v490c0 63 43 106 106 106h259v-140h-212c-2 0 -3 -1 -3 -3v-112l-2 -50h2c11 31 39 50 84 50h60c63 0 106 -43 106 -106v-235c0 -63 -43 -106 -106 -106zM286 305h-94c-2 0 -3 -1 -3 -3v-159c0 -2 1 -3 3 -3h94c2 0 3 1 3 3v159
c0 2 -1 3 -3 3z" />
    <glyph glyph-name="seven" unicode="7" horiz-adv-x="449" 
d="M419 550l-140 -550h-160l149 560h-99v-85h-150v225h400v-150z" />
    <glyph glyph-name="seven.2" horiz-adv-x="429" 
d="M259 0h-160l149 560h-229v140h380v-150z" />
    <glyph glyph-name="eight" unicode="8" 
d="M89 356v2c-33 10 -50 37 -50 81v155c0 63 43 106 106 106h188c63 0 106 -43 106 -106v-155c0 -44 -17 -71 -50 -81v-2c33 -10 50 -37 50 -82v-168c0 -63 -43 -106 -106 -106h-188c-63 0 -106 43 -106 106v168c0 45 17 72 50 82zM286 560h-94c-2 0 -3 -1 -3 -3v-132
c0 -2 1 -3 3 -3h94c2 0 3 1 3 3v132c0 2 -1 3 -3 3zM286 292h-94c-2 0 -3 -1 -3 -3v-146c0 -2 1 -3 3 -3h94c2 0 3 1 3 3v146c0 2 -1 3 -3 3z" />
    <glyph glyph-name="nine" unicode="9" 
d="M333 0h-188c-63 0 -106 43 -106 106v107h150v-70c0 -2 1 -3 3 -3h94c2 0 3 1 3 3v125l2 50h-2c-9 -33 -36 -50 -83 -50h-61c-63 0 -106 43 -106 106v220c0 63 42 106 105 106h190c63 0 105 -43 105 -106v-488c0 -63 -43 -106 -106 -106zM289 411v146c0 2 -1 3 -3 3h-94
c-2 0 -3 -1 -3 -3v-146c0 -2 1 -3 3 -3h94c2 0 3 1 3 3z" />
    <glyph glyph-name="nine.2" 
d="M333 0h-259v140h212c2 0 3 1 3 3v125l2 50h-2c-11 -33 -39 -50 -83 -50h-61c-63 0 -106 43 -106 106v220c0 63 43 106 106 106h188c63 0 106 -43 106 -106v-488c0 -63 -43 -106 -106 -106zM289 411v146c0 2 -1 3 -3 3h-94c-2 0 -3 -1 -3 -3v-146c0 -2 1 -3 3 -3h94
c2 0 3 1 3 3z" />
    <glyph glyph-name="zero.tnum" 
d="M333 0h-188c-63 0 -106 43 -106 106v488c0 63 43 106 106 106h188c63 0 106 -43 106 -106v-488c0 -63 -43 -106 -106 -106zM192 140h94c2 0 3 1 3 3v414c0 2 -1 3 -3 3h-94c-2 0 -3 -1 -3 -3v-414c0 -2 1 -3 3 -3z" />
    <glyph glyph-name="one.tnum" 
d="M418 0h-350v140h100v420h-100v140h250v-560h100v-140z" />
    <glyph glyph-name="one.2_tnum" 
d="M199 0v560h-100v140h250v-700h-150z" />
    <glyph glyph-name="two.tnum" 
d="M191 140h248v-140h-400v116c0 48 8 72 33 105l214 274c2 3 3 6 3 9v53c0 2 -1 3 -3 3h-94c-2 0 -3 -1 -3 -3v-82h-150v121c0 63 42 106 106 106h188c63 0 106 -43 106 -106v-71c0 -48 -8 -71 -33 -104l-212 -272c-2 -3 -3 -5 -3 -7v-2z" />
    <glyph glyph-name="two.2_tnum" 
d="M145 400h141c2 0 3 1 3 3v154c0 2 -1 3 -3 3h-94c-2 0 -3 -1 -3 -3v-82h-150v121c0 63 43 106 106 106h188c64 0 106 -43 106 -106v-230c0 -63 -42 -106 -106 -106h-141c-2 0 -3 -1 -3 -3v-117h250v-140h-400v294c0 63 43 106 106 106z" />
    <glyph glyph-name="two.3_tnum" 
d="M54 0v321c0 63 43 106 106 106h103c2 0 3 1 3 3v127c0 2 -1 3 -3 3h-198v140h245c63 0 106 -43 106 -106v-201c0 -63 -43 -106 -106 -106h-103c-2 0 -3 -1 -3 -3v-144h212v-140h-362z" />
    <glyph glyph-name="three.tnum" 
d="M334 -2h-190c-61 0 -105 44 -105 105v122h150v-82c0 -2 1 -3 3 -3h94c2 0 3 1 3 3v146c0 2 -1 3 -3 3h-122v130h122c2 0 3 1 3 3v132c0 2 -1 3 -3 3h-94c-2 0 -3 -1 -3 -3v-82h-150v122c0 63 44 105 105 105h190c63 0 105 -42 105 -105v-159c0 -43 -17 -70 -50 -80v-2
c33 -10 50 -37 50 -81v-172c0 -61 -42 -105 -105 -105z" />
    <glyph glyph-name="three.2_tnum" 
d="M305 0h-244v140h197c2 0 3 1 3 3v146c0 2 -1 3 -3 3h-122v130h122c2 0 3 1 3 3v132c0 2 -1 3 -3 3h-197v140h244c63 0 106 -43 106 -106v-154c0 -44 -17 -71 -50 -81v-2c33 -10 50 -37 50 -82v-169c0 -63 -43 -106 -106 -106z" />
    <glyph glyph-name="four.tnum" 
d="M451 135h-50v-135h-150v135h-225v140l225 425h150v-425h50v-140zM251 275v178l-3 -9l-87 -169h90z" />
    <glyph glyph-name="five.tnum" 
d="M333 -2h-188c-63 0 -106 43 -106 106v121h150v-82c0 -2 1 -3 3 -3h94c2 0 3 1 3 3v196c0 2 -1 3 -3 3h-94c-2 0 -3 -1 -3 -3v-56h-150v417h390v-140h-240v-77l-2 -51h2c10 34 38 51 84 51h60c63 0 106 -43 106 -106v-273c0 -63 -43 -106 -106 -106z" />
    <glyph glyph-name="five.2_tnum" 
d="M61 0v140h209c2 0 3 1 3 3v141c0 2 -1 3 -3 3h-209v413h352v-140h-202v-133h106c63 0 106 -43 106 -106v-215c0 -63 -43 -106 -106 -106h-256z" />
    <glyph glyph-name="six.tnum" 
d="M333 -2h-188c-63 0 -106 43 -106 106v492c0 63 43 106 106 106h188c63 0 106 -43 106 -106v-109h-150v70c0 2 -1 3 -3 3h-94c-2 0 -3 -1 -3 -3v-112l-2 -50h2c10 33 38 50 84 50h60c63 0 106 -45 106 -109v-232c0 -63 -43 -106 -106 -106zM286 305h-94c-2 0 -3 -1 -3 -3
v-159c0 -2 1 -3 3 -3h94c2 0 3 1 3 3v159c0 2 -1 3 -3 3z" />
    <glyph glyph-name="six.2_tnum" 
d="M333 -2h-188c-63 0 -106 43 -106 106v490c0 63 43 106 106 106h259v-140h-212c-2 0 -3 -1 -3 -3v-112l-2 -50h2c11 31 39 50 84 50h60c63 0 106 -43 106 -106v-235c0 -63 -43 -106 -106 -106zM286 305h-94c-2 0 -3 -1 -3 -3v-159c0 -2 1 -3 3 -3h94c2 0 3 1 3 3v159
c0 2 -1 3 -3 3z" />
    <glyph glyph-name="seven.tnum" 
d="M439 550l-140 -550h-160l149 560h-99v-85h-150v225h400v-150z" />
    <glyph glyph-name="seven.2_tnum" 
d="M289 0h-160l149 560h-229v140h380v-150z" />
    <glyph glyph-name="eight.tnum" 
d="M89 356v2c-33 10 -50 37 -50 81v155c0 63 43 106 106 106h188c63 0 106 -43 106 -106v-155c0 -44 -17 -71 -50 -81v-2c33 -10 50 -37 50 -82v-168c0 -63 -43 -106 -106 -106h-188c-63 0 -106 43 -106 106v168c0 45 17 72 50 82zM286 560h-94c-2 0 -3 -1 -3 -3v-132
c0 -2 1 -3 3 -3h94c2 0 3 1 3 3v132c0 2 -1 3 -3 3zM286 292h-94c-2 0 -3 -1 -3 -3v-146c0 -2 1 -3 3 -3h94c2 0 3 1 3 3v146c0 2 -1 3 -3 3z" />
    <glyph glyph-name="nine.tnum" 
d="M333 0h-188c-63 0 -106 43 -106 106v107h150v-70c0 -2 1 -3 3 -3h94c2 0 3 1 3 3v125l2 50h-2c-9 -33 -36 -50 -83 -50h-61c-63 0 -106 43 -106 106v220c0 63 42 106 105 106h190c63 0 105 -43 105 -106v-488c0 -63 -43 -106 -106 -106zM289 411v146c0 2 -1 3 -3 3h-94
c-2 0 -3 -1 -3 -3v-146c0 -2 1 -3 3 -3h94c2 0 3 1 3 3z" />
    <glyph glyph-name="nine.2_tnum" 
d="M333 0h-259v140h212c2 0 3 1 3 3v125l2 50h-2c-11 -33 -39 -50 -83 -50h-61c-63 0 -106 43 -106 106v220c0 63 43 106 106 106h188c63 0 106 -43 106 -106v-488c0 -63 -43 -106 -106 -106zM289 411v146c0 2 -1 3 -3 3h-94c-2 0 -3 -1 -3 -3v-146c0 -2 1 -3 3 -3h94
c2 0 3 1 3 3z" />
    <glyph glyph-name="uni2070" unicode="&#x2070;" horiz-adv-x="308" 
d="M211 318h-114c-45 0 -73 28 -73 72v240c0 44 28 72 73 72h114c44 0 73 -28 73 -72v-240c0 -44 -29 -72 -73 -72zM184 413v194c0 2 -1 3 -3 3h-54c-2 0 -3 -1 -3 -3v-194c0 -2 1 -3 3 -3h54c2 0 3 1 3 3z" />
    <glyph glyph-name="uni00B9" unicode="&#xb9;" horiz-adv-x="252" 
d="M236 320h-220v90h60v200h-60v90h160v-290h60v-90z" />
    <glyph glyph-name="uni00B9.2" horiz-adv-x="220" 
d="M76 320v290h-60v90h160v-380h-100z" />
    <glyph glyph-name="uni00B2" unicode="&#xb2;" horiz-adv-x="308" 
d="M148 410h136v-90h-260v54c0 36 3 50 20 67l138 143c1 1 2 3 2 5v18c0 2 -1 3 -3 3h-54c-2 0 -3 -1 -3 -3v-42h-100v64c0 45 27 73 74 73h112c45 0 74 -28 74 -73v-23c0 -35 -3 -47 -20 -66l-112 -120c-3 -3 -4 -5 -4 -7v-3z" />
    <glyph glyph-name="uni00B2.2" horiz-adv-x="308" 
d="M24 320v154c0 45 27 73 74 73h83c2 0 3 1 3 3v57c0 2 -1 3 -3 3h-54c-2 0 -3 -1 -3 -3v-32h-100v54c0 45 27 73 74 73h112c45 0 74 -28 74 -73v-99c0 -45 -29 -73 -74 -73h-83c-2 0 -3 -1 -3 -3v-44h160v-90h-260z" />
    <glyph glyph-name="uni00B2.3" horiz-adv-x="285" 
d="M24 320v163c0 45 27 73 74 73h60c2 0 3 1 3 3v48c0 2 -1 3 -3 3h-127v90h156c45 0 74 -28 74 -73v-88c0 -45 -29 -73 -74 -73h-60c-2 0 -3 -1 -3 -3v-53h137v-90h-237z" />
    <glyph glyph-name="uni00B3" unicode="&#xb3;" horiz-adv-x="308" 
d="M210 318h-112c-47 0 -74 28 -74 73v54h100v-32c0 -2 1 -3 3 -3h54c2 0 3 1 3 3v60c0 2 -1 3 -3 3h-67v76h67c2 0 3 1 3 3v52c0 2 -1 3 -3 3h-54c-2 0 -3 -1 -3 -3v-32h-100v54c0 45 27 73 74 73h112c45 0 74 -28 74 -73v-63c0 -28 -10 -43 -30 -51v-2
c21 -9 30 -19 30 -51v-71c0 -45 -29 -73 -74 -73z" />
    <glyph glyph-name="uni00B3.2" horiz-adv-x="268" 
d="M170 320h-146v90h117c2 0 3 1 3 3v56c0 2 -1 3 -3 3h-72v86h72c2 0 3 1 3 3v46c0 2 -1 3 -3 3h-117v90h146c45 0 74 -28 74 -73v-51c0 -39 -9 -52 -30 -61v-2c21 -9 30 -22 30 -61v-59c0 -45 -29 -73 -74 -73z" />
    <glyph glyph-name="uni2074" unicode="&#x2074;" horiz-adv-x="297" 
d="M281 375h-30v-55h-100v55h-135v90l135 235h100v-235h30v-90zM151 465v100l-51 -100h51z" />
    <glyph glyph-name="uni2075" unicode="&#x2075;" horiz-adv-x="308" 
d="M210 318h-112c-47 0 -74 28 -74 73v54h100v-32c0 -2 1 -3 3 -3h54c2 0 3 1 3 3v83c0 2 -1 3 -3 3h-54c-2 0 -3 -1 -3 -3v-16h-100v220h250v-90h-150v-30l-2 -31h2c8 20 25 31 60 31h26c45 0 74 -29 74 -73v-116c0 -45 -29 -73 -74 -73z" />
    <glyph glyph-name="uni2075.2" horiz-adv-x="285" 
d="M24 320v90h134c2 0 3 1 3 3v57c0 2 -1 3 -3 3h-134v227h230v-90h-130v-47h63c45 0 74 -28 74 -73v-97c0 -45 -29 -73 -74 -73h-163z" />
    <glyph glyph-name="uni2076" unicode="&#x2076;" horiz-adv-x="308" 
d="M210 318h-112c-47 0 -74 28 -74 73v238c0 45 27 73 74 73h112c45 0 74 -28 74 -73v-47h-100v25c0 2 -1 3 -3 3h-54c-2 0 -3 -1 -3 -3v-50l-2 -30h2c8 20 24 30 63 30h23c44 0 74 -27 74 -67v-99c0 -45 -29 -73 -74 -73zM181 477h-54c-2 0 -3 -1 -3 -3v-61c0 -2 1 -3 3 -3
h54c2 0 3 1 3 3v61c0 2 -1 3 -3 3z" />
    <glyph glyph-name="uni2076.2" horiz-adv-x="308" 
d="M284 484v-93c0 -45 -29 -73 -74 -73h-112c-47 0 -74 28 -74 73v236c0 45 27 73 74 73h176v-90h-147c-2 0 -3 -1 -3 -3v-50l-2 -30h2c8 20 24 30 63 30h23c45 0 74 -29 74 -73zM184 413v61c0 2 -1 3 -3 3h-54c-2 0 -3 -1 -3 -3v-61c0 -2 1 -3 3 -3h54c2 0 3 1 3 3z" />
    <glyph glyph-name="uni2077" unicode="&#x2077;" horiz-adv-x="292" 
d="M276 610l-84 -290h-106l88 290h-58v-45h-100v135h260v-90z" />
    <glyph glyph-name="uni2077.2" horiz-adv-x="282" 
d="M266 610l-84 -290h-106l88 290h-148v90h250v-90z" />
    <glyph glyph-name="uni2078" unicode="&#x2078;" horiz-adv-x="308" 
d="M210 318h-112c-47 0 -74 28 -74 73v61c0 39 9 52 30 61v2c-21 9 -30 22 -30 61v53c0 45 27 73 74 73h112c45 0 74 -28 74 -73v-53c0 -39 -9 -52 -30 -61v-2c21 -9 30 -22 30 -61v-61c0 -45 -29 -73 -74 -73zM181 610h-54c-2 0 -3 -1 -3 -3v-52c0 -2 1 -3 3 -3h54
c2 0 3 1 3 3v52c0 2 -1 3 -3 3zM181 477h-54c-2 0 -3 -1 -3 -3v-61c0 -2 1 -3 3 -3h54c2 0 3 1 3 3v61c0 2 -1 3 -3 3z" />
    <glyph glyph-name="uni2079" unicode="&#x2079;" horiz-adv-x="308" 
d="M98 702h112c45 0 74 -28 74 -73v-238c0 -45 -29 -73 -74 -73h-112c-47 0 -74 28 -74 73v47h100v-25c0 -2 1 -3 3 -3h54c2 0 3 1 3 3v50l2 30h-2c-8 -20 -23 -30 -62 -30h-24c-47 0 -74 28 -74 73v93c0 45 27 73 74 73zM127 543h54c2 0 3 1 3 3v61c0 2 -1 3 -3 3h-54
c-2 0 -3 -1 -3 -3v-61c0 -2 1 -3 3 -3z" />
    <glyph glyph-name="uni2079.2" horiz-adv-x="308" 
d="M34 320v90h147c2 0 3 1 3 3v50l2 30h-2c-8 -20 -23 -30 -62 -30h-24c-47 0 -74 28 -74 73v93c0 45 27 73 74 73h112c45 0 74 -28 74 -73v-236c0 -45 -29 -73 -74 -73h-176zM127 543h54c2 0 3 1 3 3v61c0 2 -1 3 -3 3h-54c-2 0 -3 -1 -3 -3v-61c0 -2 1 -3 3 -3z" />
    <glyph glyph-name="uni2080" unicode="&#x2080;" horiz-adv-x="308" 
d="M211 -152h-114c-45 0 -73 28 -73 72v240c0 44 28 72 73 72h114c44 0 73 -28 73 -72v-240c0 -44 -29 -72 -73 -72zM184 -57v194c0 2 -1 3 -3 3h-54c-2 0 -3 -1 -3 -3v-194c0 -2 1 -3 3 -3h54c2 0 3 1 3 3z" />
    <glyph glyph-name="uni2081" unicode="&#x2081;" horiz-adv-x="252" 
d="M236 -150h-220v90h60v200h-60v90h160v-290h60v-90z" />
    <glyph glyph-name="uni2081.2" horiz-adv-x="220" 
d="M76 -150v290h-60v90h160v-380h-100z" />
    <glyph glyph-name="uni2082" unicode="&#x2082;" horiz-adv-x="308" 
d="M148 -60h136v-90h-260v54c0 36 3 50 20 67l138 143c1 1 2 3 2 5v18c0 2 -1 3 -3 3h-54c-2 0 -3 -1 -3 -3v-42h-100v64c0 45 27 73 74 73h112c45 0 74 -28 74 -73v-23c0 -35 -3 -47 -20 -66l-112 -120c-3 -3 -4 -5 -4 -7v-3z" />
    <glyph glyph-name="uni2082.2" horiz-adv-x="308" 
d="M24 -150v154c0 45 27 73 74 73h83c2 0 3 1 3 3v57c0 2 -1 3 -3 3h-54c-2 0 -3 -1 -3 -3v-32h-100v54c0 45 27 73 74 73h112c45 0 74 -28 74 -73v-99c0 -45 -29 -73 -74 -73h-83c-2 0 -3 -1 -3 -3v-44h160v-90h-260z" />
    <glyph glyph-name="uni2082.3" horiz-adv-x="285" 
d="M24 -150v163c0 45 27 73 74 73h60c2 0 3 1 3 3v48c0 2 -1 3 -3 3h-127v90h156c45 0 74 -28 74 -73v-88c0 -45 -29 -73 -74 -73h-60c-2 0 -3 -1 -3 -3v-53h137v-90h-237z" />
    <glyph glyph-name="uni2083" unicode="&#x2083;" horiz-adv-x="308" 
d="M210 -152h-112c-47 0 -74 28 -74 73v54h100v-32c0 -2 1 -3 3 -3h54c2 0 3 1 3 3v60c0 2 -1 3 -3 3h-67v76h67c2 0 3 1 3 3v52c0 2 -1 3 -3 3h-54c-2 0 -3 -1 -3 -3v-32h-100v54c0 45 27 73 74 73h112c45 0 74 -28 74 -73v-63c0 -28 -10 -43 -30 -51v-2
c21 -9 30 -19 30 -51v-71c0 -45 -29 -73 -74 -73z" />
    <glyph glyph-name="uni2083.2" horiz-adv-x="268" 
d="M170 -150h-146v90h117c2 0 3 1 3 3v56c0 2 -1 3 -3 3h-72v86h72c2 0 3 1 3 3v46c0 2 -1 3 -3 3h-117v90h146c45 0 74 -28 74 -73v-51c0 -39 -9 -52 -30 -61v-2c21 -9 30 -22 30 -61v-59c0 -45 -29 -73 -74 -73z" />
    <glyph glyph-name="uni2084" unicode="&#x2084;" horiz-adv-x="297" 
d="M281 -95h-30v-55h-100v55h-135v90l135 235h100v-235h30v-90zM151 -5v100l-51 -100h51z" />
    <glyph glyph-name="uni2085" unicode="&#x2085;" horiz-adv-x="308" 
d="M210 -152h-112c-47 0 -74 28 -74 73v54h100v-32c0 -2 1 -3 3 -3h54c2 0 3 1 3 3v83c0 2 -1 3 -3 3h-54c-2 0 -3 -1 -3 -3v-16h-100v220h250v-90h-150v-30l-2 -31h2c8 20 25 31 60 31h26c45 0 74 -29 74 -73v-116c0 -45 -29 -73 -74 -73z" />
    <glyph glyph-name="uni2085.2" horiz-adv-x="285" 
d="M24 -150v90h134c2 0 3 1 3 3v57c0 2 -1 3 -3 3h-134v227h230v-90h-130v-47h63c45 0 74 -28 74 -73v-97c0 -45 -29 -73 -74 -73h-163z" />
    <glyph glyph-name="uni2086" unicode="&#x2086;" horiz-adv-x="308" 
d="M210 -152h-112c-47 0 -74 28 -74 73v238c0 45 27 73 74 73h112c45 0 74 -28 74 -73v-47h-100v25c0 2 -1 3 -3 3h-54c-2 0 -3 -1 -3 -3v-50l-2 -30h2c8 20 24 30 63 30h23c44 0 74 -27 74 -67v-99c0 -45 -29 -73 -74 -73zM181 7h-54c-2 0 -3 -1 -3 -3v-61c0 -2 1 -3 3 -3
h54c2 0 3 1 3 3v61c0 2 -1 3 -3 3z" />
    <glyph glyph-name="uni2086.2" horiz-adv-x="308" 
d="M284 14v-93c0 -45 -29 -73 -74 -73h-112c-47 0 -74 28 -74 73v236c0 45 27 73 74 73h176v-90h-147c-2 0 -3 -1 -3 -3v-50l-2 -30h2c8 20 24 30 63 30h23c45 0 74 -29 74 -73zM184 -57v61c0 2 -1 3 -3 3h-54c-2 0 -3 -1 -3 -3v-61c0 -2 1 -3 3 -3h54c2 0 3 1 3 3z" />
    <glyph glyph-name="uni2087" unicode="&#x2087;" horiz-adv-x="292" 
d="M276 140l-84 -290h-106l88 290h-58v-45h-100v135h260v-90z" />
    <glyph glyph-name="uni2087.2" horiz-adv-x="282" 
d="M266 140l-84 -290h-106l88 290h-148v90h250v-90z" />
    <glyph glyph-name="uni2088" unicode="&#x2088;" horiz-adv-x="308" 
d="M210 -152h-112c-47 0 -74 28 -74 73v61c0 39 9 52 30 61v2c-21 9 -30 22 -30 61v53c0 45 27 73 74 73h112c45 0 74 -28 74 -73v-53c0 -39 -9 -52 -30 -61v-2c21 -9 30 -22 30 -61v-61c0 -45 -29 -73 -74 -73zM181 140h-54c-2 0 -3 -1 -3 -3v-52c0 -2 1 -3 3 -3h54
c2 0 3 1 3 3v52c0 2 -1 3 -3 3zM181 7h-54c-2 0 -3 -1 -3 -3v-61c0 -2 1 -3 3 -3h54c2 0 3 1 3 3v61c0 2 -1 3 -3 3z" />
    <glyph glyph-name="uni2089" unicode="&#x2089;" horiz-adv-x="308" 
d="M98 232h112c45 0 74 -28 74 -73v-238c0 -45 -29 -73 -74 -73h-112c-47 0 -74 28 -74 73v47h100v-25c0 -2 1 -3 3 -3h54c2 0 3 1 3 3v50l2 30h-2c-8 -20 -23 -30 -62 -30h-24c-47 0 -74 28 -74 73v93c0 45 27 73 74 73zM127 73h54c2 0 3 1 3 3v61c0 2 -1 3 -3 3h-54
c-2 0 -3 -1 -3 -3v-61c0 -2 1 -3 3 -3z" />
    <glyph glyph-name="uni2089.2" horiz-adv-x="308" 
d="M34 -150v90h147c2 0 3 1 3 3v50l2 30h-2c-8 -20 -23 -30 -62 -30h-24c-47 0 -74 28 -74 73v93c0 45 27 73 74 73h112c45 0 74 -28 74 -73v-236c0 -45 -29 -73 -74 -73h-176zM127 73h54c2 0 3 1 3 3v61c0 2 -1 3 -3 3h-54c-2 0 -3 -1 -3 -3v-61c0 -2 1 -3 3 -3z" />
    <glyph glyph-name="zero.dnom" horiz-adv-x="308" 
d="M211 -2h-114c-45 0 -73 28 -73 72v240c0 44 28 72 73 72h114c44 0 73 -28 73 -72v-240c0 -44 -29 -72 -73 -72zM184 93v194c0 2 -1 3 -3 3h-54c-2 0 -3 -1 -3 -3v-194c0 -2 1 -3 3 -3h54c2 0 3 1 3 3z" />
    <glyph glyph-name="one.dnom" horiz-adv-x="252" 
d="M236 0h-220v90h60v200h-60v90h160v-290h60v-90z" />
    <glyph glyph-name="one.2.dnom" horiz-adv-x="220" 
d="M76 0v290h-60v90h160v-380h-100z" />
    <glyph glyph-name="two.dnom" horiz-adv-x="308" 
d="M148 90h136v-90h-260v54c0 36 3 50 20 67l138 143c1 1 2 3 2 5v18c0 2 -1 3 -3 3h-54c-2 0 -3 -1 -3 -3v-42h-100v64c0 45 27 73 74 73h112c45 0 74 -28 74 -73v-23c0 -35 -3 -47 -20 -66l-112 -120c-3 -3 -4 -5 -4 -7v-3z" />
    <glyph glyph-name="two.2.dnom" horiz-adv-x="308" 
d="M24 0v154c0 45 27 73 74 73h83c2 0 3 1 3 3v57c0 2 -1 3 -3 3h-54c-2 0 -3 -1 -3 -3v-32h-100v54c0 45 27 73 74 73h112c45 0 74 -28 74 -73v-99c0 -45 -29 -73 -74 -73h-83c-2 0 -3 -1 -3 -3v-44h160v-90h-260z" />
    <glyph glyph-name="two.3.dnom" horiz-adv-x="285" 
d="M24 0v163c0 45 27 73 74 73h60c2 0 3 1 3 3v48c0 2 -1 3 -3 3h-127v90h156c45 0 74 -28 74 -73v-88c0 -45 -29 -73 -74 -73h-60c-2 0 -3 -1 -3 -3v-53h137v-90h-237z" />
    <glyph glyph-name="three.dnom" horiz-adv-x="308" 
d="M210 -2h-112c-47 0 -74 28 -74 73v54h100v-32c0 -2 1 -3 3 -3h54c2 0 3 1 3 3v60c0 2 -1 3 -3 3h-67v76h67c2 0 3 1 3 3v52c0 2 -1 3 -3 3h-54c-2 0 -3 -1 -3 -3v-32h-100v54c0 45 27 73 74 73h112c45 0 74 -28 74 -73v-63c0 -28 -10 -43 -30 -51v-2c21 -9 30 -19 30 -51
v-71c0 -45 -29 -73 -74 -73z" />
    <glyph glyph-name="three.2.dnom" horiz-adv-x="268" 
d="M170 0h-146v90h117c2 0 3 1 3 3v56c0 2 -1 3 -3 3h-72v86h72c2 0 3 1 3 3v46c0 2 -1 3 -3 3h-117v90h146c45 0 74 -28 74 -73v-51c0 -39 -9 -52 -30 -61v-2c21 -9 30 -22 30 -61v-59c0 -45 -29 -73 -74 -73z" />
    <glyph glyph-name="four.dnom" horiz-adv-x="297" 
d="M281 55h-30v-55h-100v55h-135v90l135 235h100v-235h30v-90zM151 145v100l-51 -100h51z" />
    <glyph glyph-name="five.dnom" horiz-adv-x="308" 
d="M210 -2h-112c-47 0 -74 28 -74 73v54h100v-32c0 -2 1 -3 3 -3h54c2 0 3 1 3 3v83c0 2 -1 3 -3 3h-54c-2 0 -3 -1 -3 -3v-16h-100v220h250v-90h-150v-30l-2 -31h2c8 20 25 31 60 31h26c45 0 74 -29 74 -73v-116c0 -45 -29 -73 -74 -73z" />
    <glyph glyph-name="five.2.dnom" horiz-adv-x="285" 
d="M24 0v90h134c2 0 3 1 3 3v57c0 2 -1 3 -3 3h-134v227h230v-90h-130v-47h63c45 0 74 -28 74 -73v-97c0 -45 -29 -73 -74 -73h-163z" />
    <glyph glyph-name="six.dnom" horiz-adv-x="308" 
d="M210 -2h-112c-47 0 -74 28 -74 73v238c0 45 27 73 74 73h112c45 0 74 -28 74 -73v-47h-100v25c0 2 -1 3 -3 3h-54c-2 0 -3 -1 -3 -3v-50l-2 -30h2c8 20 24 30 63 30h23c44 0 74 -27 74 -67v-99c0 -45 -29 -73 -74 -73zM181 157h-54c-2 0 -3 -1 -3 -3v-61c0 -2 1 -3 3 -3
h54c2 0 3 1 3 3v61c0 2 -1 3 -3 3z" />
    <glyph glyph-name="six.2.dnom" horiz-adv-x="308" 
d="M284 164v-93c0 -45 -29 -73 -74 -73h-112c-47 0 -74 28 -74 73v236c0 45 27 73 74 73h176v-90h-147c-2 0 -3 -1 -3 -3v-50l-2 -30h2c8 20 24 30 63 30h23c45 0 74 -29 74 -73zM184 93v61c0 2 -1 3 -3 3h-54c-2 0 -3 -1 -3 -3v-61c0 -2 1 -3 3 -3h54c2 0 3 1 3 3z" />
    <glyph glyph-name="seven.dnom" horiz-adv-x="292" 
d="M276 290l-84 -290h-106l88 290h-58v-45h-100v135h260v-90z" />
    <glyph glyph-name="seven.2.dnom" horiz-adv-x="282" 
d="M266 290l-84 -290h-106l88 290h-148v90h250v-90z" />
    <glyph glyph-name="eight.dnom" horiz-adv-x="308" 
d="M210 -2h-112c-47 0 -74 28 -74 73v61c0 39 9 52 30 61v2c-21 9 -30 22 -30 61v53c0 45 27 73 74 73h112c45 0 74 -28 74 -73v-53c0 -39 -9 -52 -30 -61v-2c21 -9 30 -22 30 -61v-61c0 -45 -29 -73 -74 -73zM181 290h-54c-2 0 -3 -1 -3 -3v-52c0 -2 1 -3 3 -3h54
c2 0 3 1 3 3v52c0 2 -1 3 -3 3zM181 157h-54c-2 0 -3 -1 -3 -3v-61c0 -2 1 -3 3 -3h54c2 0 3 1 3 3v61c0 2 -1 3 -3 3z" />
    <glyph glyph-name="nine.dnom" horiz-adv-x="308" 
d="M98 382h112c45 0 74 -28 74 -73v-238c0 -45 -29 -73 -74 -73h-112c-47 0 -74 28 -74 73v47h100v-25c0 -2 1 -3 3 -3h54c2 0 3 1 3 3v50l2 30h-2c-8 -20 -23 -30 -62 -30h-24c-47 0 -74 28 -74 73v93c0 45 27 73 74 73zM127 223h54c2 0 3 1 3 3v61c0 2 -1 3 -3 3h-54
c-2 0 -3 -1 -3 -3v-61c0 -2 1 -3 3 -3z" />
    <glyph glyph-name="nine.2.dnom" horiz-adv-x="308" 
d="M34 0v90h147c2 0 3 1 3 3v50l2 30h-2c-8 -20 -23 -30 -62 -30h-24c-47 0 -74 28 -74 73v93c0 45 27 73 74 73h112c45 0 74 -28 74 -73v-236c0 -45 -29 -73 -74 -73h-176zM127 223h54c2 0 3 1 3 3v61c0 2 -1 3 -3 3h-54c-2 0 -3 -1 -3 -3v-61c0 -2 1 -3 3 -3z" />
    <glyph glyph-name="onehalf" unicode="&#xbd;" horiz-adv-x="676" 
d="M236 320h-220v90h60v200h-60v90h160v-290h60v-90zM468 700l-232 -700h-84l232 700h84zM516 90h136v-90h-260v54c0 36 3 50 20 67l138 143c1 1 2 3 2 5v18c0 2 -1 3 -3 3h-54c-2 0 -3 -1 -3 -3v-42h-100v64c0 45 27 73 74 73h112c45 0 74 -28 74 -73v-23
c0 -35 -3 -47 -20 -66l-112 -120c-3 -3 -4 -5 -4 -7v-3z" />
    <glyph glyph-name="onehalf.2" horiz-adv-x="634" 
d="M76 320v290h-60v90h160v-380h-100zM436 700l-232 -700h-84l232 700h84zM350 0v154c0 45 27 73 74 73h83c2 0 3 1 3 3v57c0 2 -1 3 -3 3h-54c-2 0 -3 -1 -3 -3v-32h-100v54c0 45 27 73 74 73h112c45 0 74 -28 74 -73v-99c0 -45 -29 -73 -74 -73h-83c-2 0 -3 -1 -3 -3v-44
h160v-90h-260z" />
    <glyph glyph-name="onehalf.3" horiz-adv-x="611" 
d="M76 320v290h-60v90h160v-380h-100zM436 700l-232 -700h-84l232 700h84zM350 0v163c0 45 27 73 74 73h60c2 0 3 1 3 3v48c0 2 -1 3 -3 3h-127v90h156c45 0 74 -28 74 -73v-88c0 -45 -29 -73 -74 -73h-60c-2 0 -3 -1 -3 -3v-53h137v-90h-237z" />
    <glyph glyph-name="onequarter" unicode="&#xbc;" horiz-adv-x="625" 
d="M236 320h-220v90h60v200h-60v90h160v-290h60v-90zM468 700l-232 -700h-84l232 700h84zM609 55h-30v-55h-100v55h-135v90l135 235h100v-235h30v-90zM479 145v100l-51 -100h51z" />
    <glyph glyph-name="onequarter.2" horiz-adv-x="593" 
d="M76 320v290h-60v90h160v-380h-100zM436 700l-232 -700h-84l232 700h84zM577 55h-30v-55h-100v55h-135v90l135 235h100v-235h30v-90zM447 145v100l-51 -100h51z" />
    <glyph glyph-name="threequarters" unicode="&#xbe;" horiz-adv-x="681" 
d="M210 318h-112c-47 0 -74 28 -74 73v54h100v-32c0 -2 1 -3 3 -3h54c2 0 3 1 3 3v60c0 2 -1 3 -3 3h-67v76h67c2 0 3 1 3 3v52c0 2 -1 3 -3 3h-54c-2 0 -3 -1 -3 -3v-32h-100v54c0 45 27 73 74 73h112c45 0 74 -28 74 -73v-63c0 -28 -10 -43 -30 -51v-2
c21 -9 30 -19 30 -51v-71c0 -45 -29 -73 -74 -73zM524 700l-232 -700h-84l232 700h84zM665 55h-30v-55h-100v55h-135v90l135 235h100v-235h30v-90zM535 145v100l-51 -100h51z" />
    <glyph glyph-name="threequarters.2" horiz-adv-x="641" 
d="M170 320h-146v90h117c2 0 3 1 3 3v56c0 2 -1 3 -3 3h-72v86h72c2 0 3 1 3 3v46c0 2 -1 3 -3 3h-117v90h146c45 0 74 -28 74 -73v-51c0 -39 -9 -52 -30 -61v-2c21 -9 30 -22 30 -61v-59c0 -45 -29 -73 -74 -73zM484 700l-232 -700h-84l232 700h84zM625 55h-30v-55h-100v55
h-135v90l135 235h100v-235h30v-90zM495 145v100l-51 -100h51z" />
    <glyph glyph-name="underscore" unicode="_" horiz-adv-x="450" 
d="M450 -114h-450v54h450v-54z" />
    <glyph glyph-name="hyphen" unicode="-" horiz-adv-x="283" 
d="M270 173h-256v125h256v-125z" />
    <glyph glyph-name="hyphen.case" horiz-adv-x="283" 
d="M270 283h-256v135h256v-135z" />
    <glyph glyph-name="uni00AD" unicode="&#xad;" horiz-adv-x="283" 
d="M270 173h-256v125h256v-125z" />
    <glyph glyph-name="endash" unicode="&#x2013;" horiz-adv-x="450" 
d="M436 173h-422v125h422v-125z" />
    <glyph glyph-name="endash.case" horiz-adv-x="450" 
d="M436 283h-422v135h422v-135z" />
    <glyph glyph-name="emdash" unicode="&#x2014;" horiz-adv-x="654" 
d="M640 173h-626v125h626v-125z" />
    <glyph glyph-name="emdash.case" horiz-adv-x="654" 
d="M640 283h-626v135h626v-135z" />
    <glyph glyph-name="parenleft" unicode="(" horiz-adv-x="247" 
d="M36 325c0 92 10 180 31 263s46 154 75 212h94c-30 -67 -55 -143 -76 -226c-20 -83 -30 -166 -30 -249s10 -166 30 -250c21 -83 46 -159 76 -226h-94c-29 58 -54 129 -75 212s-31 171 -31 264z" />
    <glyph glyph-name="parenright" unicode=")" horiz-adv-x="247" 
d="M105 -151h-94c30 67 55 143 75 226c21 84 31 167 31 250s-10 166 -31 249c-20 83 -45 159 -75 226h94c29 -58 54 -129 75 -212s31 -171 31 -263c0 -93 -10 -181 -31 -264s-46 -154 -75 -212z" />
    <glyph glyph-name="bracketleft" unicode="[" horiz-adv-x="261" 
d="M243 -151h-201v951h201v-95h-107v-761h107v-95z" />
    <glyph glyph-name="bracketright" unicode="]" horiz-adv-x="261" 
d="M17 -151v95h107v761h-107v95h201v-951h-201z" />
    <glyph glyph-name="braceleft" unicode="{" horiz-adv-x="274" 
d="M269 -65v-86h-133c-41 0 -68 26 -68 69v360c0 2 -1 3 -3 3h-61v86h61c2 0 3 1 3 3v361c0 43 27 69 68 69h133v-86h-104c-2 0 -3 -1 -3 -3v-305c0 -43 -17 -70 -50 -80v-2c33 -10 50 -37 50 -81v-305c0 -2 1 -3 3 -3h104z" />
    <glyph glyph-name="braceright" unicode="}" horiz-adv-x="274" 
d="M4 -65h104c2 0 3 1 3 3v305c0 44 17 71 50 81v2c-33 10 -50 37 -50 80v305c0 2 -1 3 -3 3h-104v86h133c41 0 68 -26 68 -69v-361c0 -2 1 -3 3 -3h61v-86h-61c-2 0 -3 -1 -3 -3v-360c0 -43 -27 -69 -68 -69h-133v86z" />
    <glyph glyph-name="parenleft.case" horiz-adv-x="247" 
d="M36 350c0 92 10 180 31 263s46 154 75 212h94c-30 -67 -55 -143 -76 -226c-20 -83 -30 -166 -30 -249s10 -166 30 -250c21 -83 46 -159 76 -226h-94c-29 58 -54 129 -75 212s-31 171 -31 264z" />
    <glyph glyph-name="parenright.case" horiz-adv-x="247" 
d="M105 -126h-94c30 67 55 143 75 226c21 84 31 167 31 250s-10 166 -31 249c-20 83 -45 159 -75 226h94c29 -58 54 -129 75 -212s31 -171 31 -263c0 -93 -10 -181 -31 -264s-46 -154 -75 -212z" />
    <glyph glyph-name="bracketleft.case" horiz-adv-x="261" 
d="M243 -126h-201v951h201v-95h-107v-761h107v-95z" />
    <glyph glyph-name="bracketright.case" horiz-adv-x="261" 
d="M17 -126v95h107v761h-107v95h201v-951h-201z" />
    <glyph glyph-name="braceleft.case" horiz-adv-x="274" 
d="M269 -40v-86h-133c-41 0 -68 26 -68 69v360c0 2 -1 3 -3 3h-61v86h61c2 0 3 1 3 3v361c0 43 27 69 68 69h133v-86h-104c-2 0 -3 -1 -3 -3v-305c0 -43 -17 -70 -50 -80v-2c33 -10 50 -37 50 -81v-305c0 -2 1 -3 3 -3h104z" />
    <glyph glyph-name="braceright.case" horiz-adv-x="274" 
d="M4 -40h104c2 0 3 1 3 3v305c0 44 17 71 50 81v2c-33 10 -50 37 -50 80v305c0 2 -1 3 -3 3h-104v86h133c41 0 68 -26 68 -69v-361c0 -2 1 -3 3 -3h61v-86h-61c-2 0 -3 -1 -3 -3v-360c0 -43 -27 -69 -68 -69h-133v86z" />
    <glyph glyph-name="numbersign" unicode="#" horiz-adv-x="573" 
d="M546 425h-94l-50 -150h94l-30 -92h-94l-61 -183h-100l61 183h-79l-61 -183h-100l61 183h-89l30 92h89l50 150h-89l30 92h89l61 183h100l-61 -183h79l61 183h100l-61 -183h94zM302 275l50 150h-79l-50 -150h79z" />
    <glyph glyph-name="uni2116" unicode="&#x2116;" horiz-adv-x="876" 
d="M439 0h-138l-109 349l-3 15v-364h-150v700h158l89 -302l3 -16v318h150v-700zM741 278h-128c-57 0 -96 39 -96 96v232c0 59 39 96 96 96h128c59 0 96 -37 96 -96v-232c0 -57 -37 -96 -96 -96zM707 403v174c0 2 -1 3 -3 3h-54c-2 0 -3 -1 -3 -3v-174c0 -2 1 -3 3 -3h54
c2 0 3 1 3 3zM517 210h320v-120h-320v120z" />
    <glyph glyph-name="percent" unicode="%" horiz-adv-x="732" 
d="M211 318h-114c-45 0 -73 28 -73 72v240c0 44 28 72 73 72h114c44 0 73 -28 73 -72v-240c0 -44 -29 -72 -73 -72zM184 413v194c0 2 -1 3 -3 3h-54c-2 0 -3 -1 -3 -3v-194c0 -2 1 -3 3 -3h54c2 0 3 1 3 3zM524 700l-232 -700h-84l232 700h84zM635 -2h-114
c-45 0 -73 28 -73 72v240c0 44 28 72 73 72h114c44 0 73 -28 73 -72v-240c0 -44 -29 -72 -73 -72zM608 93v194c0 2 -1 3 -3 3h-54c-2 0 -3 -1 -3 -3v-194c0 -2 1 -3 3 -3h54c2 0 3 1 3 3z" />
    <glyph glyph-name="perthousand" unicode="&#x2030;" horiz-adv-x="1040" 
d="M211 318h-114c-45 0 -73 28 -73 72v240c0 44 28 72 73 72h114c44 0 73 -28 73 -72v-240c0 -44 -29 -72 -73 -72zM184 413v194c0 2 -1 3 -3 3h-54c-2 0 -3 -1 -3 -3v-194c0 -2 1 -3 3 -3h54c2 0 3 1 3 3zM524 700l-232 -700h-84l232 700h84zM635 -2h-114
c-45 0 -73 28 -73 72v240c0 44 28 72 73 72h114c44 0 73 -28 73 -72v-240c0 -44 -29 -72 -73 -72zM608 93v194c0 2 -1 3 -3 3h-54c-2 0 -3 -1 -3 -3v-194c0 -2 1 -3 3 -3h54c2 0 3 1 3 3zM943 -2h-114c-45 0 -73 28 -73 72v240c0 44 28 72 73 72h114c44 0 73 -28 73 -72
v-240c0 -44 -29 -72 -73 -72zM916 93v194c0 2 -1 3 -3 3h-54c-2 0 -3 -1 -3 -3v-194c0 -2 1 -3 3 -3h54c2 0 3 1 3 3z" />
    <glyph glyph-name="quotesingle" unicode="'" horiz-adv-x="238" 
d="M211 701l-55 -251h-72l-56 251h183z" />
    <glyph glyph-name="quotedbl" unicode="&#x22;" horiz-adv-x="433" 
d="M211 701l-55 -251h-72l-56 251h183zM405 701l-55 -251h-72l-56 251h183z" />
    <glyph glyph-name="quoteleft" unicode="&#x2018;" horiz-adv-x="232" 
d="M42 569l68 131h58l-29 -93c37 -11 64 -44 64 -84c0 -48 -39 -87 -87 -87s-87 39 -87 87c0 14 4 29 13 46z" />
    <glyph glyph-name="quoteright" unicode="&#x2019;" horiz-adv-x="232" 
d="M190 577l-68 -131h-58l29 93c-37 11 -64 44 -64 84c0 48 39 87 87 87s87 -39 87 -87c0 -14 -4 -29 -13 -46z" />
    <glyph glyph-name="quotedblleft" unicode="&#x201c;" horiz-adv-x="435" 
d="M42 569l68 131h58l-29 -93c37 -11 64 -44 64 -84c0 -48 -39 -87 -87 -87s-87 39 -87 87c0 14 4 29 13 46zM245 569l68 131h58l-29 -93c37 -11 64 -44 64 -84c0 -48 -39 -87 -87 -87s-87 39 -87 87c0 14 4 29 13 46z" />
    <glyph glyph-name="quotedblright" unicode="&#x201d;" horiz-adv-x="435" 
d="M190 577l-68 -131h-58l29 93c-37 11 -64 44 -64 84c0 48 39 87 87 87s87 -39 87 -87c0 -14 -4 -29 -13 -46zM393 577l-68 -131h-58l29 93c-37 11 -64 44 -64 84c0 48 39 87 87 87s87 -39 87 -87c0 -14 -4 -29 -13 -46z" />
    <glyph glyph-name="quotesinglbase" unicode="&#x201a;" horiz-adv-x="232" 
d="M190 31l-68 -131h-58l29 93c-37 11 -64 44 -64 84c0 48 39 87 87 87s87 -39 87 -87c0 -14 -4 -29 -13 -46z" />
    <glyph glyph-name="quotedblbase" unicode="&#x201e;" horiz-adv-x="435" 
d="M190 31l-68 -131h-58l29 93c-37 11 -64 44 -64 84c0 48 39 87 87 87s87 -39 87 -87c0 -14 -4 -29 -13 -46zM393 31l-68 -131h-58l29 93c-37 11 -64 44 -64 84c0 48 39 87 87 87s87 -39 87 -87c0 -14 -4 -29 -13 -46z" />
    </font>
</defs>
</svg>
